<svg xmlns="http://www.w3.org/2000/svg" viewBox="0 0 432 108"><defs><style>.a{fill:#586069;}.b{fill:#532d6d;}.c{fill:#fff;}</style></defs><title>advisorstream_gray-bg</title><rect class="a" width="432" height="108"/><path class="b" d="M181.86,228.14s-1.57.7-1.75.74a22.51,22.51,0,0,1-3.63,1,17.44,17.44,0,0,1-3.4.42,14.8,14.8,0,0,1-6.18-1.21,12.22,12.22,0,0,1-4.43-3.36,14.92,14.92,0,0,1-2.7-5,20.53,20.53,0,0,1-.92-6.26,18.37,18.37,0,0,1,1-6.18,15.11,15.11,0,0,1,2.94-5.06,13.74,13.74,0,0,1,4.6-3.38,14.37,14.37,0,0,1,6-1.23,14.58,14.58,0,0,1,4.76.69,13.52,13.52,0,0,1,3.6,1.88v-16h5.37V230h-5.37Zm-.18-16.7a7.36,7.36,0,0,0-2.14-5.39,7.88,7.88,0,0,0-5.87-2.17,9.33,9.33,0,0,0-4,.79,8,8,0,0,0-2.86,2.2,9.66,9.66,0,0,0-1.75,3.34,14.08,14.08,0,0,0-.59,4.13,16.14,16.14,0,0,0,.53,4.26,9.73,9.73,0,0,0,1.62,3.39,7.54,7.54,0,0,0,2.8,2.25,9.29,9.29,0,0,0,4,.82,14.43,14.43,0,0,0,4.7-.67,12.11,12.11,0,0,0,3.48-1.87Z" transform="translate(-90 -138.81)"/><path class="b" d="M212,224.7q-.34.92-.77,1.92a7.92,7.92,0,0,1-1.14,1.85,5.48,5.48,0,0,1-1.65,1.36,5.1,5.1,0,0,1-4.41,0,5.21,5.21,0,0,1-1.59-1.3,9.71,9.71,0,0,1-1.15-1.78,14.82,14.82,0,0,1-.83-2l-9.64-25.05h6.09l8.74,23.94c.2.58.45.87.74.87s.54-.3.74-.9l8.4-23.91h5.58Z" transform="translate(-90 -138.81)"/><path class="b" d="M225.38,199.71H231V230h-5.63Z" transform="translate(-90 -138.81)"/><path class="b" d="M246.33,230.74a22.08,22.08,0,0,1-3.61-.29,13.49,13.49,0,0,1-3.38-1,10.87,10.87,0,0,1-3-2,10.12,10.12,0,0,1-2.25-3.22l4.85-2.6a6.84,6.84,0,0,0,2.88,3.21,10.81,10.81,0,0,0,4.76.85,16.54,16.54,0,0,0,3.46-.29,6.83,6.83,0,0,0,2.07-.76,2.26,2.26,0,0,0,1-1.07,3.49,3.49,0,0,0,.23-1.25,2.9,2.9,0,0,0-.75-2,6.89,6.89,0,0,0-2-1.44l-1.39-.54-1.49-.58-1.58-.61-1.6-.62-3.24-1.27a9.87,9.87,0,0,1-2.88-1.71,8.37,8.37,0,0,1-2-2.57,9,9,0,0,1,.06-7.4,7.28,7.28,0,0,1,2.31-2.6,10.41,10.41,0,0,1,3.55-1.53,18.74,18.74,0,0,1,4.45-.5q1.23,0,2.77.13a10.87,10.87,0,0,1,3.1.74,10.15,10.15,0,0,1,3,1.87,11.32,11.32,0,0,1,2.54,3.49l-4.69,2.48a5.7,5.7,0,0,0-2.86-2.93,11,11,0,0,0-4.1-.7,12.43,12.43,0,0,0-1.83.14,6.57,6.57,0,0,0-1.7.48,3.21,3.21,0,0,0-1.24.95,2.36,2.36,0,0,0-.47,1.5,4.09,4.09,0,0,0,.16,1.13,2.68,2.68,0,0,0,.82,1.18,6.27,6.27,0,0,0,2,1.12l3.73,1.38,3.83,1.41a13.37,13.37,0,0,1,3.42,1.84,8.84,8.84,0,0,1,2.46,2.81,8.14,8.14,0,0,1,.93,4,10,10,0,0,1-.61,3.58,6.64,6.64,0,0,1-2,2.8,10,10,0,0,1-3.83,1.81A23.49,23.49,0,0,1,246.33,230.74Z" transform="translate(-90 -138.81)"/><path class="b" d="M276.24,230.46a14.46,14.46,0,0,1-10.78-4.57,15,15,0,0,1-3.09-5,17,17,0,0,1-1.09-6.12,16.45,16.45,0,0,1,1.12-6.08,16.27,16.27,0,0,1,3.09-5,14,14,0,0,1,4.72-3.4,14.63,14.63,0,0,1,6-1.23,15.18,15.18,0,0,1,6.12,1.2,14.1,14.1,0,0,1,4.75,3.34,15.13,15.13,0,0,1,3.09,5,18.09,18.09,0,0,1,0,12.39,15.13,15.13,0,0,1-3.09,5,14.12,14.12,0,0,1-4.75,3.32A15.26,15.26,0,0,1,276.24,230.46Zm0-26.17a8.74,8.74,0,0,0-6.82,3,9.67,9.67,0,0,0-1.86,3.32,13.19,13.19,0,0,0,0,8.18,10.35,10.35,0,0,0,1.84,3.32,8.37,8.37,0,0,0,2.93,2.24,9.81,9.81,0,0,0,7.78,0,8.9,8.9,0,0,0,3-2.18,9.79,9.79,0,0,0,1.92-3.32,12.64,12.64,0,0,0,.68-4.22,11.68,11.68,0,0,0-.68-4,10.27,10.27,0,0,0-1.92-3.3,9.39,9.39,0,0,0-3-2.27A8.63,8.63,0,0,0,276.24,204.29Z" transform="translate(-90 -138.81)"/><path class="b" d="M312.22,206.64a7.29,7.29,0,0,0-3.07-2,10.68,10.68,0,0,0-3.13-.51,10.53,10.53,0,0,0-4,.84,3.24,3.24,0,0,0-1.53,1.16,3.74,3.74,0,0,0-.41,1.93V230h-5.63V206.49a5.46,5.46,0,0,1,1.17-3.59,8.67,8.67,0,0,1,2.9-2.28,13.54,13.54,0,0,1,3.74-1.19,21.89,21.89,0,0,1,3.62-.34q1.24,0,2.45.06a11.36,11.36,0,0,1,2.45.41,9.81,9.81,0,0,1,2.46,1.07,10.09,10.09,0,0,1,2.37,2.07Z" transform="translate(-90 -138.81)"/><path class="c" d="M358.19,226.66l-2.56.73a15.13,15.13,0,0,1-3,.52,6.49,6.49,0,0,1-4.34-1.25,6.17,6.17,0,0,1-1.85-3.92q-.06-.53-.09-1.16c0-.42,0-.8,0-1.13v-18h9.81V200h-9.81v-8.36h-2.48V200h-2.52v2.42h2.52V221.2q0,4.4,2.27,6.7a8.17,8.17,0,0,0,6.11,2.31,12.78,12.78,0,0,0,3.12-.41l2.91-.74Z" transform="translate(-90 -138.81)"/><path class="c" d="M378.14,200a14.38,14.38,0,0,0-4.89-.7,14.91,14.91,0,0,0-2.9.29,13.81,13.81,0,0,0-2.79.85,8.23,8.23,0,0,0-1.88,1v-2.25H363.2V230h2.48V207.64a8,8,0,0,1,.5-3,4.24,4.24,0,0,1,2.32-2.08,11.52,11.52,0,0,1,2.34-.71,13.54,13.54,0,0,1,2.51-.22,12.16,12.16,0,0,1,3.33.46,6.07,6.07,0,0,1,2.81,1.73l1.76-1.64A7.41,7.41,0,0,0,378.14,200Z" transform="translate(-90 -138.81)"/><path class="c" d="M384.86,215q.12,6.15,3.22,9.66a10.91,10.91,0,0,0,8.62,3.51,14.35,14.35,0,0,0,5.22-.93,21,21,0,0,0,4.48-2.38l1,1.85a23,23,0,0,1-5,2.67,16.67,16.67,0,0,1-5.84,1,15.07,15.07,0,0,1-5.92-1.1,12.45,12.45,0,0,1-4.44-3.13,13.76,13.76,0,0,1-2.81-4.92,20.13,20.13,0,0,1-1-6.46,19.06,19.06,0,0,1,1-6.27,14.14,14.14,0,0,1,2.76-4.83,12.52,12.52,0,0,1,4.23-3.11,12.76,12.76,0,0,1,5.34-1.12,12.31,12.31,0,0,1,5,1,10.9,10.9,0,0,1,3.83,2.79,14.23,14.23,0,0,1,2.57,4.29,19,19,0,0,1,1.2,5.45q.17,1.7.17,2.11Zm10.94-13.38a10.08,10.08,0,0,0-7.48,2.94,13.28,13.28,0,0,0-3.46,8.27H406a15.26,15.26,0,0,0-3.06-8.21A8.69,8.69,0,0,0,395.81,201.63Z" transform="translate(-90 -138.81)"/><path class="c" d="M438.62,200V230h-2.5V227.8l-1.73.8a7.86,7.86,0,0,1-.74.31,30.83,30.83,0,0,1-3.76,1.13,18.26,18.26,0,0,1-4.08.43,15.31,15.31,0,0,1-5.87-1.07,12.29,12.29,0,0,1-4.4-3,13.56,13.56,0,0,1-2.81-4.75,18.28,18.28,0,0,1-1-6.16,19.15,19.15,0,0,1,1-6.06,15.18,15.18,0,0,1,2.8-5.08,13.76,13.76,0,0,1,4.49-3.49,13.5,13.5,0,0,1,6-1.3,12.51,12.51,0,0,1,6.2,1.4,11.74,11.74,0,0,1,3.95,3.5V200Zm-2.48,13a18.59,18.59,0,0,0-.29-3.63,9.1,9.1,0,0,0-3.32-5.64,10,10,0,0,0-6.31-2,11.66,11.66,0,0,0-5.19,1.1,11.09,11.09,0,0,0-3.76,2.95,12.49,12.49,0,0,0-2.28,4.36,17.89,17.89,0,0,0-.76,5.24,16.59,16.59,0,0,0,.76,5.15,11.25,11.25,0,0,0,2.28,4.06,10.48,10.48,0,0,0,3.73,2.67,12.74,12.74,0,0,0,5.1,1,17.79,17.79,0,0,0,5.49-.9,25,25,0,0,0,4.54-1.89Z" transform="translate(-90 -138.81)"/><path class="c" d="M476,199.46q5.07,0,7.7,2.63t2.62,8.58V230H483.8V211.14a20.32,20.32,0,0,0-.36-4,7.44,7.44,0,0,0-1.27-3,5.64,5.64,0,0,0-2.48-1.86,11,11,0,0,0-4-.63,13,13,0,0,0-3.39.43,9,9,0,0,0-2.87,1.3,7.13,7.13,0,0,0-2,2,4.79,4.79,0,0,0-.74,2.62v22H464.2V209.62q0-4.3-2-6.15t-6.27-1.84a14.28,14.28,0,0,0-4.86.85,16.82,16.82,0,0,0-3.93,1.93V230h-2.48V203.33a24.61,24.61,0,0,1,5.14-2.76,16.73,16.73,0,0,1,6.22-1.12,13.55,13.55,0,0,1,6.2,1.21,7.57,7.57,0,0,1,3.41,3.34,10,10,0,0,1,4.1-3.3A14.6,14.6,0,0,1,476,199.46Z" transform="translate(-90 -138.81)"/><path class="b" d="M231.79,186.2a5.13,5.13,0,1,0,1.51,3.63A5.12,5.12,0,0,0,231.79,186.2Z" transform="translate(-90 -138.81)"/><path class="c" d="M327.72,230.54a17.23,17.23,0,0,1-6.39-1.15,8.28,8.28,0,0,1-4.3-3.55l1.79-1.58a7.44,7.44,0,0,0,3.59,3.11,14.28,14.28,0,0,0,5.48.95q4.61,0,6.61-1.39a4.57,4.57,0,0,0,2-4,5.5,5.5,0,0,0-.62-2.66,6.17,6.17,0,0,0-1.71-2,10.81,10.81,0,0,0-2.56-1.42q-1.47-.59-3.11-1.11a24.33,24.33,0,0,1-7.65-3.48,7.15,7.15,0,0,1-.11-10.9q2.47-2,7.33-2a24.41,24.41,0,0,1,2.66.16,12.08,12.08,0,0,1,2.69.61,9.39,9.39,0,0,1,2.44,1.31,7.3,7.3,0,0,1,2,2.26l-2,1.21a6.42,6.42,0,0,0-3.51-2.71,15.08,15.08,0,0,0-4.46-.66,14.47,14.47,0,0,0-2.3.2,7.67,7.67,0,0,0-2.29.74,5.33,5.33,0,0,0-1.8,1.52,4,4,0,0,0-.75,2.49,5.58,5.58,0,0,0,.36,2.06,4.58,4.58,0,0,0,1.27,1.72,10.61,10.61,0,0,0,2.54,1.56,30.06,30.06,0,0,0,4.16,1.5,31.86,31.86,0,0,1,3.86,1.33,12.8,12.8,0,0,1,3.17,1.86,8.26,8.26,0,0,1,2.11,2.57,7.29,7.29,0,0,1,.78,3.44,9.16,9.16,0,0,1-.51,3,6,6,0,0,1-1.77,2.56,9.32,9.32,0,0,1-3.44,1.76A19.46,19.46,0,0,1,327.72,230.54Z" transform="translate(-90 -138.81)"/><path class="b" d="M155.05,199.77V230h-5.61l0-1.58s-.05.1-.61.27a38.82,38.82,0,0,1-3.71,1.22,15.44,15.44,0,0,1-4.09.52,17.1,17.1,0,0,1-6.1-1,12.44,12.44,0,0,1-4.65-3,13.69,13.69,0,0,1-2.95-4.77,18,18,0,0,1-1-6.33,19,19,0,0,1,1-6.22,15.17,15.17,0,0,1,2.92-5.12,13.72,13.72,0,0,1,4.71-3.46,16.22,16.22,0,0,1,11.29-.48,9.4,9.4,0,0,1,3.82,2.43v-2.66Zm-13.58,4.52a10,10,0,0,0-4.22.82,8,8,0,0,0-3,2.31,10.23,10.23,0,0,0-1.78,3.46,14.8,14.8,0,0,0-.59,4.27,10.94,10.94,0,0,0,2.43,7.39q2.43,2.83,7.2,2.83a13.94,13.94,0,0,0,4.18-.64,27.23,27.23,0,0,0,3.71-1.44v-10.8a8.84,8.84,0,0,0-.62-3.4,7.78,7.78,0,0,0-1.72-2.59,7.31,7.31,0,0,0-2.56-1.65A8.47,8.47,0,0,0,141.48,204.29Z" transform="translate(-90 -138.81)"/><path class="c" d="M221.91,182.19a9.81,9.81,0,0,1,6.22-2.23h0a9.84,9.84,0,0,1,6.25,2.23l3.92-3.92a15.4,15.4,0,0,0-20.34,0Z" transform="translate(-90 -138.81)"/><path class="c" d="M228.16,155.08A37.67,37.67,0,0,0,203.74,164l3.94,3.94a32.28,32.28,0,0,1,41,0l3.94-3.94A37.69,37.69,0,0,0,228.16,155.08Z" transform="translate(-90 -138.81)"/><path class="c" d="M210.87,171.15l4,4a21,21,0,0,1,26.66,0l4-4a26.63,26.63,0,0,0-34.57,0Z" transform="translate(-90 -138.81)"/></svg>