<svg xmlns="http://www.w3.org/2000/svg" viewBox="0 0 338.15 159.5"><defs><style>.a{fill:#fff;}.b{fill:#abb533;}</style></defs><title>beanfield_dark</title><path class="a" d="M26.91,119.51h8v22.35h.2c1.66-2.06,4.84-4.84,10.81-4.84,9.09,0,15.39,7.3,15.39,16.71s-5.9,16.71-15.72,16.71c-4.44,0-8.62-1.72-10.94-5.57h-.13v4.77H26.91Zm17,24.66c-5.84,0-9.35,4.58-9.35,9.55s3.52,9.55,9.35,9.55,9.35-4.57,9.35-9.55S49.78,144.18,43.95,144.18Z" transform="translate(-26.91 -35.85)"/><path class="a" d="M71.4,156.51A8.25,8.25,0,0,0,80,164.07a10.45,10.45,0,0,0,8.55-4.32l5.7,4.32a16.56,16.56,0,0,1-13.46,6.36c-9.61,0-17.3-6.7-17.3-16.71S71.13,137,80.74,137c8.89,0,14.92,6.23,14.92,17.3v2.19Zm16.31-6c-.07-4.64-3.12-7.56-8.09-7.56-4.71,0-7.62,3-8.22,7.56Z" transform="translate(-26.91 -35.85)"/><path class="a" d="M119.33,165.26h-.2c-2.26,3.58-6,5.17-10.21,5.17-5.9,0-11.6-3.25-11.6-9.55,0-10.35,12.07-11.07,20-11.07h2V149c0-3.91-3-6-7.29-6a12.54,12.54,0,0,0-8.49,3.32l-4.18-4.17c3.52-3.58,8.49-5.11,13.53-5.11,13.59,0,13.59,9.81,13.59,14.32v18.3h-7.16Zm-.46-9.88h-1.66c-4.37,0-11.94.33-11.94,4.91,0,2.92,3,4.18,5.57,4.18,5.44,0,8-2.85,8-7.3Z" transform="translate(-26.91 -35.85)"/><path class="a" d="M131.4,137.81H139v5.11h.13c1.46-3.18,4.44-5.9,9.75-5.9,8.55,0,11.6,6,11.6,12.53v20.09h-8V153.53c0-3.51-.27-9.35-5.83-9.35-5.24,0-7.3,3.85-7.3,8.09v17.37h-8Z" transform="translate(-26.91 -35.85)"/><path class="a" d="M168.67,144.58H162.1v-6.77h6.56V133.3c0-8.81,2-14.59,11.87-14.59a25.18,25.18,0,0,1,5,.47l-.53,6.76a14.45,14.45,0,0,0-3.32-.46c-4.44,0-5.1,3.05-5.1,6.57v5.76H184v6.77h-7.36v25.06h-8Z" transform="translate(-26.91 -35.85)"/><path class="a" d="M189.55,122.23a4.78,4.78,0,1,1-5,4.77A4.88,4.88,0,0,1,189.55,122.23Zm-3.91,15.58h7.92v31.83h-7.92Z" transform="translate(-26.91 -35.85)"/><path class="a" d="M205.42,156.51a8.25,8.25,0,0,0,8.56,7.56,10.45,10.45,0,0,0,8.55-4.32l5.71,4.32a16.57,16.57,0,0,1-13.46,6.36c-9.62,0-17.31-6.7-17.31-16.71S205.16,137,214.78,137c8.88,0,14.92,6.23,14.92,17.3v2.19Zm16.32-6c-.07-4.64-3.12-7.56-8.09-7.56-4.71,0-7.63,3-8.23,7.56Z" transform="translate(-26.91 -35.85)"/><path class="a" d="M233.61,119.51h8v50.13h-8Z" transform="translate(-26.91 -35.85)"/><path class="a" d="M272.26,164.87h-.13c-2.32,3.84-6.5,5.57-10.94,5.57-9.82,0-15.71-7.29-15.71-16.71S251.77,137,260.86,137c6,0,9.15,2.79,10.81,4.84h.2V119.51h8v50.13h-7.56Zm-9.48-1.59c5.84,0,9.35-4.57,9.35-9.55s-3.51-9.55-9.35-9.55-9.35,4.58-9.35,9.55S256.94,163.28,262.78,163.28Z" transform="translate(-26.91 -35.85)"/><path class="b" d="M92.68,76.32a47,47,0,0,0,30.76,44h10.2A65.12,65.12,0,0,1,96.41,61.54c0-1.27,0-2.52.11-3.77A46.66,46.66,0,0,0,92.68,76.32Z" transform="translate(-26.91 -35.85)"/><path class="b" d="M140.84,119.68a8.45,8.45,0,0,0,5.17-7.79V44.3a8.45,8.45,0,0,0-8.45-8.45H115.94a47.26,47.26,0,0,0-15.05,14,61.58,61.58,0,0,0,39.95,69.82Z" transform="translate(-26.91 -35.85)"/><path class="b" d="M109.79,35.85h-4.4A60.74,60.74,0,0,0,103,41.9,50.83,50.83,0,0,1,109.79,35.85Z" transform="translate(-26.91 -35.85)"/><path class="b" d="M83.24,95.46a64.89,64.89,0,0,1-1.1-59.62H70a8.45,8.45,0,0,0-8.45,8.45v67.59A8.45,8.45,0,0,0,70,120.34H96.82A61.55,61.55,0,0,1,83.24,95.46Z" transform="translate(-26.91 -35.85)"/><path class="b" d="M107,120.34A65.58,65.58,0,0,1,92,107.84a58.62,58.62,0,0,0,9.48,12.49Z" transform="translate(-26.91 -35.85)"/><path class="b" d="M114.11,120.34h1.19A50.24,50.24,0,0,1,97.71,48.56a63.89,63.89,0,0,1,2.61-9.24,58.09,58.09,0,0,0-14,54.86A62.11,62.11,0,0,0,114.11,120.34Z" transform="translate(-26.91 -35.85)"/><path class="b" d="M81.11,81.3c0-.69-.05-1.37-.05-2.06A61.43,61.43,0,0,1,99,35.85H85.92a61.44,61.44,0,0,0-4.8,45.46Z" transform="translate(-26.91 -35.85)"/><path class="a" d="M168.66,181.55h2.72l4.27,10.18h.08L180,181.55h2.72V195h-1.82V183.94h0L176.28,195h-1.22l-4.54-11.06h0V195h-1.82Z" transform="translate(-26.91 -35.85)"/><path class="a" d="M189.26,181.55h8.68v1.71h-6.86v4h6.38V189h-6.38v4.31h7.2V195h-9Z" transform="translate(-26.91 -35.85)"/><path class="a" d="M206.93,183.26h-4.33v-1.71h10.49v1.71h-4.33V195h-1.82Z" transform="translate(-26.91 -35.85)"/><path class="a" d="M218.27,181.55H223c3.44,0,4.31,2.07,4.31,3.76a3.61,3.61,0,0,1-3.31,3.55l3.82,6.14h-2.28l-3.42-5.93h-2V195h-1.82Zm1.82,5.93h2.39c1.44,0,2.89-.34,2.89-2.17s-1.44-2.17-2.89-2.17h-2.39Z" transform="translate(-26.91 -35.85)"/><path class="a" d="M232.29,188.27a7,7,0,1,1,7,7.07A6.84,6.84,0,0,1,232.29,188.27Zm12.08,0a5.08,5.08,0,1,0-5.07,5.36A5.06,5.06,0,0,0,244.37,188.27Z" transform="translate(-26.91 -35.85)"/><path class="a" d="M261.55,184.46a4.13,4.13,0,0,0-3.25-1.54c-3,0-5,2.41-5,5.47a5,5,0,0,0,5,5.24,4.14,4.14,0,0,0,3.51-1.8l1.54,1.16a6.26,6.26,0,0,1-5.09,2.36,6.93,6.93,0,0,1-6.91-7,6.81,6.81,0,0,1,7-7.18,5.9,5.9,0,0,1,4.71,2.09Z" transform="translate(-26.91 -35.85)"/><path class="a" d="M268,188.27a7,7,0,1,1,7,7.07A6.84,6.84,0,0,1,268,188.27Zm12.08,0a5.08,5.08,0,1,0-5.07,5.36A5.06,5.06,0,0,0,280.06,188.27Z" transform="translate(-26.91 -35.85)"/><path class="a" d="M287.87,181.55h2.39l7.41,11.06h0V181.55h1.82V195h-2.32l-7.48-11.06h0V195h-1.82Z" transform="translate(-26.91 -35.85)"/><path class="a" d="M306.24,181.55h2.39L316,192.61h0V181.55h1.82V195h-2.32l-7.48-11.06h0V195h-1.82Z" transform="translate(-26.91 -35.85)"/><path class="a" d="M324.61,181.55h8.68v1.71h-6.86v4h6.38V189h-6.38v4.31h7.2V195h-9Z" transform="translate(-26.91 -35.85)"/><path class="a" d="M348.83,184.46a4.13,4.13,0,0,0-3.25-1.54c-3,0-5,2.41-5,5.47a5,5,0,0,0,5,5.24,4.14,4.14,0,0,0,3.51-1.8l1.54,1.16a6.26,6.26,0,0,1-5.09,2.36,6.92,6.92,0,0,1-6.91-7,6.81,6.81,0,0,1,7-7.18,5.9,5.9,0,0,1,4.71,2.09Z" transform="translate(-26.91 -35.85)"/><path class="a" d="M358.91,183.26h-4.33v-1.71h10.49v1.71h-4.33V195h-1.82Z" transform="translate(-26.91 -35.85)"/></svg>