<?xml version="1.0" encoding="UTF-8"?>
<!DOCTYPE svg PUBLIC "-//W3C//DTD SVG 1.1//EN" "http://www.w3.org/Graphics/SVG/1.1/DTD/svg11.dtd">
<svg version="1.1" xmlns="http://www.w3.org/2000/svg" xmlns:xlink="http://www.w3.org/1999/xlink" x="0px" y="0px" width="325" height="140" viewBox="0, 0, 325, 140">
  <g id="Background">
    <path d="M-0,70.503 L325,70.503 L325,140 L-0,140 z" fill="#000000"/>
    <path d="M0,-0 L325,-0 L325,70.503 L0,70.503 z" fill="#4D759E"/>
  </g>
  <g id="Layer 1">
    <path d="M12.5,11.861 L23.235,11.861 Q27.854,11.861 31.022,12.829 Q34.189,13.796 36.155,15.481 Q38.122,17.167 38.98,19.414 Q39.838,21.66 39.838,24.22 Q39.838,25.967 39.479,27.528 Q39.12,29.088 38.449,30.383 Q37.778,31.678 36.811,32.677 Q35.843,33.675 34.626,34.268 Q35.906,34.924 37.107,35.829 Q38.309,36.734 39.245,38.123 Q40.181,39.511 40.743,41.509 Q41.305,43.506 41.305,46.346 Q41.305,49.154 40.447,51.245 Q39.588,53.336 38.075,54.834 Q36.561,56.332 34.517,57.284 Q32.473,58.236 30.132,58.798 Q27.792,59.359 25.248,59.578 Q22.705,59.796 20.177,59.796 L12.5,59.796 z M23.579,52.306 Q26.138,52.306 27.823,51.573 Q29.508,50.84 30.507,49.747 Q31.505,48.655 31.911,47.407 Q32.317,46.159 32.317,45.097 Q32.317,42.788 31.63,41.415 Q30.944,40.042 29.789,39.324 Q28.634,38.606 27.105,38.388 Q25.576,38.169 23.922,38.169 L21.862,38.169 L21.862,52.306 z M23.797,31.366 Q25.42,31.366 26.778,31.163 Q28.135,30.96 29.102,30.305 Q30.07,29.65 30.6,28.417 Q31.131,27.184 31.131,25.125 Q31.131,23.346 30.507,22.207 Q29.883,21.068 28.822,20.443 Q27.761,19.819 26.356,19.585 Q24.952,19.351 23.391,19.351 L21.55,19.351 L21.55,31.366 z M47.109,24.594 L56.097,23.845 L56.097,29.618 Q56.877,28.589 57.938,27.481 Q59,26.373 60.357,25.468 Q61.715,24.563 63.369,23.97 Q65.023,23.377 66.989,23.377 Q67.145,23.377 67.332,23.392 Q67.519,23.408 67.675,23.439 Q67.863,23.471 68.081,23.502 L68.081,34.206 Q66.614,33.769 65.116,33.301 Q63.618,32.833 62.089,32.833 Q60.591,32.833 59.124,33.488 Q57.658,34.144 56.097,35.829 L56.097,59.422 L47.109,60.171 z M70.64,49.591 Q70.64,47.032 71.373,45.113 Q72.107,43.194 73.339,41.805 Q74.572,40.416 76.195,39.48 Q77.818,38.544 79.581,37.967 Q81.344,37.389 83.123,37.093 Q84.902,36.796 86.462,36.703 Q86.462,35.454 86.431,34.253 Q86.4,33.051 86.15,32.099 Q85.901,31.148 85.37,30.555 Q84.84,29.962 83.872,29.962 Q83.061,29.962 82.483,30.321 Q81.906,30.68 81.516,31.257 Q81.126,31.834 80.923,32.568 Q80.72,33.301 80.626,34.019 L71.888,32.49 Q72.232,29.806 73.417,28.042 Q74.603,26.279 76.273,25.249 Q77.943,24.22 79.924,23.798 Q81.906,23.377 83.872,23.377 Q86.93,23.377 89.115,24.235 Q91.3,25.093 92.704,26.591 Q94.108,28.089 94.779,30.102 Q95.45,32.115 95.45,34.424 L95.45,53.024 Q95.45,54.085 95.591,55.209 Q95.731,56.332 95.918,57.269 Q96.137,58.361 96.418,59.422 L87.679,60.171 L86.681,55.771 Q86.15,56.738 85.292,57.612 Q84.434,58.486 83.373,59.157 Q82.312,59.828 81.126,60.233 Q79.94,60.639 78.785,60.639 Q76.944,60.639 75.446,59.812 Q73.948,58.985 72.871,57.503 Q71.795,56.02 71.217,54.007 Q70.64,51.994 70.64,49.591 z M79.441,49.467 Q79.441,51.589 80.299,52.899 Q81.157,54.21 82.998,54.21 Q83.622,54.21 84.231,53.882 Q84.84,53.555 85.339,53.149 Q85.901,52.681 86.462,52.088 L86.462,42.07 Q84.964,42.07 83.685,42.445 Q82.405,42.819 81.453,43.693 Q80.502,44.567 79.971,45.987 Q79.441,47.407 79.441,49.467 z M102.971,24.594 L111.959,23.845 L111.959,59.422 L102.971,60.171 z M111.99,9.864 L111.99,18.852 L103.002,18.883 L103.002,9.926 z M121.977,23.845 L122.882,16.043 L130.684,14.92 L130.684,23.845 L138.049,23.845 L137.674,30.586 L130.715,30.586 L130.715,50.403 Q130.715,51.464 131.152,52.135 Q131.589,52.806 132.26,53.18 Q132.931,53.555 133.742,53.68 Q134.553,53.804 135.302,53.804 Q136.27,53.804 136.894,53.711 Q137.237,53.648 137.549,53.586 L137.549,59.765 Q136.863,60.015 135.864,60.202 Q135.022,60.358 133.742,60.499 Q132.463,60.639 130.684,60.639 Q129.217,60.639 127.641,60.218 Q126.065,59.796 124.754,58.813 Q123.443,57.83 122.585,56.207 Q121.727,54.585 121.727,52.182 L121.727,30.586 L116.703,30.586 L117.077,23.845 z M160.518,35.673 Q160.518,33.207 159.629,32.115 Q158.739,31.023 157.398,31.023 Q156.149,31.023 154.776,31.694 Q153.403,32.365 151.53,33.488 L151.53,59.422 L142.543,60.171 L142.543,12.985 L151.53,11.861 L151.53,28.433 Q154.339,25.811 156.929,24.594 Q159.52,23.377 161.829,23.377 Q163.514,23.377 164.919,24.017 Q166.323,24.656 167.337,25.827 Q168.351,26.997 168.929,28.682 Q169.506,30.367 169.506,32.458 L169.506,59.422 L160.518,60.171 z M194.035,36.484 L188.98,59.796 L181.646,59.796 L174.25,24.532 L183.394,23.845 L186.483,44.192 L191.008,24.594 L198.498,23.845 L202.368,43.943 L206.269,24.594 L213.571,24.22 L205.333,59.796 L198.124,59.796 z M215.912,49.591 Q215.912,47.032 216.645,45.113 Q217.379,43.194 218.611,41.805 Q219.844,40.416 221.467,39.48 Q223.09,38.544 224.853,37.967 Q226.616,37.389 228.395,37.093 Q230.174,36.796 231.734,36.703 Q231.734,35.454 231.703,34.253 Q231.672,33.051 231.422,32.099 Q231.173,31.148 230.642,30.555 Q230.112,29.962 229.144,29.962 Q228.333,29.962 227.755,30.321 Q227.178,30.68 226.788,31.257 Q226.398,31.834 226.195,32.568 Q225.992,33.301 225.898,34.019 L217.16,32.49 Q217.504,29.806 218.689,28.042 Q219.875,26.279 221.545,25.249 Q223.215,24.22 225.196,23.798 Q227.178,23.377 229.144,23.377 Q232.202,23.377 234.387,24.235 Q236.572,25.093 237.976,26.591 Q239.38,28.089 240.051,30.102 Q240.722,32.115 240.722,34.424 L240.722,53.024 Q240.722,54.085 240.863,55.209 Q241.003,56.332 241.19,57.269 Q241.409,58.361 241.69,59.422 L232.951,60.171 L231.953,55.771 Q231.422,56.738 230.564,57.612 Q229.706,58.486 228.645,59.157 Q227.584,59.828 226.398,60.233 Q225.212,60.639 224.057,60.639 Q222.216,60.639 220.718,59.812 Q219.22,58.985 218.143,57.503 Q217.067,56.02 216.489,54.007 Q215.912,51.994 215.912,49.591 z M224.713,49.467 Q224.713,51.589 225.571,52.899 Q226.429,54.21 228.27,54.21 Q228.894,54.21 229.503,53.882 Q230.112,53.555 230.611,53.149 Q231.173,52.681 231.734,52.088 L231.734,42.07 Q230.236,42.07 228.957,42.445 Q227.677,42.819 226.725,43.693 Q225.774,44.567 225.243,45.987 Q224.713,47.407 224.713,49.467 z M248.243,24.594 L257.231,23.845 L257.231,59.422 L248.243,60.171 z M257.262,9.864 L257.262,18.852 L248.274,18.883 L248.274,9.926 z M267.249,23.845 L268.154,16.043 L275.956,14.92 L275.956,23.845 L283.321,23.845 L282.946,30.586 L275.987,30.586 L275.987,50.403 Q275.987,51.464 276.424,52.135 Q276.861,52.806 277.532,53.18 Q278.203,53.555 279.014,53.68 Q279.825,53.804 280.574,53.804 Q281.542,53.804 282.166,53.711 Q282.509,53.648 282.821,53.586 L282.821,59.765 Q282.135,60.015 281.136,60.202 Q280.294,60.358 279.014,60.499 Q277.735,60.639 275.956,60.639 Q274.489,60.639 272.913,60.218 Q271.337,59.796 270.026,58.813 Q268.716,57.83 267.857,56.207 Q266.999,54.585 266.999,52.182 L266.999,30.586 L261.975,30.586 L262.349,23.845 z M295.086,43.069 Q295.086,44.754 295.305,46.689 Q295.523,48.624 296.038,50.247 Q296.553,51.87 297.395,52.946 Q298.238,54.023 299.455,54.023 Q300.516,54.023 301.39,53.18 Q302.264,52.338 302.919,51.277 Q303.575,50.216 303.965,49.279 Q304.355,48.343 304.448,48.156 L311.252,50.746 Q310.628,52.931 309.598,54.741 Q308.568,56.551 307.101,57.861 Q305.634,59.172 303.699,59.906 Q301.764,60.639 299.299,60.639 Q296.022,60.639 293.541,59.266 Q291.06,57.893 289.422,55.427 Q287.783,52.962 286.956,49.529 Q286.129,46.096 286.129,42.008 Q286.129,37.888 286.972,34.456 Q287.815,31.023 289.5,28.557 Q291.185,26.092 293.713,24.734 Q296.241,23.377 299.611,23.377 Q302.826,23.377 305.229,24.734 Q307.632,26.092 309.254,28.557 Q310.877,31.023 311.689,34.456 Q312.5,37.888 312.5,42.008 L312.375,42.445 Q312.313,42.632 312.282,42.804 Q312.25,42.975 312.25,43.069 z M303.668,37.888 Q303.668,36.11 303.434,34.58 Q303.2,33.051 302.701,31.943 Q302.201,30.836 301.406,30.196 Q300.61,29.556 299.455,29.556 Q298.644,29.556 297.848,30.196 Q297.052,30.836 296.444,31.943 Q295.835,33.051 295.461,34.58 Q295.086,36.11 295.086,37.888 z" fill="#000000"/>
    <g>
      <path d="M124.707,107.81 Q124.707,111.15 123.88,114.286 Q123.053,117.422 121.368,119.825 Q119.683,122.228 117.124,123.68 Q114.565,125.131 111.101,125.131 Q108.105,125.131 105.811,124.054 Q103.517,122.977 101.863,121.089 Q100.209,119.201 99.101,116.689 Q97.994,114.177 97.338,111.29 Q96.683,108.403 96.402,105.298 Q96.121,102.193 96.121,99.166 Q96.121,96.482 96.464,93.658 Q96.808,90.833 97.557,88.165 Q98.306,85.497 99.507,83.141 Q100.709,80.785 102.394,79.021 Q104.079,77.258 106.295,76.228 Q108.511,75.198 111.319,75.198 Q114.471,75.198 116.952,76.712 Q119.433,78.226 121.134,80.675 Q122.835,83.125 123.74,86.215 Q124.645,89.304 124.645,92.487 L115.595,92.956 Q115.595,92.706 115.564,91.848 Q115.532,90.99 115.376,89.85 Q115.22,88.711 114.924,87.447 Q114.627,86.184 114.097,85.122 Q113.566,84.061 112.755,83.375 Q111.943,82.688 110.789,82.688 Q109.665,82.688 108.838,83.422 Q108.011,84.155 107.418,85.388 Q106.825,86.62 106.451,88.274 Q106.076,89.928 105.858,91.754 Q105.639,93.58 105.561,95.483 Q105.483,97.387 105.483,99.166 Q105.483,101.413 105.561,103.629 Q105.639,105.844 105.889,107.842 Q106.139,109.839 106.56,111.54 Q106.981,113.241 107.684,114.473 Q108.386,115.706 109.369,116.408 Q110.352,117.11 111.694,117.11 Q113.161,117.11 114.081,116.127 Q115.002,115.144 115.564,113.646 Q116.125,112.148 116.375,110.385 Q116.625,108.622 116.749,107.061 z" fill="#AA383A"/>
      <path d="M143.686,124.975 Q140.315,124.975 137.788,123.586 Q135.26,122.197 133.575,119.716 Q131.889,117.235 131.047,113.771 Q130.204,110.307 130.204,106.125 Q130.204,102.099 131.047,98.713 Q131.889,95.327 133.575,92.878 Q135.26,90.428 137.788,89.07 Q140.315,87.713 143.686,87.713 Q146.963,87.713 149.49,89.07 Q152.018,90.428 153.719,92.878 Q155.42,95.327 156.294,98.713 Q157.168,102.099 157.168,106.125 Q157.168,110.307 156.294,113.771 Q155.42,117.235 153.719,119.716 Q152.018,122.197 149.49,123.586 Q146.963,124.975 143.686,124.975 z M143.623,118.296 Q144.716,118.296 145.496,117.703 Q146.276,117.11 146.775,116.127 Q147.275,115.144 147.556,113.88 Q147.836,112.616 147.961,111.259 Q148.086,109.901 148.117,108.575 Q148.149,107.249 148.149,106.125 Q148.149,105.033 148.117,103.722 Q148.086,102.412 147.961,101.07 Q147.836,99.728 147.556,98.464 Q147.275,97.2 146.775,96.217 Q146.276,95.234 145.512,94.641 Q144.747,94.048 143.655,94.048 Q142.531,94.048 141.767,94.641 Q141.002,95.234 140.503,96.217 Q140.003,97.2 139.738,98.464 Q139.473,99.728 139.348,101.07 Q139.223,102.412 139.208,103.722 Q139.192,105.033 139.192,106.125 Q139.192,107.249 139.208,108.575 Q139.223,109.901 139.348,111.259 Q139.473,112.616 139.738,113.88 Q140.003,115.144 140.487,116.127 Q140.971,117.11 141.735,117.703 Q142.5,118.296 143.623,118.296 z" fill="#91E494"/>
      <path d="M162.125,88.93 L171.113,88.181 L171.113,93.954 Q171.893,92.924 172.955,91.817 Q174.016,90.709 175.373,89.804 Q176.731,88.899 178.385,88.306 Q180.039,87.713 182.005,87.713 Q182.161,87.713 182.348,87.728 Q182.535,87.744 182.691,87.775 Q182.879,87.806 183.097,87.838 L183.097,98.542 Q181.63,98.105 180.132,97.637 Q178.634,97.169 177.105,97.169 Q175.607,97.169 174.14,97.824 Q172.674,98.479 171.113,100.165 L171.113,123.758 L162.125,124.507 z" fill="#4E77A1"/>
      <path d="M188.059,88.93 L197.047,88.181 L197.047,91.645 Q197.796,90.896 198.654,90.194 Q199.512,89.492 200.464,88.945 Q201.416,88.399 202.477,88.056 Q203.538,87.713 204.662,87.713 Q207.127,87.713 208.797,88.571 Q210.466,89.429 211.527,90.865 Q212.588,92.3 213.135,94.188 Q213.681,96.076 213.899,98.12 Q214.118,100.165 214.133,102.24 Q214.149,104.315 214.149,106.156 Q214.149,107.842 214.086,109.901 Q214.024,111.961 213.727,114.052 Q213.431,116.143 212.807,118.109 Q212.183,120.075 211.044,121.604 Q209.905,123.133 208.188,124.054 Q206.472,124.975 203.975,124.975 Q202.227,124.975 200.948,124.366 Q199.668,123.758 198.795,123.009 Q197.765,122.166 197.047,121.043 L197.047,133.557 L188.059,135.304 z M200.885,94.173 Q200.012,94.173 199.309,94.563 Q198.607,94.953 198.108,95.421 Q197.515,95.983 197.047,96.669 L197.047,115.238 Q197.421,116.049 197.983,116.673 Q198.451,117.204 199.185,117.657 Q199.918,118.109 200.948,118.109 Q201.884,118.109 202.649,117.641 Q203.413,117.173 203.975,115.862 Q204.537,114.551 204.849,112.211 Q205.161,109.87 205.161,106.156 Q205.161,102.786 204.88,100.492 Q204.599,98.198 204.069,96.794 Q203.538,95.39 202.727,94.781 Q201.915,94.173 200.885,94.173 z" fill="#F4F537"/>
      <path d="M228.879,115.144 L228.879,123.758 L219.891,124.507 L219.891,115.144 z" fill="#FFFFFF"/>
    </g>
  </g>
  <defs/>
</svg>
