<?xml version="1.0" encoding="UTF-8" standalone="no"?>
<!-- Created with Inkscape (http://www.inkscape.org/) -->

<svg
   xmlns:dc="http://purl.org/dc/elements/1.1/"
   xmlns:cc="http://creativecommons.org/ns#"
   xmlns:rdf="http://www.w3.org/1999/02/22-rdf-syntax-ns#"
   xmlns:svg="http://www.w3.org/2000/svg"
   xmlns="http://www.w3.org/2000/svg"
   xmlns:sodipodi="http://sodipodi.sourceforge.net/DTD/sodipodi-0.dtd"
   xmlns:inkscape="http://www.inkscape.org/namespaces/inkscape"
   id="svg3355"
   version="1.1"
   inkscape:version="0.91 r13725"
   xml:space="preserve"
   width="550"
   height="192.5"
   viewBox="0 0 550 192.5"
   sodipodi:docname="CapitalOne_Logo.svg"><metadata
     id="metadata3361"><rdf:RDF><cc:Work
         rdf:about=""><dc:format>image/svg+xml</dc:format><dc:type
           rdf:resource="http://purl.org/dc/dcmitype/StillImage" /><dc:title></dc:title></cc:Work></rdf:RDF></metadata><defs
     id="defs3359"><clipPath
       clipPathUnits="userSpaceOnUse"
       id="clipPath3371"><path
         d="M 0,0 440,0 440,154 0,154 0,0 Z"
         id="path3373"
         inkscape:connector-curvature="0" /></clipPath><clipPath
       clipPathUnits="userSpaceOnUse"
       id="clipPath3383"><path
         d="m 408.499,138.805 c -28.616,31.563 -212.745,3.172 -291.048,-13.934 l -1.824,-0.394 c -0.376,-0.067 -0.626,-0.428 -0.563,-0.801 0.066,-0.379 0.423,-0.629 0.803,-0.565 l 1.81,0.354 c 64.873,11.55 199.781,27.565 228.811,-1.221 8.858,-8.78 6.744,-20.095 -3.522,-33.442 5.537,-3.558 9.479,-9.152 11.255,-16.152 40.09,26.67 67.028,52.092 54.278,66.155 z M 289.345,42.347 c -0.018,-0.015 -0.037,-0.029 -0.057,-0.041 C 271.135,29.455 249.63,15.955 226.497,1.789 l -0.914,-0.533 c -0.308,-0.221 -0.388,-0.647 -0.165,-0.963 0.216,-0.313 0.646,-0.387 0.958,-0.166 l 0.771,0.406 c 19.621,10.24 42.156,22.396 64.832,34.867 0.124,0.066 0.242,0.135 0.364,0.201 -1.247,2.043 -2.27,4.285 -2.998,6.746"
         id="path3385"
         inkscape:connector-curvature="0" /></clipPath><clipPath
       clipPathUnits="userSpaceOnUse"
       id="clipPath3389"><path
         d="m 0.06,153.027 439.867,0 L 439.927,0 0.06,0 l 0,153.027 z"
         id="path3391"
         inkscape:connector-curvature="0" /></clipPath><clipPath
       clipPathUnits="userSpaceOnUse"
       id="clipPath3395"><path
         d="M 0,0 440,0 440,154 0,154 0,0 Z"
         id="path3397"
         inkscape:connector-curvature="0" /></clipPath><linearGradient
       x1="0"
       y1="0"
       x2="1"
       y2="0"
       gradientUnits="userSpaceOnUse"
       gradientTransform="matrix(235.423,125.177,125.177,-235.423,152.812,52.608)"
       spreadMethod="pad"
       id="linearGradient3401"><stop
         style="stop-opacity:1;stop-color:#b4131d"
         offset="0"
         id="stop3403" /><stop
         style="stop-opacity:1;stop-color:#f8e2db"
         offset="1"
         id="stop3405" /></linearGradient><clipPath
       clipPathUnits="userSpaceOnUse"
       id="clipPath3413"><path
         d="M 0,0 440,0 440,154 0,154 0,0 Z"
         id="path3415"
         inkscape:connector-curvature="0" /></clipPath><clipPath
       clipPathUnits="userSpaceOnUse"
       id="clipPath3427"><path
         d="m 0.06,153.027 439.867,0 L 439.927,0 0.06,0 l 0,153.027 z"
         id="path3429"
         inkscape:connector-curvature="0" /></clipPath><clipPath
       clipPathUnits="userSpaceOnUse"
       id="clipPath3433"><path
         d="M 0,0 440,0 440,154 0,154 0,0 Z"
         id="path3435"
         inkscape:connector-curvature="0" /></clipPath><clipPath
       clipPathUnits="userSpaceOnUse"
       id="clipPath3445"><path
         d="M 0,0 440,0 440,154 0,154 0,0 Z"
         id="path3447"
         inkscape:connector-curvature="0" /></clipPath></defs><sodipodi:namedview
     pagecolor="#ffffff"
     bordercolor="#666666"
     borderopacity="1"
     objecttolerance="10"
     gridtolerance="10"
     guidetolerance="10"
     inkscape:pageopacity="0"
     inkscape:pageshadow="2"
     inkscape:window-width="1916"
     inkscape:window-height="1039"
     id="namedview3357"
     showgrid="false"
     inkscape:zoom="3.1763636"
     inkscape:cx="275"
     inkscape:cy="96.25"
     inkscape:window-x="0"
     inkscape:window-y="18"
     inkscape:window-maximized="0"
     inkscape:current-layer="g3363" /><g
     id="g3363"
     inkscape:groupmode="layer"
     inkscape:label="CapitalOne_Logo"
     transform="matrix(1.25,0,0,-1.25,0,192.5)"><g
       id="g3365" /><g
       id="g3367"><g
         id="g3369"
         clip-path="url(#clipPath3371)"><path
           d="m 292.343,35.601 c -0.122,-0.066 -0.24,-0.135 -0.364,-0.201 -19.633,-10.795 -39.147,-21.348 -56.772,-30.639 22.708,10.254 41.188,19.274 58.687,28.586 -0.556,0.717 -1.067,1.473 -1.551,2.254"
           style="fill:#b4131d;fill-opacity:1;fill-rule:nonzero;stroke:none"
           id="path3375"
           inkscape:connector-curvature="0" /><path
           d="m 410.994,134.735 c 5.288,-14.585 -20.299,-37.82 -56.773,-62.085 0.318,-1.264 0.585,-2.557 0.758,-3.911 0.095,0.057 0.186,0.112 0.278,0.168 45.039,27.649 69.47,45.004 55.737,65.828"
           style="fill:#b4131d;fill-opacity:1;fill-rule:nonzero;stroke:none"
           id="path3377"
           inkscape:connector-curvature="0" /></g></g><g
       id="g3379"><g
         id="g3381"
         clip-path="url(#clipPath3383)"><g
           id="g3387"
           clip-path="url(#clipPath3389)"><g
             id="g3393"
             clip-path="url(#clipPath3395)"><g
               id="g3399"><path
                 d="M 0,0 440,0 440,154 0,154 0,0 Z"
                 style="fill:url(#linearGradient3401);stroke:none"
                 id="path3407"
                 inkscape:connector-curvature="0" /></g></g></g></g></g><g
       id="g3409"><g
         id="g3411"
         clip-path="url(#clipPath3413)"><path
           d="m 291.542,51.23 c -0.658,18.951 14.191,38.332 35.759,38.332 14.427,0 23.868,-9.613 24.394,-24.333 0.691,-19.989 -13.179,-38.339 -35.758,-38.339 -14.429,0 -23.87,9.594 -24.395,24.34 z m 9.383,-0.596 c 0.371,-11.107 7.393,-20.199 16.56,-20.199 17.76,0 25.32,21.805 24.793,36.378 -0.375,11.131 -7.585,20.207 -16.736,20.207 -15.277,0 -25.138,-21.715 -24.617,-36.386"
           style="fill:#0d4d84;fill-opacity:1;fill-rule:nonzero;stroke:none"
           id="path3417"
           inkscape:connector-curvature="0" /><path
           d="m 105.978,67.897 c -0.078,-1.743 -0.376,-3.268 -0.843,-5.93 L 101.96,44.162 c -0.272,-1.578 0.314,-2.823 1.783,-3.67 l -0.097,-0.695 -18.164,0.025 -0.164,4.527 c -2.644,-1.595 -5.836,-2.941 -8.725,-3.73 -2.877,-0.738 -5.207,-1.067 -8.703,-1.067 -5.868,0 -9.229,0.61 -11.545,2.643 -2.359,2.1 -3.499,3.488 -3.387,6.375 0.091,1.66 0.95,3.791 2.196,5.283 1.258,1.516 2.97,2.504 4.834,3.377 1.874,0.894 4.078,1.54 7.288,2.045 3.214,0.524 7.686,1.043 13.679,1.543 3.148,0.262 5.066,0.993 5.969,1.35 1.251,0.486 1.741,1.024 1.926,2.043 0.335,1.832 -0.25,2.873 -2.678,3.357 -6.546,1.287 -18.808,-0.832 -25.13,-2.414 l 3.436,9.267 c 8.336,1.217 16.152,1.996 24.374,1.996 13.072,0 17.257,-3.73 17.126,-8.52 z M 87.228,56.236 c -0.772,-0.289 -1.766,-0.578 -3,-0.836 -1.23,-0.277 -3.48,-0.678 -6.747,-1.193 -2.25,-0.354 -3.809,-0.825 -4.7,-1.461 -0.851,-0.633 -1.351,-1.383 -1.495,-2.299 -0.177,-0.979 0.144,-1.76 0.991,-2.371 0.861,-0.602 2.306,-0.912 4.347,-0.912 1.528,0 3.028,0.248 4.48,0.711 1.468,0.48 2.704,1.134 3.66,1.943 0.698,0.604 1.199,1.373 1.572,2.295 0.217,0.605 0.527,1.973 0.892,4.123"
           style="fill:#0d4d84;fill-opacity:1;fill-rule:nonzero;stroke:none"
           id="path3419"
           inkscape:connector-curvature="0" /><path
           d="m 165.893,83.609 c 0.52,2.924 5.136,5.298 10.292,5.298 5.165,0 8.935,-2.374 8.436,-5.298 -0.544,-2.925 -5.151,-5.295 -10.321,-5.295 -5.182,0 -8.931,2.37 -8.407,5.295 z m -7.268,-43.812 6.304,35.573 17.39,0 -6.302,-35.573 -17.392,0"
           style="fill:#0d4d84;fill-opacity:1;fill-rule:nonzero;stroke:none"
           id="path3421"
           inkscape:connector-curvature="0" /></g></g><g
       id="g3423"><g
         id="g3425"
         clip-path="url(#clipPath3427)"><g
           id="g3431"
           clip-path="url(#clipPath3433)"><path
             d="m 262.825,67.828 c -0.072,-1.746 -0.381,-3.285 -0.859,-5.924 l -3.15,-17.826 c -0.274,-1.571 0.309,-2.807 1.771,-3.682 l -0.108,-0.617 -18.157,-0.035 -0.139,4.537 c -2.655,-1.608 -5.865,-2.945 -8.732,-3.725 -2.891,-0.759 -5.22,-1.07 -8.736,-1.07 -5.861,0 -9.197,0.588 -11.522,2.635 -2.368,2.105 -3.511,3.486 -3.383,6.365 0.064,1.672 0.936,3.816 2.188,5.285 1.258,1.533 2.972,2.504 4.847,3.383 1.872,0.881 4.088,1.534 7.258,2.065 3.229,0.5 7.717,1.043 13.704,1.543 3.119,0.262 5.039,0.971 5.934,1.314 1.268,0.491 1.768,1.039 1.954,2.063 0.323,1.795 -0.251,2.865 -2.665,3.353 -6.576,1.298 -18.807,-0.834 -25.128,-2.404 l 3.418,9.263 c 8.369,1.222 16.145,2.004 24.379,2.004 13.065,0 17.233,-3.747 17.126,-8.527 z M 244.081,56.15 c -0.779,-0.266 -1.79,-0.553 -3.018,-0.836 -1.218,-0.291 -3.47,-0.65 -6.756,-1.187 -2.236,-0.356 -3.824,-0.827 -4.682,-1.465 -0.834,-0.612 -1.331,-1.371 -1.508,-2.287 -0.182,-0.985 0.177,-1.778 0.993,-2.368 0.878,-0.603 2.333,-0.898 4.376,-0.898 1.515,0 2.999,0.227 4.46,0.686 1.483,0.496 2.715,1.128 3.677,1.945 0.668,0.603 1.184,1.389 1.547,2.31 0.224,0.596 0.526,1.967 0.911,4.1"
             style="fill:#0d4d84;fill-opacity:1;fill-rule:nonzero;stroke:none"
             id="path3437"
             inkscape:connector-curvature="0" /><path
             d="m 50.581,52.584 c -5.66,-1.123 -8.845,-1.555 -14.442,-1.555 -8.309,0 -14.908,4.125 -14.551,11.686 0.254,5.035 6.222,15.664 21.381,15.664 4.77,0 8.5,-0.845 13.518,-3.704 l 2.201,12.356 C 51.868,89.61 47.35,89.997 41.494,89.933 21.631,89.72 2.539,80.684 0.177,62.318 -2.231,43.654 20.565,38.961 30.686,39.004 c 5.844,0.017 11.918,0.255 17.589,0.843 l 2.306,12.737"
             style="fill:#0d4d84;fill-opacity:1;fill-rule:nonzero;stroke:none"
             id="path3439"
             inkscape:connector-curvature="0" /></g></g></g><g
       id="g3441"><g
         id="g3443"
         clip-path="url(#clipPath3445)"><path
           d="m 191.903,75.577 1.25,7.243 18.19,3.959 -1.937,-11.202 8.908,0 -1.692,-7.166 -8.641,0.02 -5.25,-28.609 c 0,0 -17.512,0.115 -17.574,0 l 5.228,28.54 -6.612,0 1.342,7.215 6.788,0"
           style="fill:#0d4d84;fill-opacity:1;fill-rule:nonzero;stroke:none"
           id="path3449"
           inkscape:connector-curvature="0" /><path
           d="m 280.479,39.822 -17.712,-0.025 8.909,49.634 17.255,-0.487 -8.452,-49.122"
           style="fill:#0d4d84;fill-opacity:1;fill-rule:nonzero;stroke:none"
           id="path3451"
           inkscape:connector-curvature="0" /><path
           d="m 103.959,27.513 8.463,47.681 15.273,0 -1.183,-6.086 c 1.326,1.817 3.443,3.309 6.364,4.526 2.947,1.205 6.264,2.099 9.865,2.099 3.985,0 6.444,-0.214 9.427,-1.759 2.967,-1.557 5.033,-3.811 6.162,-6.751 1.144,-2.893 1.382,-6.147 0.762,-9.686 -1.032,-5.875 -3.9,-10.512 -8.595,-13.916 -4.663,-3.403 -8.854,-4.297 -14.847,-4.321 -2.122,0 -3.895,0.221 -5.369,0.581 -1.441,0.376 -2.586,0.833 -3.463,1.39 -0.835,0.563 -1.722,1.34 -2.864,2.586 l -2.844,-16.344 -17.151,0 z m 31.665,39.52 c -2.279,0 -4.341,-0.687 -6.176,-2.07 -1.815,-1.387 -2.971,-3.402 -3.44,-6.092 -0.547,-3.106 -0.226,-5.332 1.003,-6.713 1.244,-1.365 3.03,-2.053 5.377,-2.053 1.58,0 3.221,0.283 4.426,0.879 1.488,0.787 2.515,1.619 3.404,2.926 0.96,1.381 1.589,2.914 1.912,4.696 0.498,2.808 0.077,4.914 -1.226,6.3 -1.267,1.426 -3.013,2.127 -5.28,2.127"
           style="fill:#0d4d84;fill-opacity:1;fill-rule:nonzero;stroke:none"
           id="path3453"
           inkscape:connector-curvature="0" /><path
           d="m 421.206,40.767 1.378,-0.933 c -3.479,-7.084 -10.57,-12.787 -18.892,-12.787 -6.805,0 -12.384,4.529 -12.68,13.039 -0.55,15.248 13.734,29.413 25.435,29.413 5.018,0 9.67,-2.192 9.878,-7.595 0.432,-12.125 -16.596,-15.834 -27.813,-16.086 -0.366,-1.266 -0.501,-2.541 -0.436,-4.479 0.185,-5.027 3.23,-9.257 9.517,-9.257 5.433,0 10.867,4.375 13.613,8.685 z m -1.527,21.899 c -0.099,2.869 -1.539,4.795 -4.5,4.795 -7.133,0 -14.718,-13.971 -16.028,-19.606 11.703,0 20.812,6.971 20.528,14.811"
           style="fill:#0d4d84;fill-opacity:1;fill-rule:nonzero;stroke:none"
           id="path3455"
           inkscape:connector-curvature="0" /><path
           d="m 351.438,63.067 c 1.208,0.16 3.152,0.373 3.992,0.373 1.282,0 2.483,-0.243 2.543,-1.508 0.023,-0.752 -1.333,-6.153 -1.62,-7.407 l -2.712,-11.961 c -1.094,-4.894 -2.284,-10.019 -3.336,-14.068 l 6.968,0 3.916,18.947 c 11.954,12.45 16.552,16.508 19.375,16.508 1.267,0 2.144,-0.666 2.204,-2.185 0.07,-2.192 -1.287,-7.167 -1.76,-8.593 l -3.997,-13.82 c -0.908,-3.105 -1.58,-5.904 -1.518,-7.906 0.122,-3.035 1.956,-4.383 4.679,-4.383 5.094,0 8.788,5.307 12.021,10.522 l -0.946,1.711 c -1.309,-2.098 -4.327,-6.674 -6.71,-6.674 -0.755,0 -1.464,0.502 -1.489,1.765 -0.072,1.618 0.611,4.03 1.079,5.633 l 4.44,16.19 c 1.19,4.459 1.761,7.328 1.732,8.856 -0.111,3.023 -1.877,4.436 -4.58,4.436 -4.581,0 -10.675,-3.349 -23.563,-18.185 l -0.184,0 1.623,7.241 c 0.881,3.959 1.742,8.09 2.579,10.944 -4.456,-1.606 -10.848,-3.403 -14.797,-4.167 l 0.061,-2.269"
           style="fill:#0d4d84;fill-opacity:1;fill-rule:nonzero;stroke:none"
           id="path3457"
           inkscape:connector-curvature="0" /><path
           d="m 433.648,76.362 c 0.931,0 1.738,0.069 1.738,1.176 0,0.883 -0.787,1.049 -1.555,1.049 l -1.459,0 0,-2.225 1.276,0 z m -1.276,-4.005 -1.101,0 0,7.138 2.727,0 c 1.69,0 2.528,-0.621 2.528,-2.021 0,-1.289 -0.795,-1.832 -1.857,-1.977 l 2.036,-3.14 -1.221,0 -1.875,3.097 -1.237,0 0,-3.097 z m 1.31,-1.6 c 2.792,0 5.006,2.185 5.006,5.187 0,2.93 -2.214,5.141 -5.006,5.141 -2.849,0 -5.045,-2.211 -5.045,-5.141 0,-3.002 2.196,-5.187 5.045,-5.187 z m -6.285,5.187 c 0,3.551 2.869,6.164 6.285,6.164 3.373,0 6.245,-2.613 6.245,-6.164 0,-3.587 -2.872,-6.212 -6.245,-6.212 -3.416,0 -6.285,2.625 -6.285,6.212"
           style="fill:#0d4d84;fill-opacity:1;fill-rule:nonzero;stroke:none"
           id="path3459"
           inkscape:connector-curvature="0" /></g></g></g></svg>