<svg xmlns="http://www.w3.org/2000/svg" viewBox="0 0 566.93 99.61"><defs><style>.a{fill:#fff;}.b{fill:#0093c8;}.c{fill:#a3cf60;}</style></defs><title>eventmobi</title><path class="a" d="M134.7,55.65l-.05-31.22c0-4.29-3.55-9.31-7.26-10.31a118.5,118.5,0,0,0-19.32-3.42,127.5,127.5,0,0,0-21-.19c-4.6.35-9,5.27-9,10.12L78,42c11.28,4.09,25.56,9.1,41.49,11.64C124.68,54.47,129.75,55.13,134.7,55.65Z" transform="translate(-18.54 -2.41)"/><path class="a" d="M109.23,62.86A275.13,275.13,0,0,1,78,56.1V78c0,4.88,4.32,9.94,8.83,10.37a128.44,128.44,0,0,0,21.17.21,116.52,116.52,0,0,0,19.31-3.06c3.82-1,7.36-5.95,7.35-10.27l0-9.4.28,0C126.72,65.24,118.08,64.27,109.23,62.86Z" transform="translate(-18.54 -2.41)"/><path class="b" d="M140.92,66.11c-2.21-.11-6.37-.38-6.2-.37l0,9.4c0,4.33-3.53,9.31-7.35,10.27a116.53,116.53,0,0,1-19.31,3.06,128.22,128.22,0,0,1-21.17-.21c-4.51-.43-8.84-5.48-8.83-10.37V56c.17,0-5.43-1.57-8.2-2.47,0,11.47,0,22.81,0,30.77,0,8.53,7.08,16.83,15.82,17.43a130,130,0,0,0,42.78-4.2c7-2,12.47-10.21,12.46-17.53C140.94,76.15,140.93,71.34,140.92,66.11Z" transform="translate(-18.54 -2.41)"/><path class="b" d="M78.09,20.6c0-4.85,4.44-9.77,9-10.12a127.51,127.51,0,0,1,21,.19,118.5,118.5,0,0,1,19.32,3.42c3.71,1,7.25,6,7.26,10.31l.06,31.24c2.09.27,4.16.52,6.19.74,0-11.63-.05-23.81-.07-31.88,0-7.27-5.46-15.46-12.46-17.46A130.51,130.51,0,0,0,85.84,2.6C77.15,3.13,70,11.29,70,19.73c0,5.15,0,11.75,0,18.88C72.43,39.77,75.15,40.9,78,42Z" transform="translate(-18.54 -2.41)"/><path class="b" d="M425.56,87.86H411.51V53.24q0-4.89-3-7.13a10.68,10.68,0,0,0-6.62-2.24,10.27,10.27,0,0,0-6.52,2.24q-2.85,2.24-2.85,7.13V87.86H378.31V56.09q0-13.85,7.23-18.54a31.66,31.66,0,0,1,16-5.09,41.27,41.27,0,0,1,9.16,1,19.26,19.26,0,0,1,8.15,4.07,18.08,18.08,0,0,1,7.23-3.77,40.61,40.61,0,0,1,8.66-1.32,30.64,30.64,0,0,1,16.5,4.68q7.54,4.69,7.54,18.94V87.86h-7.13a6.63,6.63,0,0,1-6.93-6.93V53.24q0-4.89-3-7.13a10.88,10.88,0,0,0-13.24,0q-3,2.24-3,7.13V87.86Z" transform="translate(-18.54 -2.41)"/><path class="b" d="M470.35,83a20.14,20.14,0,0,1-6.11-9.88,45.43,45.43,0,0,1-1.83-12.94,40.94,40.94,0,0,1,1.53-11A22.74,22.74,0,0,1,468.72,40a21.17,21.17,0,0,1,13.64-7.23,31.43,31.43,0,0,1,15.07,1.33,20.74,20.74,0,0,1,11.4,10.58,33.84,33.84,0,0,1,3.46,15.69,38.78,38.78,0,0,1-1.43,11.2,28.63,28.63,0,0,1-3.67,7.94,20.32,20.32,0,0,1-12.42,8.35,27.66,27.66,0,0,1-13.54.3A23.69,23.69,0,0,1,470.35,83Zm9.77-35.85q-4.28,4.69-3.87,13.95T479.72,74A9.1,9.1,0,0,0,484,76.76a9.74,9.74,0,0,0,6.21.2,10.42,10.42,0,0,0,5.6-4.58q2.44-3.67,2.65-11.81,0-7.34-2.34-11a10.64,10.64,0,0,0-5.4-4.69,10,10,0,0,0-6.11-.1A10.69,10.69,0,0,0,480.13,47.12Z" transform="translate(-18.54 -2.41)"/><path class="b" d="M529.57,24.52V40.81a17.21,17.21,0,0,1,6.52-6.31,18.23,18.23,0,0,1,9-2q9.57,0,15.68,7.94T566.85,61q0,12.63-6.11,20.57a17,17,0,0,1-8.25,5.6,32.4,32.4,0,0,1-10.29,1.73,34.19,34.19,0,0,1-18.12-5.09q-8.36-5.1-8.35-19.55V17.59h6.93a7,7,0,0,1,6.92,6.93Zm23.22,35.85q0-7.34-3.05-11.41a9.73,9.73,0,0,0-8.35-4.28,10.29,10.29,0,0,0-8.76,4.08q-3.06,4.28-3.06,11.61,0,8.55,2.85,12.42A9.9,9.9,0,0,0,541,77.06a10.1,10.1,0,0,0,8.76-4.28Q552.79,68.51,552.79,60.36Z" transform="translate(-18.54 -2.41)"/><path class="b" d="M571.21,17.79h7.33a7,7,0,0,1,6.92,6.93V29H571.21Zm0,15.89h7.33a6.95,6.95,0,0,1,6.92,6.93V87.86H571.21Z" transform="translate(-18.54 -2.41)"/><path class="c" d="M237.82,33.68q-4.89,0-6.52,4.89l-9.57,33.2L210.93,33.68H195.86L214.8,87.86h14.46l19.14-54.17Z" transform="translate(-18.54 -2.41)"/><path class="c" d="M271.58,32.46Q260,32.46,253.45,40q-6.31,7.33-6.31,20.37,0,13.65,6.52,21,6.52,7.53,18.12,7.53,9.57,0,15.88-4.68a22.23,22.23,0,0,0,8.55-13H286a6.08,6.08,0,0,0-3.77,1,4.37,4.37,0,0,0-1.53,1.63l-1.12,1.12a2.91,2.91,0,0,1-1.12.71,11.59,11.59,0,0,1-5.91,1.42q-5.3,0-7.94-3.25c-1.9-2-2.92-5.16-3.05-9.37h35.23A3.52,3.52,0,0,0,297,63V60.77q0-13.44-6.51-21Q283.8,32.46,271.58,32.46Zm-10,22.81q.2-5.29,3.05-8.15A9.94,9.94,0,0,1,272,44.27q4.89,0,7.53,2.85,2.44,2.65,2.85,8.15Z" transform="translate(-18.54 -2.41)"/><path class="c" d="M340.17,37.15a30.63,30.63,0,0,0-16.5-4.68,31.65,31.65,0,0,0-16,5.09q-7.23,4.69-7.23,18.54V87.86h14.26V53.24q0-4.89,2.85-7.13a10.27,10.27,0,0,1,6.52-2.24,10.68,10.68,0,0,1,6.62,2.24q3,2.24,3,7.13V80.93a6.63,6.63,0,0,0,6.92,6.93h7.13V56.09Q347.7,41.83,340.17,37.15Z" transform="translate(-18.54 -2.41)"/><path class="c" d="M368.85,43.66a6.84,6.84,0,0,0,4.89-1.93,6.58,6.58,0,0,0,2-5V33.88h-8.35V24.72a6.67,6.67,0,0,0-2-4.88,6.45,6.45,0,0,0-4.68-2h-7.33V77.67q0,9.37,7.84,10a105.79,105.79,0,0,0,14.56.2V77.26H371.5c-2.72,0-4.07-1.15-4.07-3.46V43.66Z" transform="translate(-18.54 -2.41)"/><path class="c" d="M161.59,52.28l0,0a10.27,10.27,0,0,1,2.64-5.1,9.94,9.94,0,0,1,7.33-2.85q4.89,0,7.53,2.85a11,11,0,0,1,2.46,5.32h0s0,.07,0,.08a22.1,22.1,0,0,1,.38,2.74h-.08c0,.44.09.87.13,1.3,6.08-.93,10.82-2.4,13.77-4.4a26.28,26.28,0,0,0-5.68-12.38q-6.72-7.34-18.94-7.33-11.61,0-18.12,7.53-5.47,6.34-6.19,17c4.9.41,9.59.65,14,.73A16.8,16.8,0,0,1,161.59,52.28Z" transform="translate(-18.54 -2.41)"/><path class="c" d="M22.89,27.94A8.83,8.83,0,0,0,19.38,31c-4.91,8,12.13,19.94,38.15,28C76.72,65,105.91,65,105.91,65a148.4,148.4,0,0,1-33-4.82C41.52,52.41,19.62,38.19,22.89,27.94Z" transform="translate(-18.54 -2.41)"/><path class="c" d="M199.61,50.13C196,60.4,160.17,63.5,119.57,57S49,37,52.58,26.73c0,0,1.13-5.29,11.53-8.83V15.75c-16.33,1.63-27.51,5.68-29.65,11.79-4.29,12.21,29.22,28,74.82,35.26a286.08,286.08,0,0,0,37.84,3.54c.77,6.23,2.81,11.24,6.15,15q6.52,7.53,18.12,7.53,9.57,0,15.88-4.68a22.23,22.23,0,0,0,8.55-13H185.65a6.08,6.08,0,0,0-3.77,1,4.37,4.37,0,0,0-1.53,1.63l-1.12,1.12a2.9,2.9,0,0,1-1.12.71,11.59,11.59,0,0,1-5.91,1.42q-5.3,0-7.94-3.25a10.34,10.34,0,0,1-2.23-4l0,0c0-.08,0-.2-.06-.28a19.15,19.15,0,0,1-.62-3.24c21-.94,35.79-5.27,38.29-12.4a6.58,6.58,0,0,0,.09-4.09A4.1,4.1,0,0,1,199.61,50.13ZM150.81,66.4h0Zm3.61,0h0Z" transform="translate(-18.54 -2.41)"/></svg>