<svg xmlns="http://www.w3.org/2000/svg" xmlns:xlink="http://www.w3.org/1999/xlink" viewBox="0 0 266.26 338.89"><defs><style>.a{fill:url(#a);}.b{fill:url(#b);}</style><linearGradient id="a" x1="190.65" y1="324.42" x2="266.26" y2="324.42" gradientUnits="userSpaceOnUse"><stop offset="0" stop-color="#3dbb97"/><stop offset="1" stop-color="#c1d959"/></linearGradient><linearGradient id="b" x1="72.17" y1="71.87" x2="179.68" y2="71.87" xlink:href="#a"/></defs><title>hover</title><rect class="a" x="190.65" y="309.96" width="75.61" height="28.94"/><path class="b" d="M84.94,65.47c-2.82,0-5.06.78-6.31,2.48V57.05H72.17V86.26h6.46V75.37c0-2.58,1.53-4,4.12-4,2.29,0,3.4,1.29,3.4,3.58v6.78c0,3.84,0,4.54,0,4.54h6.45s0-1.61,0-4.54V74.51C92.59,68.72,89.38,65.47,84.94,65.47Zm21,0c-6.31,0-11.24,4.44-11.24,10.66s4.93,10.56,11.24,10.56,11.19-4.4,11.19-10.56S112.23,65.47,105.92,65.47Zm0,15.77c-2.87,0-4.64-2.1-4.64-5.11S103,71,105.92,71s4.59,2.05,4.59,5.11S108.79,81.25,105.92,81.25ZM142.41,65.9H137a6.89,6.89,0,0,0-6.24,4.46L130,72c-.91,2.06-1.58,3.54-1.58,3.54l-.26.87-.26-.87S127.24,74,126.33,72l-.73-1.61a6.89,6.89,0,0,0-6.24-4.46h-5.42s2.18.61,4.51,4.49S127,86.69,127,86.69h2.34s6.26-12.49,8.55-16.31S142.41,65.9,142.41,65.9Zm8.34-.43c-6.31,0-11.24,4.4-11.24,10.56s4.69,10.66,12,10.66c4.26,0,6.75-1.29,8.7-3l-3.68-4a8.84,8.84,0,0,1-5.12,1.63c-2.92,0-4.64-1.2-5.26-3.3h15.45C162,70.92,158.07,65.47,150.75,65.47Zm-4.54,8.64c.53-2.44,2.25-3.58,4.78-3.58s4,1.34,4.26,3.58Zm30.12-8.64a6.2,6.2,0,0,0-5.69,2.93V65.9h-6.49s0,1.2,0,4.42V86.26h6.46v-9c0-4.35,1.58-5.69,4.49-5.69a5.66,5.66,0,0,1,2.49.62l2.06-5.88A7.35,7.35,0,0,0,176.34,65.47Z" transform="translate(-72.17 -57.05)"/></svg>