<svg xmlns="http://www.w3.org/2000/svg" xmlns:xlink="http://www.w3.org/1999/xlink" viewBox="0 0 107.52 29.64"><defs><style>.a{fill:url(#a);}</style><linearGradient id="a" x1="342.17" y1="305.87" x2="449.68" y2="305.87" gradientUnits="userSpaceOnUse"><stop offset="0" stop-color="#3dbb97"/><stop offset="1" stop-color="#c1d959"/></linearGradient></defs><title>hover</title><path class="a" d="M354.94,299.47c-2.82,0-5.06.78-6.31,2.48v-10.9h-6.46v29.21h6.46v-10.9c0-2.58,1.53-4,4.12-4,2.29,0,3.4,1.29,3.4,3.58v6.78c0,3.84,0,4.54,0,4.54h6.45s0-1.61,0-4.54v-7.21C362.59,302.72,359.38,299.47,354.94,299.47Zm21,0c-6.31,0-11.24,4.44-11.24,10.66s4.93,10.56,11.24,10.56,11.19-4.4,11.19-10.56S382.23,299.47,375.92,299.47Zm0,15.77c-2.87,0-4.64-2.1-4.64-5.11S373,305,375.92,305s4.59,2.05,4.59,5.11S378.79,315.25,375.92,315.25Zm36.49-15.34H407a6.89,6.89,0,0,0-6.24,4.46L400,306c-.91,2.06-1.58,3.54-1.58,3.54l-.26.87-.26-.87s-.67-1.48-1.58-3.54l-.73-1.61a6.89,6.89,0,0,0-6.24-4.46h-5.42s2.18.61,4.51,4.49S397,320.69,397,320.69h2.34s6.26-12.49,8.55-16.31S412.41,299.9,412.41,299.9Zm8.34-.43c-6.31,0-11.24,4.4-11.24,10.56s4.69,10.66,12,10.66c4.26,0,6.75-1.29,8.7-3l-3.68-4a8.84,8.84,0,0,1-5.12,1.63c-2.92,0-4.64-1.2-5.26-3.3h15.45C432,304.92,428.07,299.47,420.75,299.47Zm-4.54,8.64c.53-2.44,2.25-3.58,4.78-3.58s4,1.34,4.26,3.58Zm30.12-8.64a6.2,6.2,0,0,0-5.69,2.93v-2.5h-6.49s0,1.2,0,4.42v15.94h6.46v-9c0-4.35,1.58-5.69,4.49-5.69a5.66,5.66,0,0,1,2.49.62l2.06-5.88A7.35,7.35,0,0,0,446.34,299.47Z" transform="translate(-342.17 -291.05)"/></svg>