<?xml version="1.0" encoding="UTF-8"?>
<svg width="144px" height="41px" viewBox="0 0 144 41" version="1.1" xmlns="http://www.w3.org/2000/svg" xmlns:xlink="http://www.w3.org/1999/xlink">
    <!-- Generator: Sketch 41 (35326) - http://www.bohemiancoding.com/sketch -->
    <title>wordmark white orange</title>
    <desc>Created with Sketch.</desc>
    <defs>
        <ellipse id="path-1" cx="114.59" cy="9.21500587" rx="8.59000015" ry="8.61499977"></ellipse>
        <mask id="mask-2" maskContentUnits="userSpaceOnUse" maskUnits="objectBoundingBox" x="0" y="0" width="17.1800003" height="17.2299995" fill="white">
            <use xlink:href="#path-1"></use>
        </mask>
    </defs>
    <g id="Home" stroke="none" stroke-width="1" fill="none" fill-rule="evenodd">
        <g id="wordmark-white-orange">
            <path d="M2.53917904,0.835138462 L6.62525764,0.835138462 L6.62525764,14.5455385 L11.7149345,14.5455385 L11.7149345,17.6615385 L2.53917904,17.6615385 L2.53917904,0.835138462 Z M17.129083,17.6615385 L17.129083,0.835138462 L21.2151616,0.835138462 L21.2151616,17.6615385 L17.129083,17.6615385 Z M26.9638428,9.2004 C26.9638428,6.70758754 27.7961838,4.65024914 29.4608908,3.02832308 C31.1255978,1.40639702 33.1606517,0.595446154 35.5661135,0.595446154 C37.4299482,0.595446154 39.0866652,1.0908053 40.5363144,2.08153846 C41.9859636,3.07227162 42.9975168,4.44649378 43.5710044,6.20424615 L38.6963843,6.20424615 C38.0591759,4.97381949 37.0396577,4.35861538 35.6377991,4.35861538 C34.2359406,4.35861538 33.13279,4.79804689 32.3283144,5.67692308 C31.5238388,6.55579927 31.121607,7.73027983 31.121607,9.2004 C31.121607,10.6705202 31.5238388,11.8450007 32.3283144,12.7238769 C33.13279,13.6027531 34.2120456,14.0421846 35.5661135,14.0421846 C36.5378564,14.0421846 37.3303725,13.7984999 37.9436856,13.3111231 C38.5569987,12.8237463 38.9671955,12.1725887 39.1742882,11.3576308 L34.4430393,11.3576308 L34.4430393,8.24163077 L43.5710044,8.24163077 L43.5710044,11.3576308 C43.2683304,12.8916692 42.4320068,14.321819 41.0620087,15.6481231 C40.4088701,16.2873058 39.600424,16.8066339 38.6366463,17.2061231 C37.6728685,17.6056123 36.6493679,17.8053538 35.5661135,17.8053538 C33.1606517,17.8053538 31.1255978,16.994403 29.4608908,15.3724769 C27.7961838,13.7505509 26.9638428,11.6932125 26.9638428,9.2004 L26.9638428,9.2004 Z M59.9052576,0.835138462 L63.9913362,0.835138462 L63.9913362,17.6615385 L59.9052576,17.6615385 L59.9052576,10.6864923 L53.4296594,10.6864923 L53.4296594,17.6615385 L49.3435808,17.6615385 L49.3435808,0.835138462 L53.4296594,0.835138462 L53.4296594,7.57049231 L59.9052576,7.57049231 L59.9052576,0.835138462 Z M69.5727511,3.95113846 L69.5727511,0.835138462 L82.81069,0.835138462 L82.81069,3.95113846 L78.2228122,3.95113846 L78.2228122,17.6615385 L74.1367336,17.6615385 L74.1367336,3.95113846 L69.5727511,3.95113846 Z M92.8246638,4.23876923 C92.4980944,4.51042187 92.3348122,4.90191539 92.3348122,5.41326154 C92.3348122,5.92460768 92.486147,6.33607537 92.788821,6.64767692 C93.091495,6.95927848 93.4857618,7.19896839 93.9716332,7.36675385 C94.4575046,7.5345393 94.9991237,7.69433257 95.5965066,7.84613846 C96.1938894,7.99794435 96.7872809,8.18170661 97.3766987,8.39743077 C97.9661165,8.61315492 98.503753,8.88080866 98.9896245,9.2004 C99.4754959,9.51999134 99.8697627,9.97140734 100.172437,10.5546615 C100.475111,11.1379157 100.626445,11.8370113 100.626445,12.6519692 C100.626445,14.0741507 100.048984,15.2925744 98.8940437,16.3072769 C97.7391034,17.3219794 96.2177911,17.8293231 94.3300611,17.8293231 C92.4423312,17.8293231 90.9210189,17.3739122 89.7660786,16.4630769 C88.6111383,15.5522416 88.0336769,14.2579161 88.0336769,12.5800615 L92.3826026,12.5800615 C92.4941141,13.9223452 93.1791029,14.5934769 94.4375895,14.5934769 C95.0270073,14.5934769 95.4889765,14.4376785 95.8235109,14.1260769 C96.1580453,13.8144754 96.32531,13.418987 96.32531,12.9396 C96.32531,12.460213 96.1739753,12.0687195 95.8713013,11.7651077 C95.5686273,11.4614959 95.1743605,11.221806 94.6884891,11.0460308 C94.2026177,10.8702555 93.6609986,10.7064674 93.0636157,10.5546615 C92.4662328,10.4028557 91.8728414,10.2150986 91.2834236,9.99138462 C90.6940058,9.76767068 90.1563692,9.50001694 89.6704978,9.18841538 C89.1846264,8.87681383 88.7903596,8.42939266 88.4876856,7.84613846 C88.1850116,7.26288426 88.0336769,6.57177835 88.0336769,5.7728 C88.0336769,4.20680243 88.6151208,2.95242523 89.7780262,2.00963077 C90.9409316,1.06683631 92.4264014,0.595446154 94.2344803,0.595446154 C96.0425593,0.595446154 97.5041342,1.00691383 98.6192489,1.82986154 C99.7343637,2.65280924 100.315808,3.95112959 100.363598,5.72486154 L95.9190917,5.72486154 C95.8553709,5.11763799 95.6602287,4.65024266 95.3336594,4.32266154 C95.0070901,3.99508041 94.5889283,3.83129231 94.0791616,3.83129231 C93.5693948,3.83129231 93.1512331,3.96711659 92.8246638,4.23876923 L92.8246638,4.23876923 Z" id="LIGHTSON" fill="#FFFFFF"></path>
            <use id="Oval" stroke="#FF4600" mask="url(#mask-2)" stroke-width="8" xlink:href="#path-1"></use>
            <polygon id="Path" fill="#FF4600" points="139.890026 0.7872 143.976105 0.7872 143.976105 17.6615385 139.890026 17.6615385 133.056 7.04316923 133.056 17.6615385 128.969921 17.6615385 128.969921 0.7872 133.056 0.7872 139.890026 11.4055692"></polygon>
            <path d="M4.92838428,28.0061538 C4.62759675,28.2563602 4.47720524,28.6169464 4.47720524,29.0879231 C4.47720524,29.5588998 4.61659249,29.9378832 4.89537118,30.2248846 C5.17414987,30.5118861 5.53729034,30.7326531 5.98480349,30.8871923 C6.43231665,31.0417315 6.93117629,31.1889096 7.48139738,31.3287308 C8.03161847,31.468552 8.57816322,31.6378067 9.12104803,31.8365 C9.66393285,32.0351933 10.1591244,32.2817165 10.6066376,32.5760769 C11.0541507,32.8704374 11.4172912,33.2862153 11.6960699,33.8234231 C11.9748486,34.3606309 12.1142358,35.0045347 12.1142358,35.7551538 C12.1142358,37.0650578 11.5823634,38.1872902 10.5186026,39.1218846 C9.45484184,40.056479 8.05363315,40.5237692 6.3149345,40.5237692 C4.57623585,40.5237692 3.17502715,40.1043119 2.11126638,39.2653846 C1.0475056,38.4264573 0.515633188,37.2343154 0.515633188,35.6889231 L4.52122271,35.6889231 C4.62393064,36.925237 5.25484137,37.5433846 6.4139738,37.5433846 C6.95685861,37.5433846 7.38235654,37.3998861 7.69048035,37.1128846 C7.99860416,36.8258832 8.15266376,36.4616176 8.15266376,36.0200769 C8.15266376,35.5785363 8.0132765,35.2179501 7.73449782,34.9383077 C7.45571913,34.6586653 7.09257866,34.4378982 6.6450655,34.276 C6.19755235,34.1141018 5.69869271,33.9632443 5.14847162,33.8234231 C4.59825052,33.6836019 4.05170577,33.5106677 3.50882096,33.3046154 C2.96593615,33.0985631 2.4707446,32.8520399 2.02323144,32.5650385 C1.57571829,32.278037 1.21257781,31.8659386 0.933799127,31.3287308 C0.65502044,30.791523 0.515633188,30.154978 0.515633188,29.4190769 C0.515633188,27.9767107 1.05117368,26.8213633 2.12227074,25.953 C3.1933678,25.0846367 4.56156373,24.6504615 6.22689956,24.6504615 C7.8922354,24.6504615 9.23842281,25.0294449 10.2655022,25.7874231 C11.2925816,26.5454012 11.8281221,27.7412226 11.8721397,29.3749231 L7.77851528,29.3749231 C7.71982503,28.8156382 7.54008884,28.3851425 7.23930131,28.0834231 C6.93851378,27.7817036 6.55336479,27.6308462 6.08384279,27.6308462 C5.6143208,27.6308462 5.22917181,27.7559475 4.92838428,28.0061538 L4.92838428,28.0061538 Z M29.3219214,32.5760769 C29.3219214,31.2220189 28.9514448,30.1402605 28.2104803,29.3307692 C27.4695159,28.521278 26.4791328,28.1165385 25.2393013,28.1165385 C23.9994698,28.1165385 23.0090867,28.521278 22.2681223,29.3307692 C21.5271579,30.1402605 21.1566812,31.2220189 21.1566812,32.5760769 C21.1566812,33.930135 21.5271579,35.0118934 22.2681223,35.8213846 C23.0090867,36.6308758 23.9994698,37.0356154 25.2393013,37.0356154 C26.4791328,37.0356154 27.4695159,36.6308758 28.2104803,35.8213846 C28.9514448,35.0118934 29.3219214,33.930135 29.3219214,32.5760769 L29.3219214,32.5760769 Z M17.3271616,32.5760769 C17.3271616,30.2800654 18.0937915,28.3851485 19.6270742,26.8912692 C21.160357,25.39739 23.0384168,24.6504615 25.26131,24.6504615 C27.4842033,24.6504615 29.3549269,25.39739 30.8735371,26.8912692 C32.3921473,28.3851485 33.151441,30.2800654 33.151441,32.5760769 C33.151441,34.8720884 32.3884792,36.7706848 30.8625328,38.2719231 C29.3365863,39.7731614 27.4658626,40.5237692 25.2503057,40.5237692 C23.0347487,40.5237692 21.160357,39.7731614 19.6270742,38.2719231 C18.0937915,36.7706848 17.3271616,34.8720884 17.3271616,32.5760769 L17.3271616,32.5760769 Z M38.7165066,40.3692308 L38.7165066,24.8712308 L48.7744978,24.8712308 L48.7744978,27.7412308 L42.48,27.7412308 L42.48,31.0748462 L47.189869,31.0748462 L47.189869,33.9448462 L42.48,33.9448462 L42.48,40.3692308 L38.7165066,40.3692308 Z M53.459214,27.7412308 L53.459214,24.8712308 L65.6520524,24.8712308 L65.6520524,27.7412308 L61.4263755,27.7412308 L61.4263755,40.3692308 L57.6628821,40.3692308 L57.6628821,27.7412308 L53.459214,27.7412308 Z M88.1858515,24.8712308 L92.2354585,24.8712308 L87.9217467,40.3692308 L83.6080349,40.3692308 L80.9009607,30.545 L78.2158952,40.3692308 L73.9021834,40.3692308 L69.5224454,24.8712308 L73.5500437,24.8712308 L76.2351092,36.0200769 L78.9862009,24.8712308 L83.2558952,24.8712308 L85.8969432,35.8434615 L88.1858515,24.8712308 Z M107.000175,40.3692308 L106.141834,37.7641538 L100.595633,37.7641538 L99.7372926,40.3692308 L95.7317031,40.3692308 L101.101834,24.8270769 L105.679651,24.8270769 L111.027773,40.3692308 L107.000175,40.3692308 Z M101.542009,34.8941538 L105.195459,34.8941538 L103.368734,29.3749231 L101.542009,34.8941538 Z M119.784105,34.3422308 L119.784105,40.3692308 L116.020611,40.3692308 L116.020611,24.8712308 L122.117031,24.8712308 C123.907083,24.8712308 125.300956,25.3348415 126.29869,26.2620769 C127.296424,27.1893123 127.795284,28.3078652 127.795284,29.6177692 C127.795284,30.5155686 127.523846,31.3912778 126.980961,32.2449231 C126.438076,33.0985684 125.550399,33.7019982 124.317904,34.0552308 L128.103406,40.3692308 L123.701659,40.3692308 L120.224279,34.3422308 L119.784105,34.3422308 Z M119.784105,27.7412308 L119.784105,31.4722308 L122.117031,31.4722308 C122.689261,31.4722308 123.140435,31.3029761 123.470568,30.9644615 C123.8007,30.625947 123.965764,30.1807335 123.965764,29.6288077 C123.965764,29.0768819 123.797032,28.6243095 123.459563,28.2710769 C123.122094,27.9178444 122.674588,27.7412308 122.117031,27.7412308 L119.784105,27.7412308 Z M143.220262,24.8270769 L143.220262,27.6970769 L137.630044,27.6970769 L137.630044,31.0306923 L142.56,31.0306923 L142.56,33.9006923 L137.630044,33.9006923 L137.630044,37.4992308 L143.220262,37.4992308 L143.220262,40.3692308 L133.86655,40.3692308 L133.86655,24.8270769 L143.220262,24.8270769 Z" id="SOFTWARE" fill="#FFFFFF"></path>
        </g>
    </g>
</svg>