<?xml version="1.0" encoding="UTF-8"?>
<svg width="229px" height="65px" viewBox="0 0 229 65" version="1.1" xmlns="http://www.w3.org/2000/svg" xmlns:xlink="http://www.w3.org/1999/xlink">
    <!-- Generator: Sketch 40.3 (33839) - http://www.bohemiancoding.com/sketch -->
    <title>wordmark dark</title>
    <desc>Created with Sketch.</desc>
    <defs></defs>
    <g id="Home" stroke="none" stroke-width="1" fill="none" fill-rule="evenodd">
        <g id="wordmark-dark">
            <path d="M4.038,1.324 L10.536,1.324 L10.536,23.06 L18.63,23.06 L18.63,28 L4.038,28 L4.038,1.324 Z M27.24,28 L27.24,1.324 L33.738,1.324 L33.738,28 L27.24,28 Z M42.88,14.586 C42.88,10.6339802 44.2036534,7.37234619 46.851,4.801 C49.4983466,2.22965381 52.7346475,0.944 56.56,0.944 C59.5240148,0.944 62.1586551,1.72932548 64.464,3.3 C66.7693449,4.87067452 68.3779954,7.0493194 69.29,9.836 L61.538,9.836 C60.5246616,7.88532358 58.9033445,6.91 56.674,6.91 C54.4446555,6.91 52.6903397,7.6066597 51.411,9 C50.1316603,10.3933403 49.492,12.2553217 49.492,14.586 C49.492,16.9166783 50.1316603,18.7786597 51.411,20.172 C52.6903397,21.5653403 54.4066559,22.262 56.56,22.262 C58.1053411,22.262 59.3656618,21.8756705 60.341,21.103 C61.3163382,20.3303295 61.968665,19.2980065 62.298,18.006 L54.774,18.006 L54.774,13.066 L69.29,13.066 L69.29,18.006 C68.8086643,20.4380122 67.4786776,22.7053228 65.3,24.808 C64.2613281,25.8213384 62.9756743,26.6446635 61.443,27.278 C59.9103257,27.9113365 58.2826753,28.228 56.56,28.228 C52.7346475,28.228 49.4983466,26.9423462 46.851,24.371 C44.2036534,21.7996538 42.88,18.5380198 42.88,14.586 L42.88,14.586 Z M95.266,1.324 L101.764,1.324 L101.764,28 L95.266,28 L95.266,16.942 L84.968,16.942 L84.968,28 L78.47,28 L78.47,1.324 L84.968,1.324 L84.968,12.002 L95.266,12.002 L95.266,1.324 Z M110.64,6.264 L110.64,1.324 L131.692,1.324 L131.692,6.264 L124.396,6.264 L124.396,28 L117.898,28 L117.898,6.264 L110.64,6.264 Z M147.617,6.72 C147.097664,7.15066882 146.838,7.77132928 146.838,8.582 C146.838,9.39267072 147.078664,10.0449975 147.56,10.539 C148.041336,11.0330025 148.668329,11.4129987 149.441,11.679 C150.213671,11.9450013 151.074995,12.1983321 152.025,12.439 C152.975005,12.6796679 153.918662,12.9709983 154.856,13.313 C155.793338,13.6550017 156.648329,14.0793308 157.421,14.586 C158.193671,15.0926692 158.820664,15.8083287 159.302,16.733 C159.783336,17.6576713 160.024,18.7659935 160.024,20.058 C160.024,22.3126779 159.105676,24.2443253 157.269,25.853 C155.432324,27.4616747 153.013015,28.266 150.011,28.266 C147.008985,28.266 144.589676,27.5440072 142.753,26.1 C140.916324,24.6559928 139.998,22.6040133 139.998,19.944 L146.914,19.944 C147.091334,22.0720106 148.180657,23.136 150.182,23.136 C151.119338,23.136 151.853997,22.8890025 152.386,22.395 C152.918003,21.9009975 153.184,21.2740038 153.184,20.514 C153.184,19.7539962 152.943336,19.1333357 152.462,18.652 C151.980664,18.1706643 151.353671,17.7906681 150.581,17.512 C149.808329,17.2333319 148.947005,16.9736679 147.997,16.733 C147.046995,16.4923321 146.103338,16.1946684 145.166,15.84 C144.228662,15.4853316 143.373671,15.0610025 142.601,14.567 C141.828329,14.0729975 141.201336,13.3636713 140.72,12.439 C140.238664,11.5143287 139.998,10.418673 139.998,9.152 C139.998,6.66932092 140.922657,4.68067414 142.772,3.186 C144.621343,1.69132586 146.983652,0.944 149.859,0.944 C152.734348,0.944 155.058658,1.59632681 156.832,2.901 C158.605342,4.20567319 159.53,6.26398594 159.606,9.076 L152.538,9.076 C152.436666,8.11332852 152.126336,7.37233593 151.607,6.853 C151.087664,6.33366407 150.422671,6.074 149.612,6.074 C148.801329,6.074 148.136336,6.28933118 147.617,6.72 L147.617,6.72 Z" id="LIGHTSON" fill="#4A4A4A"></path>
            <path d="M168.596,14.586 C168.596,10.6339802 169.919653,7.37234619 172.567,4.801 C175.214347,2.22965381 178.456981,0.944 182.295,0.944 C186.133019,0.944 189.362987,2.22965381 191.985,4.801 C194.607013,7.37234619 195.918,10.6339802 195.918,14.586 C195.918,18.5380198 194.60068,21.8059871 191.966,24.39 C189.33132,26.9740129 186.101352,28.266 182.276,28.266 C178.450648,28.266 175.214347,26.9740129 172.567,24.39 C169.919653,21.8059871 168.596,18.5380198 168.596,14.586 L168.596,14.586 Z" id="Path" fill="#FF4600"></path>
            <path d="M189.306,14.586 C189.306,12.2553217 188.66634,10.3933403 187.387,9 C186.10766,7.6066597 184.397677,6.91 182.257,6.91 C180.116323,6.91 178.40634,7.6066597 177.127,9 C175.84766,10.3933403 175.208,12.2553217 175.208,14.586 C175.208,16.9166783 175.84766,18.7786597 177.127,20.172 C178.40634,21.5653403 180.116323,22.262 182.257,22.262 C184.397677,22.262 186.10766,21.5653403 187.387,20.172 C188.66634,18.7786597 189.306,16.9166783 189.306,14.586 L189.306,14.586 Z" id="Path" fill="#FFFFFF"></path>
            <polygon id="Path" fill="#FF4600" points="222.464 1.248 228.962 1.248 228.962 28 222.464 28 211.596 11.166 211.596 28 205.098 28 205.098 1.248 211.596 1.248 222.464 18.082"></polygon>
            <path d="M7.8375,44.4 C7.35916427,44.7966687 7.12,45.3683296 7.12,46.115 C7.12,46.8616704 7.34166445,47.4624977 7.785,47.9175 C8.22833555,48.3725023 8.80582977,48.7224988 9.5175,48.9675 C10.2291702,49.2125012 11.0224956,49.4458322 11.8975,49.6675 C12.7725044,49.8891678 13.6416623,50.1574984 14.505,50.4725 C15.3683376,50.7875016 16.1558298,51.178331 16.8675,51.645 C17.5791702,52.111669 18.1566644,52.7708291 18.6,53.6225 C19.0433355,54.4741709 19.265,55.4949941 19.265,56.685 C19.265,58.7616771 18.4191751,60.5408259 16.7275,62.0225 C15.0358249,63.5041741 12.8075138,64.245 10.0425,64.245 C7.27748617,64.245 5.04917512,63.5800067 3.3575,62.25 C1.66582487,60.9199933 0.82,59.0300122 0.82,56.58 L7.19,56.58 C7.35333415,58.5400098 8.35665745,59.52 10.2,59.52 C11.0633376,59.52 11.7399975,59.2925023 12.23,58.8375 C12.7200024,58.3824977 12.965,57.8050035 12.965,57.105 C12.965,56.4049965 12.7433355,55.8333356 12.3,55.39 C11.8566644,54.9466645 11.2791702,54.596668 10.5675,54.34 C9.85582977,54.083332 9.06250437,53.8441678 8.1875,53.6225 C7.31249562,53.4008322 6.44333765,53.1266683 5.58,52.8 C4.71666235,52.4733317 3.92917022,52.0825023 3.2175,51.6275 C2.50582977,51.1724977 1.92833555,50.5191709 1.485,49.6675 C1.04166445,48.8158291 0.82,47.8066725 0.82,46.64 C0.82,44.3533219 1.67165815,42.5216735 3.375,41.145 C5.07834185,39.7683264 7.25415342,39.08 9.9025,39.08 C12.5508466,39.08 14.6916585,39.6808273 16.325,40.8825 C17.9583415,42.0841727 18.8099996,43.979987 18.88,46.57 L12.37,46.57 C12.2766662,45.6833289 11.9908357,45.0008357 11.5125,44.5225 C11.0341643,44.0441643 10.4216704,43.805 9.675,43.805 C8.9283296,43.805 8.31583572,44.0033313 7.8375,44.4 L7.8375,44.4 Z M46.63,51.645 C46.63,49.4983226 46.0408392,47.7833397 44.8625,46.5 C43.6841608,45.2166603 42.1091765,44.575 40.1375,44.575 C38.1658235,44.575 36.5908392,45.2166603 35.4125,46.5 C34.2341608,47.7833397 33.645,49.4983226 33.645,51.645 C33.645,53.7916774 34.2341608,55.5066602 35.4125,56.79 C36.5908392,58.0733398 38.1658235,58.715 40.1375,58.715 C42.1091765,58.715 43.6841608,58.0733398 44.8625,56.79 C46.0408392,55.5066602 46.63,53.7916774 46.63,51.645 L46.63,51.645 Z M27.555,51.645 C27.555,48.0049818 28.7741545,45.0008452 31.2125,42.6325 C33.6508455,40.2641548 36.6374823,39.08 40.1725,39.08 C43.7075177,39.08 46.6824879,40.2641548 49.0975,42.6325 C51.5125121,45.0008452 52.72,48.0049818 52.72,51.645 C52.72,55.2850182 51.5066788,58.2949881 49.08,60.675 C46.6533212,63.0550119 43.678351,64.245 40.155,64.245 C36.6316491,64.245 33.6508455,63.0550119 31.2125,60.675 C28.7741545,58.2949881 27.555,55.2850182 27.555,51.645 L27.555,51.645 Z M61.57,64 L61.57,39.43 L77.565,39.43 L77.565,43.98 L67.555,43.98 L67.555,49.265 L75.045,49.265 L75.045,53.815 L67.555,53.815 L67.555,64 L61.57,64 Z M85.015,43.98 L85.015,39.43 L104.405,39.43 L104.405,43.98 L97.685,43.98 L97.685,64 L91.7,64 L91.7,43.98 L85.015,43.98 Z M140.24,39.43 L146.68,39.43 L139.82,64 L132.96,64 L128.655,48.425 L124.385,64 L117.525,64 L110.56,39.43 L116.965,39.43 L121.235,57.105 L125.61,39.43 L132.4,39.43 L136.6,56.825 L140.24,39.43 Z M170.16,64 L168.795,59.87 L159.975,59.87 L158.61,64 L152.24,64 L160.78,39.36 L168.06,39.36 L176.565,64 L170.16,64 Z M161.48,55.32 L167.29,55.32 L164.385,46.57 L161.48,55.32 Z M190.49,54.445 L190.49,64 L184.505,64 L184.505,39.43 L194.2,39.43 C197.046681,39.43 199.263325,40.1649926 200.85,41.635 C202.436675,43.1050073 203.23,44.8783229 203.23,46.955 C203.23,48.3783404 202.798338,49.7666599 201.935,51.12 C201.071662,52.4733401 199.66001,53.4299972 197.7,53.99 L203.72,64 L196.72,64 L191.19,54.445 L190.49,54.445 Z M190.49,43.98 L190.49,49.895 L194.2,49.895 C195.110005,49.895 195.827497,49.6266693 196.3525,49.09 C196.877503,48.5533306 197.14,47.8475044 197.14,46.9725 C197.14,46.0974956 196.871669,45.3800028 196.335,44.82 C195.798331,44.2599972 195.086671,43.98 194.2,43.98 L190.49,43.98 Z M227.76,39.36 L227.76,43.91 L218.87,43.91 L218.87,49.195 L226.71,49.195 L226.71,53.745 L218.87,53.745 L218.87,59.45 L227.76,59.45 L227.76,64 L212.885,64 L212.885,39.36 L227.76,39.36 Z" id="SOFTWARE" fill="#4A4A4A"></path>
        </g>
    </g>
</svg>