<svg xmlns="http://www.w3.org/2000/svg" viewBox="0 0 164.16 100.01"><defs><style>.a{fill:#6ab2e2;}.b{fill:#005486;}.c{fill:#0f2d52;}.d{fill:#e87524;}</style></defs><title>Mack_colour_CMYK</title><polygon class="a" points="6.88 26.48 3.34 27.65 4.18 24.95 6.88 26.48"/><path class="a" d="M390.76,275.74,395,288.19a25.43,25.43,0,0,1,5.11,4.94,12.5,12.5,0,0,1,1,1.46l.21.28-3.47-10.71-3.54-11.75-2.07,1.41,1.44,4A32.38,32.38,0,0,0,390.76,275.74Z" transform="translate(-314.9 -256.55)"/><path class="b" d="M368.21,267.62l-.69.23L321.78,283l-2.7-1.51,2.16-7,1.5-4.82,2.36-3h1.49L324,273.86l-1.43,4a34.69,34.69,0,0,1,4.11-2.86l.65-1.88q1.62-4.77,3.27-9.53a2.36,2.36,0,0,1,.38-.69,37.59,37.59,0,0,1,3.43-2.09,50.56,50.56,0,0,1,7-3.31c.83.15,1.65.31,2.45.43-.68,3.65-1.36,7.3-2.08,11a64.85,64.85,0,0,1,9.66-1.66l.48-9.44.75-1.17c1.75,0,3.57,0,5.41,0s3.66,0,5.41,0l.77,1.17.32,6.4.16,3c1,.09,2,.22,3,.36C367.9,267.56,368.07,267.6,368.21,267.62Z" transform="translate(-314.9 -256.55)"/><path class="c" d="M395,288.19a47.61,47.61,0,0,0-12.37-6.3c-.48-.17-1-.31-1.49-.46l9-6.13.69.45Z" transform="translate(-314.9 -256.55)"/><path class="b" d="M384.08,262.09l-10.42,2-.14,0c-.13-.66-.26-1.33-.38-2-.27-1.41-.54-2.82-.8-4.24.82-.13,1.66-.28,2.46-.43,1.24.47,2.45,1,3.65,1.56.83.39,1.66.82,2.45,1.26.32.16.62.32.93.49C382.59,261.17,383.34,261.63,384.08,262.09Z" transform="translate(-314.9 -256.55)"/><path class="c" d="M316.36,290.24l-1.46,4.68a17.41,17.41,0,0,1,1.18-1.72,23.72,23.72,0,0,1,2.9-3.14l-2.28-.93Z" transform="translate(-314.9 -256.55)"/><path class="b" d="M321.78,283l-3.55,1.18-1.53,4.92,2.28.93a34,34,0,0,1,6.84-4.75Z" transform="translate(-314.9 -256.55)"/><polygon class="b" points="78.57 13.16 76.21 10.16 74.75 10.16 77.32 17.28 79.39 15.87 78.57 13.16"/><path class="a" d="M367.52,267.86l-7.82,10c-.52,0-1,0-1.56,0-2.15,0-4.27.11-6.35.27a69.71,69.71,0,0,0-9.34,1.39c-.52.12-1,.21-1.55.32a67.65,67.65,0,0,0-7.23,2.08,55.88,55.88,0,0,0-7.83,3.4l-4-2.28Z" transform="translate(-314.9 -256.55)"/><path class="d" d="M390.08,275.3l-9,6.13c-1.88-.6-3.79-1.15-5.75-1.61-.55-.11-1.06-.2-1.58-.32a72.31,72.31,0,0,0-9.27-1.39c-1.19-.09-2.38-.15-3.58-.2-.4,0-.81,0-1.22,0l7.82-10,.69-.23c.65.09,1.28.19,1.91.31q2.17.39,4.3.92c-.2-1-.4-2.05-.59-3.09-.09-.52-.2-1-.29-1.54,0,0,0-.07,0-.11l.14,0,10.42-2,.28.18c.32.2.63.39,1,.61a2.65,2.65,0,0,1,.27.5,2.72,2.72,0,0,1,.12.33c1.28,3.76,2.58,7.49,3.83,11.23C389.71,275.05,389.9,275.18,390.08,275.3Z" transform="translate(-314.9 -256.55)"/><path class="c" d="M398.06,304.51c.07-.45.14-4.21.14-4.67,0-7-8-13.16-20-16.45L371.56,288C386.21,290.43,396.91,296.84,398.06,304.51Z" transform="translate(-314.9 -256.55)"/><path class="c" d="M318,299.84c0,.46.08,4.22.14,4.67.62-4.16,4.07-8,9.42-10.95l-5.37-2.19C319.55,293.93,318,296.8,318,299.84Z" transform="translate(-314.9 -256.55)"/><path class="b" d="M328.7,286.92a27.68,27.68,0,0,0-6.48,4.45l5.37,2.19a43.68,43.68,0,0,1,7.26-3.18Z" transform="translate(-314.9 -256.55)"/><path class="a" d="M357.41,280.83l-4.57,5.87-.32.34a70,70,0,0,0-17.67,3.35l-6.15-3.46C335.88,283.25,346.07,280.92,357.41,280.83Z" transform="translate(-314.9 -256.55)"/><polygon class="b" points="56.66 31.4 56.66 31.4 63.33 26.84 63.33 26.84 56.66 31.4"/><path class="d" d="M378.23,283.4l-6.67,4.54a81.6,81.6,0,0,0-13.45-1.09c-1.7,0-3.37.06-5,.15l-.58,0,.32-.34,4.57-5.87h.83A75.5,75.5,0,0,1,378.23,283.4Z" transform="translate(-314.9 -256.55)"/><path class="c" d="M316.69,316h3.62l6.94,16.06h.06l7-16.06h3.53v20.48H335.4V319.3h-.06L328,336.49h-1.48l-7.35-17.18h-.06v17.18h-2.43Z" transform="translate(-314.9 -256.55)"/><path class="c" d="M349.58,316h2.29l8.71,20.48h-2.83l-2.08-5H345.41l-2.11,5h-2.75Zm1.1,3.12h-.06l-4.25,10.07h8.36Z" transform="translate(-314.9 -256.55)"/><path class="c" d="M376.93,320.23a5.85,5.85,0,0,0-2.29-1.87,6.74,6.74,0,0,0-2.83-.62,7.1,7.1,0,0,0-3.14.69,7.86,7.86,0,0,0-2.47,1.87,8.56,8.56,0,0,0-1.62,2.72,9.12,9.12,0,0,0-.58,3.23,9.45,9.45,0,0,0,.58,3.34,8.34,8.34,0,0,0,1.61,2.69,7.52,7.52,0,0,0,2.46,1.81,7.94,7.94,0,0,0,6.52-.07,7.62,7.62,0,0,0,2.57-2.13l1.82,1.53a8.43,8.43,0,0,1-3.34,2.72,10.75,10.75,0,0,1-4.41.87,10.41,10.41,0,0,1-4.11-.81,10.1,10.1,0,0,1-3.31-2.24,10.32,10.32,0,0,1-2.2-3.4,11.38,11.38,0,0,1-.8-4.31,11.52,11.52,0,0,1,.77-4.22,10.17,10.17,0,0,1,9.65-6.54,10.9,10.9,0,0,1,4,.75,7.39,7.39,0,0,1,3.23,2.46Z" transform="translate(-314.9 -256.55)"/><path class="c" d="M382.95,316h2.43v8.85h.35L395,316h3.5l-10.12,9.34L399,336.49h-3.56l-9.75-10.41h-.35v10.41h-2.43Z" transform="translate(-314.9 -256.55)"/><path class="c" d="M401.88,316h12.87v2.26H404.31v6.42h9.75v2.26h-9.75v7.29h11v2.26H401.88Z" transform="translate(-314.9 -256.55)"/><path class="c" d="M418.89,316H422l11.86,17h.06V316h2.43v20.48h-3.07l-11.86-17h-.06v17h-2.43Z" transform="translate(-314.9 -256.55)"/><path class="c" d="M440.26,334.32l11.83-16.06H440.43V316H455v2.08l-11.83,16.14h12v2.26H440.26Z" transform="translate(-314.9 -256.55)"/><path class="c" d="M459.42,316h2.43v20.48h-2.43Z" transform="translate(-314.9 -256.55)"/><path class="c" d="M465.67,316h12.87v2.26H468.1v6.42h9.75v2.26H468.1v7.29h11v2.26H465.67Z" transform="translate(-314.9 -256.55)"/><path class="c" d="M316.83,345.18h1.33v11.19h-1.33Z" transform="translate(-314.9 -256.55)"/><path class="c" d="M320.29,350.73q0-.51,0-.95t0-.81h1.17c0,.2,0,.4,0,.6s0,.41,0,.62h0a2.11,2.11,0,0,1,.36-.52,2.54,2.54,0,0,1,.55-.45,2.9,2.9,0,0,1,.71-.32,3,3,0,0,1,.85-.12,3.26,3.26,0,0,1,1.26.22,2.37,2.37,0,0,1,.88.62,2.5,2.5,0,0,1,.51,1,4.32,4.32,0,0,1,.17,1.23v4.57h-1.23v-4.44a2.37,2.37,0,0,0-.41-1.47,1.51,1.51,0,0,0-1.28-.54,2.42,2.42,0,0,0-1,.21,1.83,1.83,0,0,0-.71.59,2.61,2.61,0,0,0-.41.9,4.63,4.63,0,0,0-.13,1.15v3.6h-1.23Z" transform="translate(-314.9 -256.55)"/><path class="c" d="M332.31,356.38h-1.36l-3-7.4h1.44l2.31,5.8h0l2.2-5.8h1.33Z" transform="translate(-314.9 -256.55)"/><path class="c" d="M343.17,355a3.75,3.75,0,0,1-1.45,1.19,4.62,4.62,0,0,1-1.83.34,3.82,3.82,0,0,1-1.56-.31,3.51,3.51,0,0,1-1.18-.83,3.62,3.62,0,0,1-.74-1.23,4.37,4.37,0,0,1-.26-1.52,4.25,4.25,0,0,1,.28-1.57,3.65,3.65,0,0,1,.79-1.23,3.55,3.55,0,0,1,1.2-.8,4,4,0,0,1,1.52-.28,3.79,3.79,0,0,1,1.42.26,3.1,3.1,0,0,1,1.11.76,3.41,3.41,0,0,1,.72,1.22,4.92,4.92,0,0,1,.25,1.64v.4h-6a2.59,2.59,0,0,0,.23.91,2.63,2.63,0,0,0,.51.76,2.36,2.36,0,0,0,.74.51,2.27,2.27,0,0,0,.93.19,2.94,2.94,0,0,0,1.36-.28,3.07,3.07,0,0,0,1-.84Zm-1.06-3a2.13,2.13,0,0,0-.62-1.52,2.22,2.22,0,0,0-1.61-.57,2.28,2.28,0,0,0-2.42,2.09Z" transform="translate(-314.9 -256.55)"/><path class="c" d="M345.79,354.43a3.11,3.11,0,0,0,.8.73,2.06,2.06,0,0,0,1.1.27,2.76,2.76,0,0,0,.58-.06,1.74,1.74,0,0,0,.53-.21,1.18,1.18,0,0,0,.38-.36.91.91,0,0,0,.14-.51.83.83,0,0,0-.13-.49,1.18,1.18,0,0,0-.36-.32,2,2,0,0,0-.51-.21l-.58-.14q-.52-.11-1-.25a3.23,3.23,0,0,1-.83-.37,1.74,1.74,0,0,1-.57-.59,1.82,1.82,0,0,1-.21-.93,1.87,1.87,0,0,1,.24-.95,2.05,2.05,0,0,1,.63-.68,3.11,3.11,0,0,1,.89-.41,3.62,3.62,0,0,1,1-.14,3.39,3.39,0,0,1,1.46.32,2.28,2.28,0,0,1,1.05,1l-1,.68a1.91,1.91,0,0,0-.62-.64,1.73,1.73,0,0,0-.94-.24,2.14,2.14,0,0,0-.51.06,1.61,1.61,0,0,0-.47.19,1.12,1.12,0,0,0-.34.32.78.78,0,0,0-.13.45.58.58,0,0,0,.15.4,1.34,1.34,0,0,0,.41.29,3.52,3.52,0,0,0,.6.22,6.93,6.93,0,0,0,.7.16,7.23,7.23,0,0,1,.93.24,2.73,2.73,0,0,1,.77.4,1.8,1.8,0,0,1,.52.63,2.07,2.07,0,0,1,.19.93,2.14,2.14,0,0,1-.25,1.08,2.1,2.1,0,0,1-.67.72,3,3,0,0,1-.95.4,4.7,4.7,0,0,1-1.08.13,4.15,4.15,0,0,1-1.64-.29,3,3,0,0,1-1.24-1.08Z" transform="translate(-314.9 -256.55)"/><path class="c" d="M356.41,350h-2.18v3.7q0,.36,0,.67a1.38,1.38,0,0,0,.13.54.84.84,0,0,0,.33.36,1.22,1.22,0,0,0,.63.13,2.58,2.58,0,0,0,.55-.06,2.29,2.29,0,0,0,.54-.19l0,1.12a2.81,2.81,0,0,1-.7.21,4.62,4.62,0,0,1-.74.06,2.66,2.66,0,0,1-1.06-.17,1.43,1.43,0,0,1-.62-.49,1.82,1.82,0,0,1-.29-.78,6.92,6.92,0,0,1-.07-1V350h-1.61v-1H353v-2.1h1.23V349h2.18Z" transform="translate(-314.9 -256.55)"/><path class="c" d="M358.21,350.73q0-.51,0-.95t0-.81h1.17q0,.3,0,.6c0,.2,0,.41,0,.62h0a2.11,2.11,0,0,1,.36-.52,2.55,2.55,0,0,1,.55-.45,2.91,2.91,0,0,1,.71-.32,3,3,0,0,1,.85-.12,2.9,2.9,0,0,1,1,.15,2.43,2.43,0,0,1,.67.36,1.76,1.76,0,0,1,.42.46q.15.25.24.43a3.43,3.43,0,0,1,.95-1,2.4,2.4,0,0,1,1.39-.37,3.62,3.62,0,0,1,1.33.21,2.12,2.12,0,0,1,.87.62,2.44,2.44,0,0,1,.47,1,5.38,5.38,0,0,1,.14,1.29v4.49h-1.23v-4.43a3.48,3.48,0,0,0-.08-.74,1.71,1.71,0,0,0-.28-.65,1.49,1.49,0,0,0-.55-.46,2,2,0,0,0-.89-.17,1.77,1.77,0,0,0-.74.16,1.86,1.86,0,0,0-.61.44,2.08,2.08,0,0,0-.41.69,2.53,2.53,0,0,0-.15.89v4.27h-1.23v-4.19a3.38,3.38,0,0,0-.33-1.75,1.2,1.2,0,0,0-1.09-.51,2.42,2.42,0,0,0-1,.21,1.83,1.83,0,0,0-.71.59,2.61,2.61,0,0,0-.41.9,4.63,4.63,0,0,0-.13,1.15v3.6h-1.23Z" transform="translate(-314.9 -256.55)"/><path class="c" d="M378,355a3.75,3.75,0,0,1-1.45,1.19,4.62,4.62,0,0,1-1.83.34,3.82,3.82,0,0,1-1.56-.31,3.51,3.51,0,0,1-1.18-.83,3.62,3.62,0,0,1-.74-1.23,4.37,4.37,0,0,1-.26-1.52,4.24,4.24,0,0,1,.28-1.57,3.65,3.65,0,0,1,.79-1.23,3.55,3.55,0,0,1,1.2-.8,4,4,0,0,1,1.52-.28,3.79,3.79,0,0,1,1.42.26,3.1,3.1,0,0,1,1.11.76A3.41,3.41,0,0,1,378,351a4.92,4.92,0,0,1,.25,1.64v.4h-6a2.59,2.59,0,0,0,.23.91,2.63,2.63,0,0,0,.51.76,2.36,2.36,0,0,0,.74.51,2.27,2.27,0,0,0,.93.19,2.94,2.94,0,0,0,1.36-.28,3.07,3.07,0,0,0,1-.84Zm-1.06-3a2.13,2.13,0,0,0-.62-1.52,2.22,2.22,0,0,0-1.61-.57A2.28,2.28,0,0,0,372.3,352Z" transform="translate(-314.9 -256.55)"/><path class="c" d="M380.18,350.73q0-.51,0-.95t0-.81h1.17q0,.3,0,.6c0,.2,0,.41,0,.62h0a2.11,2.11,0,0,1,.36-.52,2.54,2.54,0,0,1,.55-.45,2.9,2.9,0,0,1,.71-.32,3,3,0,0,1,.85-.12,3.26,3.26,0,0,1,1.26.22,2.37,2.37,0,0,1,.88.62,2.51,2.51,0,0,1,.51,1,4.32,4.32,0,0,1,.17,1.23v4.57H385.4v-4.44a2.37,2.37,0,0,0-.41-1.47,1.51,1.51,0,0,0-1.28-.54,2.42,2.42,0,0,0-1,.21,1.83,1.83,0,0,0-.71.59,2.61,2.61,0,0,0-.41.9,4.63,4.63,0,0,0-.13,1.15v3.6h-1.23Z" transform="translate(-314.9 -256.55)"/><path class="c" d="M392.59,350h-2.18v3.7q0,.36,0,.67a1.38,1.38,0,0,0,.13.54.84.84,0,0,0,.33.36,1.22,1.22,0,0,0,.63.13,2.58,2.58,0,0,0,.55-.06,2.29,2.29,0,0,0,.54-.19l0,1.12a2.81,2.81,0,0,1-.7.21,4.62,4.62,0,0,1-.74.06,2.66,2.66,0,0,1-1.06-.17,1.43,1.43,0,0,1-.62-.49,1.82,1.82,0,0,1-.29-.78,6.92,6.92,0,0,1-.07-1V350h-1.61v-1h1.61v-2.1h1.23V349h2.18Z" transform="translate(-314.9 -256.55)"/><path class="c" d="M395,354.43a3.11,3.11,0,0,0,.8.73,2.06,2.06,0,0,0,1.1.27,2.76,2.76,0,0,0,.58-.06,1.74,1.74,0,0,0,.53-.21,1.18,1.18,0,0,0,.38-.36.91.91,0,0,0,.14-.51.83.83,0,0,0-.13-.49,1.18,1.18,0,0,0-.36-.32,2,2,0,0,0-.51-.21l-.58-.14q-.52-.11-1-.25a3.23,3.23,0,0,1-.83-.37,1.74,1.74,0,0,1-.57-.59,1.82,1.82,0,0,1-.21-.93,1.87,1.87,0,0,1,.24-.95,2.05,2.05,0,0,1,.63-.68,3.11,3.11,0,0,1,.89-.41,3.62,3.62,0,0,1,1-.14,3.39,3.39,0,0,1,1.46.32,2.28,2.28,0,0,1,1.05,1l-1,.68a1.91,1.91,0,0,0-.62-.64,1.73,1.73,0,0,0-.94-.24,2.14,2.14,0,0,0-.51.06,1.61,1.61,0,0,0-.47.19,1.12,1.12,0,0,0-.34.32.78.78,0,0,0-.13.45.58.58,0,0,0,.15.4,1.34,1.34,0,0,0,.41.29,3.52,3.52,0,0,0,.6.22,6.94,6.94,0,0,0,.7.16,7.22,7.22,0,0,1,.93.24,2.73,2.73,0,0,1,.77.4,1.8,1.8,0,0,1,.52.63,2.07,2.07,0,0,1,.19.93,2.14,2.14,0,0,1-.25,1.08,2.1,2.1,0,0,1-.67.72,3,3,0,0,1-.95.4,4.7,4.7,0,0,1-1.08.13,4.15,4.15,0,0,1-1.64-.29,3,3,0,0,1-1.24-1.08Z" transform="translate(-314.9 -256.55)"/></svg>