<svg xmlns="http://www.w3.org/2000/svg" viewBox="0 0 393.62 46.48"><defs><style>.a{fill:#6ab2e2;}.b{fill:#005486;}.c{fill:#0f2d52;}.d{fill:#e87524;}</style></defs><title>mackenzie-investments</title><polygon class="a" points="5.86 24.64 2.84 25.65 3.56 23.34 5.86 24.64"/><path class="a" d="M263,301l3.59,10.61a21.66,21.66,0,0,1,4.36,4.21,10.65,10.65,0,0,1,.85,1.24l.18.24-3-9.12-3-10-1.76,1.2,1.23,3.4A27.58,27.58,0,0,0,263,301Z" transform="translate(-198.35 -282.6)"/><path class="b" d="M243.76,294.12l-.59.2-39,12.92-2.3-1.29,1.84-5.95,1.28-4.11,2-2.53h1.27l-2.2,6.07-1.22,3.37a29.55,29.55,0,0,1,3.5-2.44l.55-1.6q1.38-4.06,2.79-8.12a2,2,0,0,1,.32-.59,32,32,0,0,1,2.92-1.78,43.07,43.07,0,0,1,6-2.82c.71.13,1.41.26,2.09.37-.58,3.11-1.16,6.22-1.77,9.34a55.24,55.24,0,0,1,8.23-1.41l.41-8,.64-1c1.49,0,3,0,4.61,0s3.12,0,4.61,0l.66,1,.27,5.45.14,2.59c.84.08,1.68.19,2.52.31Z" transform="translate(-198.35 -282.6)"/><path class="c" d="M266.57,311.64A40.56,40.56,0,0,0,256,306.28c-.41-.14-.85-.26-1.27-.4l7.63-5.22.59.38Z" transform="translate(-198.35 -282.6)"/><path class="b" d="M257.28,289.41l-8.88,1.7-.12,0c-.11-.56-.22-1.13-.32-1.7-.23-1.2-.46-2.4-.68-3.61.7-.11,1.41-.24,2.1-.37,1.06.4,2.09.85,3.11,1.33.71.33,1.41.7,2.09,1.07.27.14.53.27.79.42C256,288.62,256.65,289,257.28,289.41Z" transform="translate(-198.35 -282.6)"/><path class="c" d="M199.59,313.39l-1.24,4a14.82,14.82,0,0,1,1-1.46,20.2,20.2,0,0,1,2.47-2.68l-1.94-.79Z" transform="translate(-198.35 -282.6)"/><path class="b" d="M204.21,307.24l-3,1-1.3,4.19,1.94.79a29,29,0,0,1,5.83-4Z" transform="translate(-198.35 -282.6)"/><polygon class="b" points="66.94 13.3 64.92 10.74 63.68 10.74 65.87 16.81 67.63 15.6 66.94 13.3"/><path class="a" d="M243.17,294.32l-6.66,8.54c-.44,0-.88,0-1.33,0-1.83,0-3.64.09-5.41.23a59.39,59.39,0,0,0-8,1.18l-1.32.27a57.64,57.64,0,0,0-6.16,1.77,47.62,47.62,0,0,0-6.67,2.9l-3.45-1.94Z" transform="translate(-198.35 -282.6)"/><path class="d" d="M262.39,300.66l-7.64,5.22c-1.6-.51-3.23-1-4.9-1.37l-1.35-.27a61.6,61.6,0,0,0-7.9-1.18c-1-.08-2-.13-3-.17-.34,0-.69,0-1,0l6.66-8.54.59-.2c.55.08,1.09.16,1.63.26q1.85.33,3.66.78c-.17-.88-.34-1.75-.5-2.63-.08-.44-.17-.87-.25-1.31,0,0,0-.06,0-.09l.12,0,8.88-1.7.24.15c.27.17.54.33.81.52a2.25,2.25,0,0,1,.23.43,2.31,2.31,0,0,1,.1.28c1.09,3.2,2.2,6.38,3.26,9.57C262.08,300.45,262.24,300.56,262.39,300.66Z" transform="translate(-198.35 -282.6)"/><path class="c" d="M269.19,325.55c.06-.38.12-3.59.12-4,0-6-6.84-11.21-17-14l-5.68,3.88C259.1,313.55,268.22,319,269.19,325.55Z" transform="translate(-198.35 -282.6)"/><path class="c" d="M201,321.57c0,.39.07,3.6.12,4,.53-3.55,3.46-6.78,8-9.33l-4.58-1.87C202.3,316.53,201,319,201,321.57Z" transform="translate(-198.35 -282.6)"/><path class="b" d="M210.11,310.56a23.58,23.58,0,0,0-5.52,3.79l4.58,1.87a37.22,37.22,0,0,1,6.19-2.71Z" transform="translate(-198.35 -282.6)"/><path class="a" d="M234.56,305.37l-3.89,5-.27.29a59.64,59.64,0,0,0-15.05,2.85l-5.24-2.95C216.22,307.43,224.9,305.45,234.56,305.37Z" transform="translate(-198.35 -282.6)"/><polygon class="b" points="48.27 28.84 48.27 28.84 53.95 24.95 53.95 24.95 48.27 28.84"/><path class="d" d="M252.3,307.56l-5.68,3.87a69.53,69.53,0,0,0-11.46-.93c-1.45,0-2.87.05-4.27.13l-.49,0,.27-.29,3.89-5h.71A64.32,64.32,0,0,1,252.3,307.56Z" transform="translate(-198.35 -282.6)"/><rect class="c" x="260" width="0.5" height="26.42"/><path class="d" d="M474.57,290.42a1.63,1.63,0,0,0-.6-.45,2,2,0,0,0-.82-.16,2,2,0,0,0-1.54.68,2.34,2.34,0,0,0-.45.76,2.92,2.92,0,0,0,0,1.92,2.41,2.41,0,0,0,.45.76,2,2,0,0,0,.67.5,1.94,1.94,0,0,0,.83.18,1.85,1.85,0,0,0,.9-.21,1.79,1.79,0,0,0,.64-.59l1.37,1a2.85,2.85,0,0,1-1.2,1,3.71,3.71,0,0,1-1.49.32,4.59,4.59,0,0,1-1.61-.27,3.66,3.66,0,0,1-1.27-.78,3.54,3.54,0,0,1-.84-1.24,4.55,4.55,0,0,1,0-3.24,3.56,3.56,0,0,1,.84-1.24,3.7,3.7,0,0,1,1.27-.78,4.62,4.62,0,0,1,1.61-.27,3.92,3.92,0,0,1,.66.06,3.55,3.55,0,0,1,.67.18,3.09,3.09,0,0,1,.64.34,2.61,2.61,0,0,1,.55.52Z" transform="translate(-198.35 -282.6)"/><path class="d" d="M476.51,292.21a4.2,4.2,0,0,1,.3-1.62,3.56,3.56,0,0,1,.84-1.24,3.7,3.7,0,0,1,1.27-.78,4.89,4.89,0,0,1,3.22,0,3.71,3.71,0,0,1,1.27.78,3.57,3.57,0,0,1,.84,1.24,4.52,4.52,0,0,1,0,3.24,3.56,3.56,0,0,1-.84,1.24,3.67,3.67,0,0,1-1.27.78,4.88,4.88,0,0,1-3.22,0,3.66,3.66,0,0,1-1.27-.78,3.54,3.54,0,0,1-.84-1.24A4.21,4.21,0,0,1,476.51,292.21Zm1.71,0a2.73,2.73,0,0,0,.16,1,2.19,2.19,0,0,0,.47.76,2.14,2.14,0,0,0,.73.5,2.64,2.64,0,0,0,1.91,0,2.15,2.15,0,0,0,.73-.5,2.22,2.22,0,0,0,.47-.76,2.9,2.9,0,0,0,0-1.92,2.21,2.21,0,0,0-.47-.76,2.15,2.15,0,0,0-.73-.5,2.62,2.62,0,0,0-1.91,0,2.14,2.14,0,0,0-.73.5,2.17,2.17,0,0,0-.47.76A2.74,2.74,0,0,0,478.21,292.21Z" transform="translate(-198.35 -282.6)"/><path class="d" d="M485.67,288.49h2.23l3.17,5.18h0v-5.18h1.64v7.46h-2.15l-3.26-5.31h0v5.31h-1.64Z" transform="translate(-198.35 -282.6)"/><path class="d" d="M494.32,288.49h5V290H496v1.52h3.11V293H496v2.91h-1.64Z" transform="translate(-198.35 -282.6)"/><path class="d" d="M500.48,288.49h1.64v7.46h-1.64Z" transform="translate(-198.35 -282.6)"/><path class="d" d="M503.62,288.49h2.47a7.08,7.08,0,0,1,1.7.2,3.89,3.89,0,0,1,1.41.65,3.16,3.16,0,0,1,1,1.16,3.9,3.9,0,0,1,.35,1.74,3.55,3.55,0,0,1-.34,1.6,3.44,3.44,0,0,1-.92,1.16,4.1,4.1,0,0,1-1.34.71,5.2,5.2,0,0,1-1.59.24h-2.69Zm1.64,5.94h.85a4.56,4.56,0,0,0,1.06-.12,2.25,2.25,0,0,0,.85-.38,1.84,1.84,0,0,0,.56-.71,2.52,2.52,0,0,0,.21-1.07,2.1,2.1,0,0,0-.21-1,1.92,1.92,0,0,0-.55-.67,2.44,2.44,0,0,0-.82-.39,3.62,3.62,0,0,0-1-.13h-1Z" transform="translate(-198.35 -282.6)"/><path class="d" d="M511.68,288.49h5.07V290h-3.42v1.39h3.24v1.52h-3.24v1.52h3.61v1.52h-5.26Z" transform="translate(-198.35 -282.6)"/><path class="d" d="M518.25,288.49h2.23l3.17,5.18h0v-5.18h1.64v7.46h-2.15l-3.26-5.31h0v5.31h-1.64Z" transform="translate(-198.35 -282.6)"/><path class="d" d="M531.72,290.42a1.63,1.63,0,0,0-.6-.45,2,2,0,0,0-.82-.16,2,2,0,0,0-1.54.68,2.34,2.34,0,0,0-.45.76,2.92,2.92,0,0,0,0,1.92,2.41,2.41,0,0,0,.45.76,2,2,0,0,0,.67.5,1.94,1.94,0,0,0,.83.18,1.85,1.85,0,0,0,.9-.21,1.79,1.79,0,0,0,.64-.59l1.37,1a2.85,2.85,0,0,1-1.2,1,3.71,3.71,0,0,1-1.49.32,4.59,4.59,0,0,1-1.61-.27,3.66,3.66,0,0,1-1.27-.78,3.55,3.55,0,0,1-.84-1.24,4.55,4.55,0,0,1,0-3.24,3.56,3.56,0,0,1,.84-1.24,3.7,3.7,0,0,1,1.27-.78,4.62,4.62,0,0,1,1.61-.27,3.91,3.91,0,0,1,.66.06,3.55,3.55,0,0,1,.67.18,3.1,3.1,0,0,1,.64.34,2.61,2.61,0,0,1,.55.52Z" transform="translate(-198.35 -282.6)"/><path class="d" d="M534.12,288.49h5.07V290h-3.42v1.39H539v1.52h-3.23v1.52h3.61v1.52h-5.26Z" transform="translate(-198.35 -282.6)"/><path class="c" d="M469.86,301.41h.89v7.46h-.89Z" transform="translate(-198.35 -282.6)"/><path class="c" d="M472.6,301.41h1.12L478,307.6h0v-6.19h.88v7.46h-1.12l-4.32-6.19h0v6.19h-.89Z" transform="translate(-198.35 -282.6)"/><path class="c" d="M486.14,301.41H487l3.17,7.46h-1l-.76-1.83h-3.73l-.77,1.83h-1Zm.4,1.14h0L485,306.21h3Z" transform="translate(-198.35 -282.6)"/><path class="c" d="M499.29,302.95a2.15,2.15,0,0,0-.83-.68,2.46,2.46,0,0,0-1-.23,2.57,2.57,0,0,0-1.14.25,2.88,2.88,0,0,0-.9.68,3.11,3.11,0,0,0-.59,1,3.33,3.33,0,0,0-.21,1.18,3.44,3.44,0,0,0,.21,1.22,3.05,3.05,0,0,0,.58,1,2.75,2.75,0,0,0,.9.66,2.89,2.89,0,0,0,2.37,0,2.78,2.78,0,0,0,.94-.77l.66.56a3.08,3.08,0,0,1-1.22,1,3.92,3.92,0,0,1-1.61.32,3.8,3.8,0,0,1-1.5-.29,3.71,3.71,0,0,1-1.21-.82,3.79,3.79,0,0,1-.8-1.24,4.15,4.15,0,0,1-.29-1.57,4.2,4.2,0,0,1,.28-1.54,3.7,3.7,0,0,1,3.51-2.38,4,4,0,0,1,1.46.27,2.68,2.68,0,0,1,1.17.9Z" transform="translate(-198.35 -282.6)"/><path class="c" d="M501.48,301.41h.89v3.16h4v-3.16h.89v7.46h-.89v-3.48h-4v3.48h-.89Z" transform="translate(-198.35 -282.6)"/><path class="c" d="M511.51,301.41h.83l3.17,7.46h-1l-.76-1.83H510l-.77,1.83h-1Zm.4,1.14h0l-1.55,3.67h3Z" transform="translate(-198.35 -282.6)"/><path class="c" d="M516.5,301.41h1.12l4.32,6.19h0v-6.19h.89v7.46h-1.12l-4.32-6.19h0v6.19h-.89Z" transform="translate(-198.35 -282.6)"/><path class="c" d="M531,308.36a5.25,5.25,0,0,1-1.35.53,6.2,6.2,0,0,1-1.44.17,4.37,4.37,0,0,1-1.6-.28,3.74,3.74,0,0,1-1.26-.8,3.6,3.6,0,0,1-.83-1.24,4.19,4.19,0,0,1-.3-1.6,4,4,0,0,1,.31-1.61,3.62,3.62,0,0,1,.86-1.23,4,4,0,0,1,1.28-.79,4.27,4.27,0,0,1,1.57-.28,4.56,4.56,0,0,1,1.42.22,3,3,0,0,1,1.22.76l-.66.69a2.55,2.55,0,0,0-.92-.63,2.93,2.93,0,0,0-1.11-.22,3,3,0,0,0-1.19.23,2.88,2.88,0,0,0-1.59,1.62,3.52,3.52,0,0,0,0,2.48,3,3,0,0,0,.63,1,2.82,2.82,0,0,0,1,.65,3.28,3.28,0,0,0,1.25.23,4.35,4.35,0,0,0,.95-.11,3.79,3.79,0,0,0,.91-.32v-2.29h-1.72v-.82H531Z" transform="translate(-198.35 -282.6)"/><path class="c" d="M532.9,301.41h.89v7.46h-.89Z" transform="translate(-198.35 -282.6)"/><path class="c" d="M535.63,301.41h1.12l4.32,6.19h0v-6.19H542v7.46h-1.12l-4.32-6.19h0v6.19h-.89Z" transform="translate(-198.35 -282.6)"/><path class="c" d="M550.17,308.36a5.25,5.25,0,0,1-1.35.53,6.2,6.2,0,0,1-1.44.17,4.37,4.37,0,0,1-1.6-.28,3.74,3.74,0,0,1-1.26-.8,3.6,3.6,0,0,1-.83-1.24,4.19,4.19,0,0,1-.3-1.6,4,4,0,0,1,.31-1.61,3.62,3.62,0,0,1,.86-1.23,4,4,0,0,1,1.28-.79,4.27,4.27,0,0,1,1.57-.28,4.56,4.56,0,0,1,1.42.22,3,3,0,0,1,1.22.76l-.66.69a2.55,2.55,0,0,0-.92-.63,2.93,2.93,0,0,0-1.11-.22,3,3,0,0,0-1.19.23,2.88,2.88,0,0,0-1.59,1.62,3.52,3.52,0,0,0,0,2.48,3,3,0,0,0,.63,1,2.82,2.82,0,0,0,1,.65,3.28,3.28,0,0,0,1.25.23,4.35,4.35,0,0,0,.95-.11,3.8,3.8,0,0,0,.91-.32v-2.29h-1.72v-.82h2.6Z" transform="translate(-198.35 -282.6)"/><path class="c" d="M554.09,301.41h1l1.7,6.19h0l1.83-6.19h1l1.82,6.19h0l1.73-6.19h.93l-2.19,7.46h-1l-1.84-6.32h0l-1.85,6.32h-1Z" transform="translate(-198.35 -282.6)"/><path class="c" d="M568.56,309.06a4.06,4.06,0,0,1-1.57-.29,3.77,3.77,0,0,1-1.23-.82,3.66,3.66,0,0,1-.81-1.24,4.36,4.36,0,0,1,0-3.13,3.65,3.65,0,0,1,.81-1.24,3.77,3.77,0,0,1,1.23-.82,4.3,4.3,0,0,1,3.13,0,3.76,3.76,0,0,1,1.23.82,3.67,3.67,0,0,1,.81,1.24,4.37,4.37,0,0,1,0,3.13,3.68,3.68,0,0,1-.81,1.24,3.76,3.76,0,0,1-1.23.82A4,4,0,0,1,568.56,309.06Zm0-.82a2.9,2.9,0,0,0,1.2-.24,2.83,2.83,0,0,0,.93-.66,3,3,0,0,0,.61-1,3.49,3.49,0,0,0,0-2.41,3.07,3.07,0,0,0-.61-1,2.84,2.84,0,0,0-.93-.66,3.08,3.08,0,0,0-2.39,0,2.85,2.85,0,0,0-.93.66,3,3,0,0,0-.6,1,3.47,3.47,0,0,0,0,2.41,3,3,0,0,0,.6,1,2.83,2.83,0,0,0,.93.66A2.9,2.9,0,0,0,568.56,308.24Z" transform="translate(-198.35 -282.6)"/><path class="c" d="M573.88,301.41h1.91a9,9,0,0,1,1.07.06,2.86,2.86,0,0,1,1,.27,1.73,1.73,0,0,1,.68.62,2,2,0,0,1,.26,1.1,1.82,1.82,0,0,1-.5,1.33,2.37,2.37,0,0,1-1.37.64l2.12,3.43h-1.08l-2-3.35h-1.14v3.35h-.89Zm.89,3.29h.79l.76,0a2.56,2.56,0,0,0,.73-.14,1.27,1.27,0,0,0,.55-.36,1,1,0,0,0,.22-.71,1.16,1.16,0,0,0-.16-.64,1.05,1.05,0,0,0-.42-.37,1.75,1.75,0,0,0-.58-.17,5,5,0,0,0-.65,0h-1.24Z" transform="translate(-198.35 -282.6)"/><path class="c" d="M580.32,301.41h.89V308h3.41v.82h-4.3Z" transform="translate(-198.35 -282.6)"/><path class="c" d="M585.45,301.41h2.87a3.91,3.91,0,0,1,.78.08,3.82,3.82,0,0,1,1.6.75,3.19,3.19,0,0,1,.66.71,3.54,3.54,0,0,1,.45,1,4.53,4.53,0,0,1,0,2.45,3.54,3.54,0,0,1-.45,1,3.19,3.19,0,0,1-.66.71,3.8,3.8,0,0,1-.78.48,3.74,3.74,0,0,1-.82.27,3.84,3.84,0,0,1-.78.08h-2.87Zm.89,6.64H588a4,4,0,0,0,1.19-.17,2.54,2.54,0,0,0,.95-.52,2.45,2.45,0,0,0,.63-.9,3.85,3.85,0,0,0,0-2.63,2.45,2.45,0,0,0-.63-.9,2.54,2.54,0,0,0-.95-.52,4,4,0,0,0-1.19-.17h-1.69Z" transform="translate(-198.35 -282.6)"/><path class="c" d="M285.9,288.52h3.62l6.94,16.06h.06l7-16.06H307V309h-2.43V291.82h-.06L297.21,309h-1.48l-7.35-17.18h-.06V309H285.9Z" transform="translate(-198.35 -282.6)"/><path class="c" d="M318.79,288.52h2.29L329.78,309h-2.83l-2.08-5H314.63l-2.11,5h-2.75Zm1.1,3.12h-.06l-4.25,10.07h8.36Z" transform="translate(-198.35 -282.6)"/><path class="c" d="M346.14,292.75a5.85,5.85,0,0,0-2.29-1.87,6.74,6.74,0,0,0-2.83-.62,7.1,7.1,0,0,0-3.14.69,7.86,7.86,0,0,0-2.47,1.87,8.56,8.56,0,0,0-1.62,2.72,9.12,9.12,0,0,0-.58,3.23,9.45,9.45,0,0,0,.58,3.34,8.35,8.35,0,0,0,1.61,2.69,7.52,7.52,0,0,0,2.46,1.81,7.94,7.94,0,0,0,6.52-.07A7.61,7.61,0,0,0,347,304.4l1.82,1.53a8.42,8.42,0,0,1-3.34,2.72,10.75,10.75,0,0,1-4.41.87,10.41,10.41,0,0,1-4.11-.81,10.1,10.1,0,0,1-3.31-2.24,10.32,10.32,0,0,1-2.2-3.4,11.38,11.38,0,0,1-.8-4.31,11.52,11.52,0,0,1,.77-4.22A10.17,10.17,0,0,1,341,288a10.9,10.9,0,0,1,4,.75,7.39,7.39,0,0,1,3.23,2.46Z" transform="translate(-198.35 -282.6)"/><path class="c" d="M352.16,288.52h2.43v8.85h.35l9.31-8.85h3.5l-10.12,9.34L368.24,309h-3.56l-9.75-10.41h-.35V309h-2.43Z" transform="translate(-198.35 -282.6)"/><path class="c" d="M371.09,288.52H384v2.26H373.52v6.42h9.75v2.26h-9.75v7.29h11V309H371.09Z" transform="translate(-198.35 -282.6)"/><path class="c" d="M388.1,288.52h3.07l11.86,17h.06v-17h2.43V309h-3.07l-11.86-17h-.06v17H388.1Z" transform="translate(-198.35 -282.6)"/><path class="c" d="M409.47,306.83l11.83-16.06H409.64v-2.26h14.61v2.08l-11.83,16.14h12V309H409.47Z" transform="translate(-198.35 -282.6)"/><path class="c" d="M428.63,288.52h2.43V309h-2.43Z" transform="translate(-198.35 -282.6)"/><path class="c" d="M434.88,288.52h12.87v2.26H437.31v6.42h9.75v2.26h-9.75v7.29h11V309H434.88Z" transform="translate(-198.35 -282.6)"/><path class="c" d="M286,317.7h1.33v11.19H286Z" transform="translate(-198.35 -282.6)"/><path class="c" d="M289.51,323.25q0-.51,0-.95t0-.81h1.17c0,.2,0,.4,0,.6s0,.41,0,.62h0a2.11,2.11,0,0,1,.36-.52,2.54,2.54,0,0,1,.55-.45,2.9,2.9,0,0,1,.71-.32,3,3,0,0,1,.85-.12,3.26,3.26,0,0,1,1.26.22,2.37,2.37,0,0,1,.88.62,2.5,2.5,0,0,1,.51,1,4.32,4.32,0,0,1,.17,1.23v4.57h-1.23v-4.44a2.37,2.37,0,0,0-.41-1.47,1.51,1.51,0,0,0-1.28-.54,2.42,2.42,0,0,0-1,.21,1.83,1.83,0,0,0-.71.59,2.61,2.61,0,0,0-.41.9,4.63,4.63,0,0,0-.13,1.15v3.6h-1.23Z" transform="translate(-198.35 -282.6)"/><path class="c" d="M301.52,328.89h-1.36l-3-7.4h1.44l2.31,5.8h0l2.2-5.8h1.33Z" transform="translate(-198.35 -282.6)"/><path class="c" d="M312.38,327.55a3.75,3.75,0,0,1-1.45,1.19,4.62,4.62,0,0,1-1.83.34,3.82,3.82,0,0,1-1.57-.31,3.51,3.51,0,0,1-1.18-.83,3.62,3.62,0,0,1-.74-1.23,4.37,4.37,0,0,1-.26-1.52,4.24,4.24,0,0,1,.28-1.57,3.64,3.64,0,0,1,.79-1.23,3.55,3.55,0,0,1,1.2-.8,4,4,0,0,1,1.52-.28,3.79,3.79,0,0,1,1.42.26,3.1,3.1,0,0,1,1.11.76,3.41,3.41,0,0,1,.72,1.22,4.92,4.92,0,0,1,.25,1.64v.4h-6a2.59,2.59,0,0,0,.23.91,2.63,2.63,0,0,0,.51.76,2.36,2.36,0,0,0,.74.51,2.27,2.27,0,0,0,.93.19,2.94,2.94,0,0,0,1.36-.28,3.07,3.07,0,0,0,1-.84Zm-1.06-3a2.13,2.13,0,0,0-.62-1.52,2.22,2.22,0,0,0-1.61-.57,2.28,2.28,0,0,0-2.42,2.09Z" transform="translate(-198.35 -282.6)"/><path class="c" d="M315,326.95a3.11,3.11,0,0,0,.8.73,2.06,2.06,0,0,0,1.1.27,2.76,2.76,0,0,0,.58-.06,1.73,1.73,0,0,0,.53-.21,1.18,1.18,0,0,0,.38-.36.91.91,0,0,0,.14-.51.83.83,0,0,0-.13-.49A1.18,1.18,0,0,0,318,326a2,2,0,0,0-.51-.21l-.58-.14q-.52-.11-1-.25a3.23,3.23,0,0,1-.83-.37,1.74,1.74,0,0,1-.57-.59,1.82,1.82,0,0,1-.21-.93,1.87,1.87,0,0,1,.24-.95,2.05,2.05,0,0,1,.63-.68,3.12,3.12,0,0,1,.89-.41,3.62,3.62,0,0,1,1-.14,3.39,3.39,0,0,1,1.46.32,2.28,2.28,0,0,1,1.05,1l-1,.68a1.91,1.91,0,0,0-.62-.64,1.73,1.73,0,0,0-.94-.24,2.14,2.14,0,0,0-.51.06,1.61,1.61,0,0,0-.47.19,1.12,1.12,0,0,0-.34.32.78.78,0,0,0-.13.45.58.58,0,0,0,.15.4,1.34,1.34,0,0,0,.41.29,3.51,3.51,0,0,0,.6.22,7,7,0,0,0,.7.16,7.23,7.23,0,0,1,.93.24,2.73,2.73,0,0,1,.77.4,1.8,1.8,0,0,1,.52.63,2.07,2.07,0,0,1,.19.93,2.14,2.14,0,0,1-.25,1.08,2.1,2.1,0,0,1-.67.72,3,3,0,0,1-.95.4,4.7,4.7,0,0,1-1.08.13,4.15,4.15,0,0,1-1.64-.29,3,3,0,0,1-1.24-1.08Z" transform="translate(-198.35 -282.6)"/><path class="c" d="M325.62,322.54h-2.18v3.7q0,.36,0,.67a1.38,1.38,0,0,0,.13.54.85.85,0,0,0,.33.36,1.22,1.22,0,0,0,.63.13,2.58,2.58,0,0,0,.55-.06,2.29,2.29,0,0,0,.54-.19l0,1.12a2.81,2.81,0,0,1-.7.21,4.62,4.62,0,0,1-.74.06,2.66,2.66,0,0,1-1.06-.17,1.43,1.43,0,0,1-.62-.49,1.82,1.82,0,0,1-.29-.78,6.92,6.92,0,0,1-.07-1v-4.06H320.6v-1h1.61v-2.1h1.23v2.1h2.18Z" transform="translate(-198.35 -282.6)"/><path class="c" d="M327.42,323.25q0-.51,0-.95t0-.81h1.17c0,.2,0,.4,0,.6s0,.41,0,.62h0a2.11,2.11,0,0,1,.36-.52,2.54,2.54,0,0,1,.55-.45,2.9,2.9,0,0,1,.71-.32,3,3,0,0,1,.85-.12,2.9,2.9,0,0,1,1,.15,2.43,2.43,0,0,1,.67.36,1.77,1.77,0,0,1,.42.46q.15.25.24.43a3.43,3.43,0,0,1,.95-1,2.4,2.4,0,0,1,1.39-.37,3.62,3.62,0,0,1,1.33.21,2.12,2.12,0,0,1,.87.62,2.44,2.44,0,0,1,.47,1,5.38,5.38,0,0,1,.14,1.29v4.49h-1.23v-4.43a3.49,3.49,0,0,0-.08-.74,1.71,1.71,0,0,0-.28-.65,1.5,1.5,0,0,0-.55-.46,2,2,0,0,0-.89-.17,1.77,1.77,0,0,0-.74.16,1.86,1.86,0,0,0-.61.44,2.08,2.08,0,0,0-.41.69,2.53,2.53,0,0,0-.15.89v4.27h-1.23V324.7A3.38,3.38,0,0,0,332,323a1.2,1.2,0,0,0-1.09-.51,2.42,2.42,0,0,0-1,.21,1.83,1.83,0,0,0-.71.59,2.61,2.61,0,0,0-.41.9,4.63,4.63,0,0,0-.13,1.15v3.6h-1.23Z" transform="translate(-198.35 -282.6)"/><path class="c" d="M347.21,327.55a3.75,3.75,0,0,1-1.45,1.19,4.62,4.62,0,0,1-1.83.34,3.82,3.82,0,0,1-1.57-.31,3.51,3.51,0,0,1-1.18-.83,3.62,3.62,0,0,1-.74-1.23,4.37,4.37,0,0,1-.26-1.52,4.24,4.24,0,0,1,.28-1.57,3.64,3.64,0,0,1,.79-1.23,3.55,3.55,0,0,1,1.2-.8,4,4,0,0,1,1.52-.28,3.79,3.79,0,0,1,1.42.26,3.1,3.1,0,0,1,1.11.76,3.41,3.41,0,0,1,.72,1.22,4.92,4.92,0,0,1,.25,1.64v.4h-6a2.59,2.59,0,0,0,.23.91,2.63,2.63,0,0,0,.51.76,2.36,2.36,0,0,0,.74.51,2.27,2.27,0,0,0,.93.19,2.94,2.94,0,0,0,1.36-.28,3.07,3.07,0,0,0,1-.84Zm-1.06-3a2.13,2.13,0,0,0-.62-1.52,2.22,2.22,0,0,0-1.61-.57,2.28,2.28,0,0,0-2.42,2.09Z" transform="translate(-198.35 -282.6)"/><path class="c" d="M349.4,323.25q0-.51,0-.95t0-.81h1.17c0,.2,0,.4,0,.6s0,.41,0,.62h0a2.11,2.11,0,0,1,.36-.52,2.54,2.54,0,0,1,.55-.45,2.9,2.9,0,0,1,.71-.32,3,3,0,0,1,.85-.12,3.26,3.26,0,0,1,1.26.22,2.37,2.37,0,0,1,.88.62,2.5,2.5,0,0,1,.51,1,4.32,4.32,0,0,1,.17,1.23v4.57h-1.23v-4.44a2.37,2.37,0,0,0-.41-1.47,1.51,1.51,0,0,0-1.28-.54,2.42,2.42,0,0,0-1,.21,1.83,1.83,0,0,0-.71.59,2.61,2.61,0,0,0-.41.9,4.63,4.63,0,0,0-.13,1.15v3.6H349.4Z" transform="translate(-198.35 -282.6)"/><path class="c" d="M361.81,322.54h-2.18v3.7q0,.36,0,.67a1.38,1.38,0,0,0,.13.54.85.85,0,0,0,.33.36,1.22,1.22,0,0,0,.63.13,2.58,2.58,0,0,0,.55-.06,2.29,2.29,0,0,0,.54-.19l0,1.12a2.81,2.81,0,0,1-.7.21,4.62,4.62,0,0,1-.74.06,2.66,2.66,0,0,1-1.06-.17,1.43,1.43,0,0,1-.62-.49,1.82,1.82,0,0,1-.29-.78,6.92,6.92,0,0,1-.07-1v-4.06h-1.61v-1h1.61v-2.1h1.23v2.1h2.18Z" transform="translate(-198.35 -282.6)"/><path class="c" d="M364.19,326.95a3.11,3.11,0,0,0,.8.73,2.06,2.06,0,0,0,1.1.27,2.76,2.76,0,0,0,.58-.06,1.73,1.73,0,0,0,.53-.21,1.18,1.18,0,0,0,.38-.36.91.91,0,0,0,.14-.51.83.83,0,0,0-.13-.49,1.18,1.18,0,0,0-.36-.32,2,2,0,0,0-.51-.21l-.58-.14q-.52-.11-1-.25a3.23,3.23,0,0,1-.83-.37,1.74,1.74,0,0,1-.57-.59,1.82,1.82,0,0,1-.21-.93,1.87,1.87,0,0,1,.24-.95,2.05,2.05,0,0,1,.63-.68,3.12,3.12,0,0,1,.89-.41,3.62,3.62,0,0,1,1-.14,3.39,3.39,0,0,1,1.46.32,2.28,2.28,0,0,1,1.05,1l-1,.68a1.91,1.91,0,0,0-.62-.64,1.73,1.73,0,0,0-.94-.24,2.14,2.14,0,0,0-.51.06,1.61,1.61,0,0,0-.47.19,1.12,1.12,0,0,0-.34.32.78.78,0,0,0-.13.45.58.58,0,0,0,.15.4,1.34,1.34,0,0,0,.41.29,3.51,3.51,0,0,0,.6.22,7,7,0,0,0,.7.16,7.22,7.22,0,0,1,.93.24,2.73,2.73,0,0,1,.77.4,1.8,1.8,0,0,1,.52.63,2.07,2.07,0,0,1,.19.93,2.14,2.14,0,0,1-.25,1.08,2.1,2.1,0,0,1-.67.72,3,3,0,0,1-.95.4,4.7,4.7,0,0,1-1.08.13,4.15,4.15,0,0,1-1.64-.29,3,3,0,0,1-1.24-1.08Z" transform="translate(-198.35 -282.6)"/></svg>