<svg xmlns="http://www.w3.org/2000/svg" xmlns:xlink="http://www.w3.org/1999/xlink" viewBox="0 0 422.06 90"><defs><style>.a{fill:none;}.b{clip-path:url(#a);}.c{fill:#f1f2f2;}.d{fill:#f25022;}.e{fill:#7fba00;}.f{fill:#00a4ef;}.g{fill:#ffb900;}</style><clipPath id="a" transform="translate(-10 -10)"><rect class="a" x="-80" y="-80" width="602.5" height="270"/></clipPath></defs><title>microsoft-dark</title><g class="b"><path class="c" d="M413.68,50.74H400.11V82h-9.22V50.74h-6.48V43.29h6.48V37.9a13.39,13.39,0,0,1,4-10A13.93,13.93,0,0,1,405,24a22.72,22.72,0,0,1,2.94.17,11.71,11.71,0,0,1,2.26.51v7.87a9.48,9.48,0,0,0-1.58-.64,8.25,8.25,0,0,0-2.6-.38,5.51,5.51,0,0,0-4.41,1.79,7.89,7.89,0,0,0-1.54,5.29v4.67h13.57v-8.7l9.15-2.79V43.29h9.23v7.46h-9.23V68.85q0,3.58,1.3,5a5.19,5.19,0,0,0,4.09,1.47,6.09,6.09,0,0,0,1.9-.38,9,9,0,0,0,1.94-.9v7.53a10.71,10.71,0,0,1-2.88.9,19.68,19.68,0,0,1-4,.41q-5.76,0-8.64-3.07t-2.88-9.24ZM353.17,62.91q0,6.06,2.75,9.26t7.87,3.2q5,0,7.57-3.2t2.6-9.49q0-6.25-2.69-9.43a9.35,9.35,0,0,0-7.55-3.18,9.55,9.55,0,0,0-7.78,3.33q-2.77,3.33-2.77,9.51m-9.49.3q0-9.6,5.42-15.21t15.06-5.61q9.08,0,14.18,5.4t5.1,14.59q0,9.41-5.42,15t-14.76,5.57q-9,0-14.29-5.29t-5.29-14.44m-20.52-9.75a3.91,3.91,0,0,0,1.24,3.07,21.23,21.23,0,0,0,5.5,2.8q5.46,2.19,7.66,4.92a10.19,10.19,0,0,1,2.2,6.61,10.62,10.62,0,0,1-4.2,8.77q-4.2,3.31-11.35,3.31a27.31,27.31,0,0,1-5.33-.58,23.66,23.66,0,0,1-5-1.49v-9a22.43,22.43,0,0,0,5.35,2.75,15.65,15.65,0,0,0,5.2,1A9.25,9.25,0,0,0,329,74.8a3.09,3.09,0,0,0,1.47-2.9A4,4,0,0,0,329,68.72a22.57,22.57,0,0,0-5.78-3q-5-2.11-7.15-4.74a10.39,10.39,0,0,1-2.11-6.7,10.59,10.59,0,0,1,4.16-8.6q4.16-3.37,10.79-3.37a26.07,26.07,0,0,1,4.56.45,20.19,20.19,0,0,1,4.22,1.17v8.66a19.46,19.46,0,0,0-4.22-2.07,14.07,14.07,0,0,0-4.78-.87,7,7,0,0,0-4,1,3.22,3.22,0,0,0-1.45,2.79m-43.83,9.45q0,6.06,2.75,9.26t7.87,3.2q5,0,7.57-3.2t2.6-9.49q0-6.25-2.69-9.43a9.35,9.35,0,0,0-7.55-3.18,9.55,9.55,0,0,0-7.78,3.33q-2.77,3.33-2.77,9.51m-9.49.3q0-9.6,5.42-15.21t15.06-5.61q9.08,0,14.18,5.4t5.1,14.59q0,9.41-5.42,15t-14.76,5.57q-9,0-14.29-5.29t-5.29-14.44m-3.92-20.56a11.55,11.55,0,0,1,2,.15,8.2,8.2,0,0,1,1.47.38V52.4a8,8,0,0,0-2.09-1,10.35,10.35,0,0,0-3.33-.47,7.07,7.07,0,0,0-5.67,2.82q-2.32,2.82-2.32,8.7V82h-9.11V43.29h9.11v6.1h.15a10.68,10.68,0,0,1,3.77-5,10.22,10.22,0,0,1,6.06-1.79M231,75.37a12.57,12.57,0,0,0,4.48-.94A18.82,18.82,0,0,0,240,71.94v8.47a18.25,18.25,0,0,1-5,1.88,27,27,0,0,1-6.08.64q-8.55,0-13.89-5.4a18.79,18.79,0,0,1-5.35-13.8q0-9.34,5.46-15.38t15.48-6a21.19,21.19,0,0,1,5.18.66A17.34,17.34,0,0,1,240,44.49v8.74a18.64,18.64,0,0,0-4.31-2.39,12.46,12.46,0,0,0-4.5-.85,11.42,11.42,0,0,0-8.7,3.5q-3.32,3.5-3.31,9.45t3.18,9.15A11.49,11.49,0,0,0,231,75.37M203.34,82h-9.11V43.29h9.11ZM193.28,32.1a5,5,0,0,1,1.64-3.78,5.53,5.53,0,0,1,3.9-1.52,5.45,5.45,0,0,1,4,1.56,5.08,5.08,0,0,1,1.58,3.75,4.88,4.88,0,0,1-1.62,3.73,5.59,5.59,0,0,1-4,1.51,5.49,5.49,0,0,1-3.93-1.52,4.93,4.93,0,0,1-1.6-3.71M185.44,28V82h-9.38V39.67h-.15L159.15,82h-6.21L135.77,39.67h-.11V82H127V28h13.44L156,68h.22l16.38-40h12.88Z" transform="translate(-10 -10)"/><path class="d" d="M52.77,52.77H10V10H52.77Z" transform="translate(-10 -10)"/><path class="e" d="M100,52.77H57.22V10H100Z" transform="translate(-10 -10)"/><path class="f" d="M52.77,100H10V57.22H52.77Z" transform="translate(-10 -10)"/><path class="g" d="M100,100H57.22V57.22H100Z" transform="translate(-10 -10)"/></g></svg>