<svg xmlns="http://www.w3.org/2000/svg" viewBox="0 0 2232.53 513.05"><defs><style>.a{fill:#fff;}</style></defs><title>pagecloud_dark</title><path class="a" d="M1353.31,1068.91q48.76,0,79.52,37.34v-9.9a18.58,18.58,0,0,1-.88-3.15c-.59-6.6-.87-9.6-.87-9q0-15.29,13.63-15.29,14.48,0,14.49,18.45,0,3.53-.88,21.09-2.64,22-2.64,30.32a199.22,199.22,0,0,0,1.5,24.16l2,16.7V1184q0,19.77-15.82,19.77-17.14,0-16.7-18.73v-15.69q.88-31.36-19.72-51t-53.9-19.61q-43.38,0-67.92,33.39t-24.53,92.26q0,60.2,25.26,93.8t70.52,33.61q24.6,0,44.15-11.86t27.46-31.19q5.27-12.74,5.27-34.27,0-20.2,16.7-20.21,18,0,18,20.21,0,47-32.51,76.88t-83.92,29.88q-59.31,0-94.68-41.74t-35.37-111.15q0-71.61,36.24-115.55T1353.31,1068.91Z" transform="translate(-119.27 -993.47)"/><path class="a" d="M1544.59,1189.1v135.8q.44,22.27,11.93,22.27,2.65,0,11-2.18a55,55,0,0,1,7.07-.87q14.57,0,14.57,14.87,0,14.44-17.87,14.43a220.4,220.4,0,0,1-22.23-1.75,224.1,224.1,0,0,0-23.53-1.75,186.22,186.22,0,0,0-20.92,1.75,184.69,184.69,0,0,1-20.48,1.75H1482q-18.31,0-18.31-15.74,0-13.55,15-13.56h3.09a19.32,19.32,0,0,0,4,.62q11,2.45,12.8,2.44,7.94,0,9.93-6.8t2.43-35.34l.44-30.73V1128.15q-.44-13.16-1.31-17.56-3.06-10.08-12.24-10.09-1.31,0-11.37,1.75a45.51,45.51,0,0,1-7.87.87q-14.87,0-14.87-14,0-14.44,17.5-14.43a70,70,0,0,1,8.31.43l10.49,1.31a72.12,72.12,0,0,0,24.93-.44,96.94,96.94,0,0,1,13.12-1.31q10.06,0,10.06,12.66a36.89,36.89,0,0,1-.43,6.55Q1544.58,1127.53,1544.59,1189.1Z" transform="translate(-119.27 -993.47)"/><path class="a" d="M1685.19,1379.09q-45.92,0-73.48-31.71t-27.55-85.07q0-53.35,27.77-85.07t74.57-31.71q47.67,0,75.23,31t27.56,84.41q0,53.37-28.43,85.73T1685.19,1379.09Zm2.19-204.68q-30.62,0-48.11,21.43T1620,1256.63v5.69q0,41.11,17.28,64.51t48.33,23.4q31.92,0,50.08-23.4t18.15-65Q1753.86,1174.41,1687.38,1174.41Z" transform="translate(-119.27 -993.47)"/><path class="a" d="M1978.11,1360.72v-13.56q-23.18,31.93-68.66,31.93-51.62,0-71.73-31.93-8.75-14-9.62-32.8-.44-9.18-.44-38.48v-36.3q0-59.91-12.81-59.92a83.34,83.34,0,0,0-8.39.65,83.43,83.43,0,0,1-8.83.66q-15.46,0-15.46-14.22,0-13.78,18.81-13.78a112.11,112.11,0,0,1,12.9,1.09,109.62,109.62,0,0,0,12.9,1.09,116.82,116.82,0,0,0,13.56-1.31c4.38-.58,6.85-.88,7.44-.88q13.55,0,13.56,16.62v37.62l-1.31,32.36V1268q0,38.05,6.12,54.67,10.05,27.56,48.11,27.56c12.53,0,12.49-2.84,22.11-8.53s27.45-13.19,31.24-22.52q7-17.05,7-64.73V1202q-2.19-21-11.37-21h-13.12q-15.31,0-15.31-13.15,0-14.84,17.06-14.84,3.94,0,12,.88t12,.87a92.07,92.07,0,0,0,10.49-.87,93.33,93.33,0,0,1,10.5-.88q13.12,0,13.12,14a41.8,41.8,0,0,1-.87,9.64q-2.19,16.66-2.18,49.09v67.5q0,26.75.43,29.81,2.18,23.24,12.25,23.23a49.75,49.75,0,0,0,8.75-1.09,50.45,50.45,0,0,1,8.75-1.09q14.86,0,14.87,14.43,0,14.87-18.37,14.87a105.55,105.55,0,0,1-11.37-.87q-10.94-1.31-13.56-1.31-1.32,0-9.19.87a38.54,38.54,0,0,1-9.19,1.31Q1978.11,1373.41,1978.11,1360.72Z" transform="translate(-119.27 -993.47)"/><path class="a" d="M2143.54,1145.55q43.3,0,64.73,33.67V1135q0-17.49-.87-21.43-2.19-13.55-12.25-13.56a52.11,52.11,0,0,0-9.84,1.31,51.88,51.88,0,0,1-9.84,1.31q-16.19,0-16.18-14,0-14.43,21.87-14.43,3.5,0,12.68.87,14,1.31,14.43,1.31a84,84,0,0,0,11.37-1.09,85.65,85.65,0,0,1,11.37-1.09q12.24,0,12.24,17.53v4.82q-.44,1.32-.87,23.22,0,2.62-1.31,33.73-.89,21.91-.87,33.29v116.09q.44,28.92,2.67,35.92t10.69,7a34.75,34.75,0,0,0,8.91-.87,97,97,0,0,1,9.8-.87q16.47,0,16.47,14.43,0,14.87-19.68,14.87a122.73,122.73,0,0,1-13.34-1.09,122.11,122.11,0,0,0-13.34-1.09q-1.31,0-10.05.87a38.58,38.58,0,0,1-9.19,1.31q-11.81,0-11.81-15.74V1348q-23.12,31.06-67.17,31.05-44.5,0-71.54-32.36t-27-84.85q0-52.91,26.68-84.63T2143.54,1145.55Zm63,154.38a317.23,317.23,0,0,0,1.76-37.18q0-29.29-2.2-39.8-4-21.86-18.93-34.11a62.11,62.11,0,0,0-40.52-14.43q-30.84,0-48.23,23.18T2081,1261q0,41.56,18.06,65.39t49.33,23.84q23.78,0,39.63-13.78T2206.51,1299.93Z" transform="translate(-119.27 -993.47)"/><path class="a" d="M2324.68,1379.09a25.81,25.81,0,0,1-19.25-8.09,28,28,0,0,1,0-38.92,26.93,26.93,0,0,1,38.49,0,28,28,0,0,1,0,38.92A25.84,25.84,0,0,1,2324.68,1379.09Z" transform="translate(-119.27 -993.47)"/><path class="a" d="M348.41,1295.63q-18.81,0-31.35-5.13-5.13-2.27-8.55-1.14-1.71.57-4.56,9.12a331.49,331.49,0,0,1-44.46,100.32q-38.77,58.15-80.37,58.14-31.93,0-47.88-26.22-12-21.1-12-55.29,0-70.11,46.17-177.84,42.75-98.61,114-154.47,63.82-51.3,125.4-49.59,50.72,1.15,76.38,35.34,21.08,27.93,21.09,74.67,0,51.3-27.93,104.88-30.22,58.14-72.39,75.81a133.16,133.16,0,0,1-53.58,11.4m83.51-172.14q.85-9.68.86-19.38,0-64.4-42.18-65.55Q338.15,1038,272,1122.92q-54.72,71.26-74.1,134.52-26.23,87.21-26.22,113.43,0,23.36,14.82,23.37,27.92,0,62.13-121.41,9.11-34.76,18.81-116.28a19.25,19.25,0,0,1,9.41-14.82q8.25-5.13,16.25-10.26,10.82-8.55,20.52-8.55,10.82,0,12,13.11,1.14,15.39-.28,40.75t-6,61.28q-1.71,11.41,6.27,12.54,38.76,2.87,69-35.34a158,158,0,0,0,34.2-72.39A138,138,0,0,0,431.92,1123.49Z" transform="translate(-119.27 -993.47)"/><path class="a" d="M776.34,1348.07q-23.94,23.94-55.86,29.07-6.84,1.14-14.25,1.71t-15.39.57q-39.9,0-54.43-10.55t-14.54-27.64q0-8,4.56-25.08a5.19,5.19,0,0,0,0-3.42c-.77-.38-1.81,0-3.14,1.14a12.69,12.69,0,0,0-3.13,4q-8.55,17.1-30.78,37-31.93,28.51-61,28.5-27.94,0-43.32-18.81-15.95-17.66-16-46.17,0-37,22.8-80.37,22.79-43.88,63.84-66.69,30.78-17.1,62.13-17.67a85.47,85.47,0,0,1,42.75,9.69q9.11,5.13,12.54-1.14a55.18,55.18,0,0,1,6.84-9.12,26.21,26.21,0,0,1,9.12-6.27q5.69-1.71,21.66,1.71,15.95,2.86,19.95,6.27,5.69,6.27,1.71,17.1-8,17.1-31.92,70.68-9.13,21.1-15.11,37.34t-10,28.22q-4,12-4,19.95,0,7.42,4,11.4,9.11,9.12,38.19,9.12,10.82,0,27.93-10.26a137.83,137.83,0,0,0,17.67-12.25,75.81,75.81,0,0,0,13.68-14.54q2.84-3.42,4.56,1.71,4,9.7,2.85,22.23-1.15,9.7-4,12.54M653.22,1206.14q0-9.69-19.38-10.26-17.1-1.14-41.61,14.25a129.53,129.53,0,0,0-37.62,37Q529,1287.66,529,1315.58q0,26.8,20.52,26.79,10.82,0,25.65-14.82,2.84-2.84,8.83-10T599.64,1299q26.21-31.92,53-89.49A8.07,8.07,0,0,0,653.22,1206.14Z" transform="translate(-119.27 -993.47)"/><path class="a" d="M1046.54,1348.07q-23.94,23.94-55.86,29.07-6.28.56-15.11,1.71t-20.8,2.28q-37.06,5.13-43.89,21.66-27.93,65.54-51.3,84.36-21.66,19.37-39.9,19.38-12.55,0-21.09-7.41T790,1478.6q0-10.84,6.56-23.66T820.82,1425q15.39-14.83,29.64-22.23,4-2.29,8-5.13,7.4-16,15.11-32.49t15.67-34.77q2.84-4.56-1.71-4.56c-1.91,0-3.62,1.34-5.13,4q-8,13.68-34.77,31.92Q814,1384,788.33,1381.7q-49.59-4-49.59-61a163.56,163.56,0,0,1,20-78.66q19.94-37,55.86-62.7,36.47-25.65,73-25.65a82.74,82.74,0,0,1,43.32,12,6.68,6.68,0,0,0,5.7,3.42q6.27,0,12-12.54,2.27-4,12-8.55,4-1.14,16.53-.57t17.67,2.85q9.69,4.57,9.69,13.68,0,4-33.63,91.77-30.22,78.09-35.91,92.34a4.41,4.41,0,0,0-.57,1.71,1.65,1.65,0,0,1-.57,1.14q-1.15,2.86,0,3.42a12.65,12.65,0,0,0,4-.57q18.81-4,46.17-5.13,12.52,0,32.49-13.11,16.53-11.4,26.79-23.94,2.84-3.42,4.56,1.71,4,9.7,2.85,22.23-1.14,9.7-4,12.54M919.43,1197.3a35.22,35.22,0,0,0-16-3.7,50.93,50.93,0,0,0-21.38,5.13,116.94,116.94,0,0,0-22.23,13.68,143.83,143.83,0,0,0-21.38,20.52,211.85,211.85,0,0,0-18.81,25.65q-22.23,35.91-22.23,58.14,0,24.51,19.95,24.51,22.79,0,68.4-63.27,25.08-35.33,37.62-67.26Q926.84,1201,919.43,1197.3Z" transform="translate(-119.27 -993.47)"/><path class="a" d="M1239.33,1348.07q-23.94,23.94-55.86,29.64-25.09,5.13-56.43,5.13-65.55,0-92.34-21.66-30.78-25.65-30.78-70.68,0-39.33,22.8-84.36,16.52-32.5,46.17-48.45,24.5-13.68,50.73-13.68,14.81,0,23.37,4,33.05,14.25,33.06,55.29a118.29,118.29,0,0,1-1.71,19.38q-4.57,27.36-41,66.69a314.42,314.42,0,0,1-22.52,22.51q-11.11,10-21.94,18-2.86,2.86-2.85,3.42,0,2.29,6.84,5.7,25.08,14.25,79.23,9.12,35.33-3.42,59.85-36.48,2.84-3.42,4.56,1.71,4,9.7,2.85,22.23-1.14,9.7-4,12.54M1102.25,1199a72.1,72.1,0,0,0-21.95,27.64q-18.25,38.2-18.24,63.84,0,18.25,11.4,10.26,38.18-23.94,58.14-58.14,12.53-21.08,12.54-34.77,0-19.38-16.53-19.38Q1116.21,1188.47,1102.25,1199Z" transform="translate(-119.27 -993.47)"/></svg>