<svg xmlns="http://www.w3.org/2000/svg" viewBox="0 0 334.8 237.03"><defs><style>.a{fill:#44c8f5;}.b{fill:#636466;}</style></defs><title>points</title><path class="a" d="M96.14,48.21A26.82,26.82,0,1,1,69.32,21.38,26.82,26.82,0,0,1,96.14,48.21" transform="translate(-42.5 -21.38)"/><path class="a" d="M154.86,48.21A26.82,26.82,0,1,1,128,21.38a26.82,26.82,0,0,1,26.82,26.82" transform="translate(-42.5 -21.38)"/><path class="a" d="M96.14,106.92A26.82,26.82,0,1,1,69.32,80.1a26.82,26.82,0,0,1,26.82,26.82" transform="translate(-42.5 -21.38)"/><path class="a" d="M154.86,106.92A26.82,26.82,0,1,1,128,80.1a26.82,26.82,0,0,1,26.82,26.82" transform="translate(-42.5 -21.38)"/><path class="a" d="M69.27,138.82c-14.87,0-26.77,11.23-26.77,26.72s11.91,26.92,26.77,26.92a26.43,26.43,0,0,0,26.87-26.92c0-15.49-12-26.72-26.87-26.72" transform="translate(-42.5 -21.38)"/><path class="a" d="M227.79,130.44a7.21,7.21,0,1,0-7.21-7.21,7.21,7.21,0,0,0,7.21,7.21" transform="translate(-42.5 -21.38)"/><path class="b" d="M187,138.82c-14.86,0-26.77,11.23-26.77,26.72s11.91,26.92,26.77,26.92a26.43,26.43,0,0,0,26.87-26.92C213.87,150.05,201.86,138.82,187,138.82Zm0,43.67a16.85,16.85,0,1,1,16.88-16.91A16.55,16.55,0,0,1,187,182.49Z" transform="translate(-42.5 -21.38)"/><path class="b" d="M128,138.82c-14.84,0-26.73,11.2-26.77,26.64h0v42.46h9.59V186.45a26.9,26.9,0,0,0,17.18,6,26.43,26.43,0,0,0,26.87-26.92C154.86,150.06,142.85,138.82,128,138.82Zm0,43.67a16.85,16.85,0,1,1,16.88-16.91A16.55,16.55,0,0,1,128,182.49Z" transform="translate(-42.5 -21.38)"/><path class="b" d="M295.68,180.6V158.41c0-13.07-5.47-19.65-17.62-19.65a20.86,20.86,0,0,0-19.25,11.75h-.2a21.53,21.53,0,0,0,.2-2.94v-1.92c0-3.75-2.13-5.67-6.48-5.67H242.9v8.41h4.15a2,2,0,0,1,2.23,2.23v40.62h9.83v-24a21,21,0,0,1,.91-6.89,16.61,16.61,0,0,1,16.21-12.56c8.2,0,9.62,5.67,9.62,12.86v24.11c0,4.56,1.92,6.48,6.48,6.48h7.57v-8.41h-2A2,2,0,0,1,295.68,180.6Zm-68-40.62H218v8.41h4.15a2,2,0,0,1,2.23,2.23v34.14c0,4.56,1.92,6.48,6.48,6.48h3.24V146.46C234.11,141.9,232.19,140,227.63,140ZM320,171.38v-23.5h12.26V140H320V125.9h-9.62V140h-6.89v7.9h6.69v24.62c0,17.12,13.07,19.14,19.55,19.14a25.19,25.19,0,0,0,3.44-.2v-8.71a11.81,11.81,0,0,1-2.33.2C327.13,182.93,320,181.61,320,171.38Zm29.3-18.64c0-4.05,3.75-6.08,9.52-6.08a13.25,13.25,0,0,1,4.09.67,6.26,6.26,0,0,0-.14,1.3,6.36,6.36,0,1,0,11.61-3.6c-2.73-4.83-10.79-6.27-15.87-6.27-10.43,0-19,4.56-19,14.38,0,16.51,28,15.5,28,24.71,0,4.46-4.15,6.59-8.91,6.59-9.42,0-15.5-7.6-15.5-7.6L338,183.43s6.79,9,20.46,9c10.74,0,18.84-5.87,18.84-15C377.29,160.34,349.34,162.47,349.34,152.74Z" transform="translate(-42.5 -21.38)"/><path class="b" d="M169.7,231.68h2.48l7.91,11.84L188,231.68h2.48v21.7H188V235.81l-7.91,11.63H180l-7.91-11.6v17.55H169.7Z" transform="translate(-42.5 -21.38)"/><path class="b" d="M193.15,245.45v-.06a8.36,8.36,0,0,1,16.71-.06v.06a8.32,8.32,0,0,1-8.4,8.37A8.21,8.21,0,0,1,193.15,245.45Zm14.26,0v-.06a6.07,6.07,0,0,0-6-6.26,5.92,5.92,0,0,0-5.86,6.2v.06a6,6,0,0,0,5.92,6.23A5.91,5.91,0,0,0,207.42,245.45Z" transform="translate(-42.5 -21.38)"/><path class="b" d="M212.37,237.36h2.39v4.19a6.86,6.86,0,0,1,6.54-4.46v2.57h-.19c-3.5,0-6.36,2.51-6.36,7.35v6.39h-2.39Z" transform="translate(-42.5 -21.38)"/><path class="b" d="M231.25,251.68a6.63,6.63,0,0,0,5.05-2.26l1.49,1.33a8.27,8.27,0,0,1-6.6,3,8,8,0,0,1-8-8.37c0-4.65,3.26-8.37,7.69-8.37,4.74,0,7.47,3.78,7.47,8.5,0,.22,0,.46,0,.84H225.61A5.6,5.6,0,0,0,231.25,251.68Zm4.68-7.26c-.28-2.91-2-5.39-5.12-5.39-2.76,0-4.87,2.29-5.21,5.39Z" transform="translate(-42.5 -21.38)"/><path class="b" d="M252.69,249.14v-9.67h-2.23v-2.11h2.23v-4.84h2.39v4.84h5.09v2.11h-5.09v9.36a2.37,2.37,0,0,0,2.7,2.67,5,5,0,0,0,2.33-.56v2a6,6,0,0,1-2.88.68C254.64,253.67,252.69,252.39,252.69,249.14Z" transform="translate(-42.5 -21.38)"/><path class="b" d="M260.86,245.45v-.06a8.36,8.36,0,0,1,16.71-.06v.06a8.32,8.32,0,0,1-8.4,8.37A8.21,8.21,0,0,1,260.86,245.45Zm14.26,0v-.06a6.07,6.07,0,0,0-6-6.26,5.92,5.92,0,0,0-5.86,6.2v.06a6,6,0,0,0,5.92,6.23A5.91,5.91,0,0,0,275.13,245.45Z" transform="translate(-42.5 -21.38)"/><path class="b" d="M280,256.18l1.08-1.86a10.24,10.24,0,0,0,6.17,2c3.53,0,5.83-2,5.83-5.71v-1.89a7.6,7.6,0,0,1-6.29,3.38,7.41,7.41,0,0,1-7.53-7.5v-.06a7.59,7.59,0,0,1,13.8-4.34v-2.88h2.39V250.6a7.72,7.72,0,0,1-2,5.67,8.43,8.43,0,0,1-6.11,2.14A12.57,12.57,0,0,1,280,256.18Zm13.15-11.57v-.06a5.62,5.62,0,0,0-5.89-5.43,5.3,5.3,0,0,0-5.55,5.4v.06a5.43,5.43,0,0,0,5.55,5.46A5.66,5.66,0,0,0,293.16,244.61Z" transform="translate(-42.5 -21.38)"/><path class="b" d="M306.92,251.68a6.64,6.64,0,0,0,5.05-2.26l1.49,1.33a8.27,8.27,0,0,1-6.6,3,8,8,0,0,1-8-8.37c0-4.65,3.25-8.37,7.69-8.37,4.74,0,7.47,3.78,7.47,8.5,0,.22,0,.46,0,.84H301.28A5.6,5.6,0,0,0,306.92,251.68Zm4.68-7.26c-.28-2.91-2-5.39-5.12-5.39-2.76,0-4.87,2.29-5.21,5.39Z" transform="translate(-42.5 -21.38)"/><path class="b" d="M318.11,249.14v-9.67h-2.23v-2.11h2.23v-4.84h2.39v4.84h5.08v2.11H320.5v9.36a2.37,2.37,0,0,0,2.7,2.67,5,5,0,0,0,2.33-.56v2a6,6,0,0,1-2.88.68C320.07,253.67,318.11,252.39,318.11,249.14Z" transform="translate(-42.5 -21.38)"/><path class="b" d="M328.87,230.75h2.39v9.4a6.07,6.07,0,0,1,5.49-3.13c3.88,0,6.14,2.6,6.14,6.42v10H340.5V244c0-3-1.61-4.84-4.43-4.84a4.72,4.72,0,0,0-4.81,5v9.18h-2.39Z" transform="translate(-42.5 -21.38)"/><path class="b" d="M354.1,251.68a6.64,6.64,0,0,0,5.05-2.26l1.49,1.33a8.27,8.27,0,0,1-6.6,3,8,8,0,0,1-8-8.37c0-4.65,3.25-8.37,7.69-8.37,4.74,0,7.47,3.78,7.47,8.5,0,.22,0,.46,0,.84H348.46A5.6,5.6,0,0,0,354.1,251.68Zm4.68-7.26c-.28-2.91-2-5.39-5.12-5.39-2.76,0-4.87,2.29-5.21,5.39Z" transform="translate(-42.5 -21.38)"/><path class="b" d="M364.46,237.36h2.39v4.19a6.86,6.86,0,0,1,6.54-4.46v2.57h-.19c-3.5,0-6.36,2.51-6.36,7.35v6.39h-2.39Z" transform="translate(-42.5 -21.38)"/><path class="b" d="M373,250.13h2.85v3.26H373Z" transform="translate(-42.5 -21.38)"/></svg>