<?xml version="1.0" encoding="utf-8"?>
<!-- Generator: Adobe Illustrator 16.0.0, SVG Export Plug-In . SVG Version: 6.00 Build 0)  -->
<!DOCTYPE svg PUBLIC "-//W3C//DTD SVG 1.1//EN" "http://www.w3.org/Graphics/SVG/1.1/DTD/svg11.dtd">
<svg version="1.1" id="Layer_1" xmlns="http://www.w3.org/2000/svg" xmlns:xlink="http://www.w3.org/1999/xlink" x="0px" y="0px" viewBox="0 0 235 33" enable-background="new 0 0 235 33" xml:space="preserve">
<g>
<g>
<g>
<path fill="#A9BD38" d="M33.252,15.84c-0.35,0-0.693,0.048-1.019,0.126c-1.281-5.077-5.526-8.969-10.784-9.746
c-0.079-0.886,0.26-2.277,2.477-3.616L23.86,2.474c0,0-3.712,1.174-4.552,3.492c0.037-0.724-0.227-1.811-1.839-2.583
c0,0-0.128,0.043-0.062,0.101c0.32,0.296,1.339,1.282,0.906,2.653c-5.59,0.508-10.166,4.526-11.506,9.831
c-0.326-0.08-0.666-0.126-1.019-0.126c-2.345,0-4.255,1.905-4.255,4.259c0,2.347,1.911,4.255,4.255,4.255
c0.55,0,1.073-0.108,1.555-0.299c0.367,0.913,0.831,1.778,1.383,2.575l3.549-2.392l-0.046-0.029
c-0.935-1.2-1.506-2.969-1.6-4.729c-0.106-1.94,0.367-3.869,1.606-5.002c2.555-2.175,5.337-1.184,7.081,0.901h0.464
c1.744-2.043,4.496-2.993,7.029-0.841c1.225,1.125,1.702,3.02,1.609,4.935c-0.084,1.775-0.66,3.573-1.598,4.781l3.499,2.375
c0.549-0.798,1.015-1.661,1.38-2.575c0.48,0.19,1.004,0.299,1.553,0.299c2.352,0,4.256-1.908,4.256-4.26
C37.509,17.747,35.604,15.84,33.252,15.84 M5.934,20.951c-0.467,0-0.851-0.381-0.851-0.854c0-0.472,0.383-0.853,0.851-0.853
c0.18,0,0.346,0.055,0.484,0.146c0.003,0.452,0.038,0.897,0.091,1.336C6.354,20.864,6.155,20.951,5.934,20.951 M33.105,20.952
c-0.221,0-0.42-0.084-0.571-0.219c0.051-0.441,0.086-0.891,0.092-1.343c0.137-0.094,0.302-0.146,0.479-0.146
c0.469,0,0.854,0.382,0.854,0.855C33.96,20.574,33.575,20.952,33.105,20.952"/>
</g>
<g>
<path fill="#FFFFFF" d="M46.824,20.757c1.307,1.394,3.144,2.369,5.176,2.369c2.451-0.024,4.179-0.944,4.179-2.617
c0-3.898-11.278-0.137-11.278-7.265c0-3.12,3.257-5.263,7.24-5.263c2.896,0,5.234,0.917,6.96,2.67l-2.395,2.146
c-1.586-1.559-3.033-2.087-4.731-2.087c-2.674,0-3.677,1.307-3.677,2.367c0,3.924,11.276,0,11.276,7.266
c0,3.646-3.704,5.848-7.71,5.848c-2.451,0-5.29-0.922-7.49-3.23L46.824,20.757z"/>
<path fill="#FFFFFF" d="M61.552,12.351h2.896v7.548c0,1.975,1.447,3.396,3.259,3.396c1.811,0,3.257-1.421,3.257-3.396v-7.548
h2.894v7.799c0,3.784-2.949,6.041-6.151,6.041c-3.203,0-6.155-2.257-6.155-6.041V12.351z"/>
<path fill="#FFFFFF" d="M76.867,12.351h2.728v1.476h0.055c0.474-1.113,1.476-1.839,2.648-1.839c0.637,0,1.194,0.17,1.584,0.42
l-1.029,2.868c-0.278-0.223-0.807-0.39-1.086-0.39c-1.058,0-2.003,0.807-2.003,2.033v8.91h-2.896L76.867,12.351L76.867,12.351z"
/>
<polygon fill="#FFFFFF" points="84.995,12.351 88.227,12.351 91.204,20.063 91.259,20.063 94.239,12.351 97.471,12.351
91.232,26.191 "/>
<path fill="#FFFFFF" d="M111.616,22.903c-1.616,2.031-3.844,3.258-6.268,3.288c-4.706,0-7.433-3.539-7.433-7.102
c0-3.564,2.727-7.102,7.433-7.102c2.813,0,6.988,2.314,6.988,7.576v0.53h-11.193c0.168,2.061,2.09,3.537,4.123,3.537
c1.558,0,2.895-0.757,3.896-2.093L111.616,22.903z M108.941,17.697c-0.611-2.062-2.144-3.146-3.981-3.146
c-1.839,0-3.342,1.142-3.817,3.146H108.941z"/>
<path fill="#FFFFFF" d="M114.399,12.351h2.894v7.909c0,2.258,1.394,3.201,3.173,3.201c2.256,0,3.346-1.393,3.346-3.478v-7.632
h2.895v13.061c0,4.118-3.651,5.928-6.154,5.928c-3.035,0-4.4-1.139-5.71-2.643l2.451-1.504c0.92,0.891,1.839,1.422,3.093,1.422
c1.919,0,3.59-1.171,3.59-3.537v-0.725h-0.055c-1.143,1.281-2.202,1.839-4.066,1.839c-3.009,0-5.456-2.257-5.456-6.042
L114.399,12.351L114.399,12.351z"/>
<polygon fill="#FFFFFF" points="130.019,7.981 137.785,15.833 145.556,7.981 145.556,25.829 142.324,25.829 142.324,15.023
137.785,19.728 133.248,15.023 133.248,25.829 130.019,25.829 "/>
<path fill="#FFFFFF" d="M155.052,11.989c4.706,0,7.433,3.537,7.433,7.103c0,3.562-2.727,7.101-7.433,7.101
c-4.709,0-7.436-3.539-7.436-7.101C147.616,15.525,150.343,11.989,155.052,11.989 M155.052,23.459c2.531,0,4.37-1.947,4.37-4.368
c0-2.421-1.84-4.371-4.37-4.371c-2.535,0-4.371,1.949-4.371,4.371C150.678,21.515,152.516,23.459,155.052,23.459"/>
<path fill="#FFFFFF" d="M164.518,12.351h2.895v1.7h0.056c0.81-1.251,2.282-2.062,4.122-2.062c2.841,0,5.232,2.368,5.232,5.708
v8.132h-2.894v-7.489c0-2.449-1.282-3.453-3.204-3.453c-1.863,0-3.314,1.197-3.314,3.397v7.545h-2.894L164.518,12.351
L164.518,12.351z"/>
<polygon fill="#FFFFFF" points="180.945,20.205 179.051,20.205 179.051,17.475 180.945,17.475 180.945,8.34 183.841,8.34
183.841,17.475 185.316,17.475 188.853,12.351 192.357,12.351 187.793,18.698 192.583,25.829 189.158,25.829 185.593,20.205
183.841,20.205 183.841,25.829 180.945,25.829 "/>
<path fill="#FFFFFF" d="M207.172,22.903c-1.614,2.031-3.84,3.258-6.264,3.288c-4.703,0-7.436-3.539-7.436-7.102
c0-3.564,2.732-7.102,7.436-7.102c2.811,0,6.99,2.314,6.99,7.576v0.53h-11.195c0.168,2.061,2.09,3.537,4.122,3.537
c1.561,0,2.894-0.757,3.899-2.093L207.172,22.903z M204.5,17.697c-0.611-2.062-2.145-3.146-3.982-3.146s-3.341,1.142-3.815,3.146
H204.5z"/>
<path fill="#FFFFFF" d="M209.681,12.351h2.894v7.909c0,2.258,1.393,3.201,3.176,3.201c2.255,0,3.34-1.393,3.34-3.478v-7.632
h2.896v13.061c0,4.118-3.647,5.928-6.153,5.928c-3.036,0-4.398-1.139-5.708-2.643l2.449-1.504c0.92,0.891,1.84,1.422,3.091,1.422
c1.92,0,3.591-1.171,3.591-3.537v-0.725H219.2c-1.142,1.281-2.197,1.839-4.064,1.839c-3.007,0-5.455-2.257-5.455-6.042V12.351
L209.681,12.351z"/>
</g>
</g>
<g>
<path fill="#BDBDB0" d="M227.406,13.445h-1.125v3.28h0.532v-1.394h0.31c0.183,0,0.321,0.042,0.419,0.115
c0.141,0.101,0.328,0.355,0.559,0.761l0.287,0.518h0.644l-0.4-0.644c-0.185-0.3-0.348-0.518-0.484-0.646
c-0.07-0.067-0.159-0.126-0.276-0.177c0.283-0.019,0.511-0.117,0.678-0.296c0.175-0.177,0.261-0.386,0.261-0.629
c0-0.171-0.056-0.33-0.156-0.477c-0.104-0.154-0.24-0.257-0.412-0.323C228.069,13.472,227.793,13.445,227.406,13.445
M226.813,14.881v-0.993h0.599c0.261,0,0.435,0.018,0.529,0.054c0.099,0.043,0.173,0.096,0.226,0.176
c0.053,0.078,0.077,0.161,0.077,0.256c0,0.158-0.056,0.274-0.167,0.369c-0.109,0.093-0.32,0.139-0.623,0.139L226.813,14.881
M227.617,17.582c-0.438,0-0.861-0.112-1.262-0.338c-0.409-0.224-0.72-0.539-0.947-0.938c-0.226-0.405-0.336-0.829-0.336-1.263
c0-0.441,0.115-0.869,0.338-1.281c0.231-0.404,0.548-0.719,0.957-0.94c0.402-0.218,0.818-0.328,1.249-0.328
c0.421,0,0.84,0.11,1.246,0.328c0.411,0.221,0.725,0.534,0.95,0.94c0.229,0.412,0.34,0.839,0.34,1.281
c0,0.435-0.111,0.858-0.332,1.263c-0.225,0.4-0.537,0.715-0.943,0.938C228.478,17.469,228.06,17.582,227.617,17.582
M227.617,11.989c-0.514,0-1.014,0.134-1.499,0.398c-0.49,0.257-0.863,0.636-1.14,1.125c-0.275,0.485-0.412,0.993-0.412,1.53
c0,0.522,0.137,1.027,0.402,1.511c0.271,0.485,0.645,0.861,1.131,1.132c0.485,0.266,0.996,0.401,1.519,0.401
c0.528,0,1.035-0.136,1.513-0.401c0.482-0.271,0.856-0.646,1.128-1.132c0.271-0.483,0.407-0.989,0.407-1.511
c0-0.537-0.137-1.045-0.411-1.53c-0.27-0.49-0.653-0.868-1.146-1.125C228.628,12.124,228.128,11.989,227.617,11.989"/>
</g>
</g>
</svg>
