<?xml version="1.0" encoding="UTF-8"?>
<svg width="280px" height="150px" viewBox="0 0 280 150" version="1.1" xmlns="http://www.w3.org/2000/svg" xmlns:xlink="http://www.w3.org/1999/xlink">
    <!-- Generator: Sketch 40.3 (33839) - http://www.bohemiancoding.com/sketch -->
    <title>Untitled</title>
    <desc>Created with Sketch.</desc>
    <defs>
        <rect id="path-1" x="0" y="0" width="280" height="150"></rect>
        <mask id="mask-2" maskContentUnits="userSpaceOnUse" maskUnits="objectBoundingBox" x="0" y="0" width="280" height="150" fill="white">
            <use xlink:href="#path-1"></use>
        </mask>
        <path d="M2.37949315,3.78113398 C2.62651842,3.78113398 2.8391766,3.7388338 3.0174677,3.65442659 C3.1957588,3.57001938 3.38202458,3.43500648 3.57645492,3.24958103 L4.03822697,3.7316872 C3.58860681,4.23851676 3.04272086,4.49193155 2.40075897,4.49193155 C1.75879709,4.49193155 1.22601239,4.2817827 0.802784636,3.86148501 C0.379556879,3.44118732 0.167848065,2.90963437 0.167848065,2.26682614 C0.167848065,1.62401791 0.38354422,1.08840877 0.814936532,0.659805562 C1.24632884,0.231202359 1.79107556,0.016997333 2.44936656,0.016997333 C3.10765755,0.016997333 3.65753085,0.264231267 4.09898645,0.758699136 L3.64329035,1.2655287 C3.44069545,1.06774155 3.24930309,0.929638224 3.06911326,0.851411862 C2.88892342,0.773185499 2.67721461,0.733975743 2.43417669,0.733975743 C2.00487298,0.733975743 1.64430344,0.875169497 1.35265793,1.15736386 C1.06101243,1.43955821 0.915189674,1.80017208 0.915189674,2.23901232 C0.915189674,2.67785255 1.06006306,3.04464727 1.34961996,3.33920333 C1.63917686,3.63375938 1.98246792,3.78113398 2.37949315,3.78113398 L2.37949315,3.78113398 Z M7.98303624,3.45972987 L7.55771988,4.44248476 L6.79215042,4.44248476 L8.66354242,0.122071755 L9.42911187,0.122071755 L11.3005039,4.44248476 L10.5349344,4.44248476 L10.1096181,3.45972987 L7.98303624,3.45972987 L7.98303624,3.45972987 Z M9.81797255,2.7860174 L9.04632715,1.00593307 L8.27468174,2.7860174 L9.81797255,2.7860174 L9.81797255,2.7860174 Z M17.5420215,0.122071755 L18.2589834,0.122071755 L18.2589834,4.44248476 L17.481262,4.44248476 L15.0751866,1.2902521 L15.0751866,4.44248476 L14.3582247,4.44248476 L14.3582247,0.122071755 L15.0751866,0.122071755 L17.5420215,3.3484746 L17.5420215,0.122071755 L17.5420215,0.122071755 Z M22.50759,3.45972987 L22.0822737,4.44248476 L21.3167042,4.44248476 L23.1880962,0.122071755 L23.9536657,0.122071755 L25.8250577,4.44248476 L25.0594882,4.44248476 L24.6341719,3.45972987 L22.50759,3.45972987 L22.50759,3.45972987 Z M24.3425264,2.7860174 L23.570881,1.00593307 L22.7992355,2.7860174 L24.3425264,2.7860174 L24.3425264,2.7860174 Z M32.096955,0.68761938 C32.5061322,1.06465113 32.7106258,1.58905748 32.7106258,2.26064529 C32.7106258,2.93223309 32.5122081,3.46378605 32.1151829,3.85530416 C31.7181577,4.24682228 31.1105629,4.44248476 30.2923985,4.44248476 L28.8827785,4.44248476 L28.8827785,0.122071755 L30.3410061,0.122071755 C31.1025882,0.122071755 31.6877779,0.31058763 32.096955,0.68761938 L32.096955,0.68761938 Z M31.987588,2.27918783 C31.987588,1.2902521 31.4306894,0.795784226 30.3167023,0.795784226 L29.5997404,0.795784226 L29.5997404,3.75641059 L30.3956896,3.75641059 C30.9100566,3.75641059 31.3040438,3.63182787 31.5774615,3.38246926 C31.8508791,3.13311066 31.987588,2.76535019 31.987588,2.27918783 L31.987588,2.27918783 Z M36.7040427,3.45972987 L36.2787263,4.44248476 L35.5131568,4.44248476 L37.3845488,0.122071755 L38.1501183,0.122071755 L40.0215103,4.44248476 L39.2559408,4.44248476 L38.8306245,3.45972987 L36.7040427,3.45972987 L36.7040427,3.45972987 Z M38.538979,2.7860174 L37.7673336,1.00593307 L36.9956882,2.7860174 L38.538979,2.7860174 L38.538979,2.7860174 Z" id="path-3"></path>
        <path d="M1.26075922,1.25162179 C1.33670857,1.14596792 1.37468325,1.03915513 1.37468325,0.930990284 C1.37468325,0.822825438 1.33424022,0.730692167 1.25316428,0.654783623 C1.17208835,0.578875079 1.06955673,0.540824231 0.945569415,0.540824231 C0.727784652,0.540824231 0.546835324,0.654204169 0.402531558,0.880770891 L0.0417721428,0.668304229 C0.158164523,0.490604839 0.286708798,0.356750841 0.427215097,0.266549086 C0.567721396,0.17634733 0.748670723,0.131343028 0.970252954,0.131343028 C1.19183518,0.131343028 1.38607565,0.202809087 1.55316422,0.345741205 C1.72025279,0.488673323 1.80379708,0.68375635 1.80379708,0.930990284 C1.80379708,1.07005937 1.76829075,1.20275446 1.69746799,1.3288824 C1.62664522,1.45501033 1.49620221,1.6172576 1.30632883,1.81562421 L0.683544155,2.46075025 L1.88734136,2.46075025 L1.88734136,2.89727267 L0.072151883,2.89727267 L0.072151883,2.51096965 L0.877214999,1.68814421 C1.05702509,1.50271876 1.18480987,1.35727567 1.26075922,1.25162179 L1.26075922,1.25162179 Z M4.26455603,1.52975997 C4.26455603,1.83107633 4.31715096,2.07444723 4.42215094,2.25987268 C4.52715091,2.44529813 4.69120151,2.53801086 4.91392298,2.53801086 C5.13664445,2.53801086 5.29936594,2.44587759 5.40189756,2.2618042 C5.50442918,2.07773081 5.55569499,1.8335873 5.55569499,1.52975997 C5.55569499,1.22593264 5.50442918,0.981789132 5.40189756,0.797715741 C5.29936594,0.613642351 5.13664445,0.52150908 4.91392298,0.52150908 C4.69120151,0.52150908 4.52715091,0.614221806 4.42215094,0.799647257 C4.31715096,0.985072707 4.26455603,1.22844361 4.26455603,1.52975997 L4.26455603,1.52975997 Z M3.83164474,1.52975997 C3.83164474,1.10482664 3.92145484,0.765459439 4.10126493,0.511851505 C4.28107502,0.258243571 4.55183445,0.131343028 4.91392298,0.131343028 C5.27601151,0.131343028 5.54677095,0.258243571 5.72658103,0.511851505 C5.90639112,0.765459439 5.99620123,1.10482664 5.99620123,1.52975997 C5.99620123,1.95469329 5.90639112,2.2940605 5.72658103,2.54766843 C5.54677095,2.80127637 5.27601151,2.92817691 4.91392298,2.92817691 C4.55183445,2.92817691 4.28107502,2.80127637 4.10126493,2.54766843 C3.92145484,2.2940605 3.83164474,1.95469329 3.83164474,1.52975997 L3.83164474,1.52975997 Z M7.84936538,0.197014541 L8.81392213,0.197014541 L8.81392213,2.89727267 L8.38860577,2.89727267 L8.38860577,0.602632715 L7.84936538,0.602632715 L7.84936538,0.197014541 L7.84936538,0.197014541 Z M12.0493645,0.556276352 C11.8139215,0.556276352 11.6405671,0.637399987 11.5291114,0.799647257 C11.4176557,0.961894526 11.3606937,1.18073519 11.3582254,1.45636239 C11.4214532,1.38431688 11.5125924,1.31671385 11.631643,1.25355331 C11.7506936,1.19039276 11.8822759,1.15890907 12.0265797,1.15890907 C12.264491,1.15890907 12.463858,1.23945325 12.6246808,1.40034846 C12.7855035,1.56124367 12.86582,1.77506239 12.86582,2.04161147 C12.86582,2.30816056 12.7790479,2.52255874 12.6056935,2.68480601 C12.4323391,2.84705328 12.2139847,2.92817691 11.9506303,2.92817691 C11.5253139,2.92817691 11.2315798,2.7350254 11.0696178,2.34872238 C10.9784786,2.12717759 10.932909,1.87743269 10.932909,1.59929451 C10.932909,1.32115634 10.9619596,1.08937452 11.0202508,0.903949073 C11.0785419,0.718523622 11.1582887,0.571728473 11.2594912,0.463563627 C11.4569595,0.252449025 11.6994278,0.146795149 11.9867063,0.146795149 C12.2739847,0.146795149 12.5341112,0.238155813 12.7670858,0.421070294 L12.5430352,0.757153924 C12.4847441,0.705582471 12.406896,0.659226108 12.309491,0.618084836 C12.212086,0.576943564 12.1253138,0.556276352 12.0493645,0.556276352 L12.0493645,0.556276352 Z M11.5841747,1.69007572 C11.4816431,1.77641445 11.4303773,1.88844233 11.4303773,2.02615935 C11.4303773,2.16387638 11.4797443,2.28247141 11.5784785,2.38155813 C11.6772127,2.48064486 11.8012,2.5302848 11.9506303,2.5302848 C12.1000607,2.5302848 12.224048,2.48585995 12.3227821,2.39701025 C12.4215163,2.30816056 12.4708834,2.19478062 12.4708834,2.05706359 C12.4708834,1.91934657 12.4253138,1.8021036 12.3341745,1.70552784 C12.2430353,1.60895209 12.1209467,1.56066421 11.9677189,1.56066421 C11.8144911,1.56066421 11.6867063,1.603737 11.5841747,1.69007572 L11.5841747,1.69007572 Z" id="path-5"></path>
        <path d="M4.40848005,3.48155599 C4.96082171,3.68166096 5.37626465,4.15604107 5.65518864,4.90450317 C5.93411263,5.65296528 5.92385947,6.28321866 5.62404941,6.79545647 C5.32442922,7.30769428 4.73411289,7.73359336 3.85367005,8.07315372 L3.0609487,8.37871941 L3.69113844,10.0693746 L2.36164506,10.5819987 L0.103291117,4.52225633 L2.20822737,3.71044053 C3.12284742,3.35774587 3.85632828,3.28145102 4.40848005,3.48155599 L4.40848005,3.48155599 Z M4.32132817,6.24188424 C4.41246739,5.99851333 4.39291044,5.70202576 4.2626573,5.35222838 C4.13240416,5.00262414 3.93607509,4.79421366 3.67367009,4.72680378 C3.41145495,4.65939391 3.06151832,4.7099996 2.62405006,4.87862087 L1.8656958,5.17124541 L2.62480956,7.2084144 L3.51968278,6.8634458 C3.96284724,6.69250671 4.22999908,6.48525514 4.32132817,6.24188424 L4.32132817,6.24188424 Z M13.3594908,7.57617488 L11.9711366,7.88830772 L11.4284785,5.38969977 L8.44309943,2.04450875 L9.94708644,1.70630045 L11.8021493,3.75814895 L12.6345542,1.10231567 L14.1385412,0.764107378 L12.8168327,5.07756693 L13.3594908,7.57617488 L13.3594908,7.57617488 Z M21.5796789,5.53437025 C22.2761344,5.47661795 22.8229697,5.14922614 23.2201848,4.55200167 L24.2046783,5.42871637 C23.5499949,6.3137366 22.7337292,6.79680853 21.7556915,6.87773901 C20.7776537,6.95886265 19.9471476,6.71124241 19.2639832,6.1352646 C18.5808187,5.5592868 18.201072,4.79228215 18.1243631,3.8344438 C18.0478442,2.87641231 18.3062618,2.05030329 18.8999959,1.35630991 C19.4937299,0.662316532 20.256831,0.276592964 21.1894891,0.19933236 C22.2311344,0.113186786 23.1355013,0.444441627 23.9023999,1.19348319 L23.1026532,2.28285771 C22.6091723,1.75304312 22.029299,1.51585306 21.3632232,1.57109439 C20.8302486,1.61513294 20.388793,1.82991742 20.0386665,2.21544783 C19.6883501,2.60097825 19.5374008,3.09409406 19.5854388,3.69479526 C19.6334767,4.29549646 19.8506919,4.76272996 20.2370842,5.09668893 C20.6234765,5.43045474 21.0710081,5.57647728 21.5796789,5.53437025 L21.5796789,5.53437025 Z M32.4698664,2.68615807 C32.1343601,2.25330553 31.7014488,2.01785384 31.1711325,1.97980299 C30.6408161,1.94175214 30.1796137,2.11307753 29.7879049,2.49397231 C29.3960063,2.87486709 29.1801202,3.35349654 29.1402468,3.9300538 C29.1003734,4.50661106 29.2480949,5.00977075 29.583791,5.43953286 C29.9194872,5.86948812 30.3525883,6.10358776 30.8829047,6.14144545 C31.413221,6.1794963 31.8742336,6.00971612 32.2657525,5.63191176 C32.6574613,5.25410741 32.8731574,4.77702318 32.9132207,4.20046591 C32.9530941,3.62390865 32.8053726,3.11920375 32.4698664,2.68615807 L32.4698664,2.68615807 Z M30.7911958,7.39886179 C29.8517024,7.33164506 29.0829051,6.95577222 28.4846141,6.27162957 C27.886323,5.58748692 27.6201206,4.77064918 27.6860066,3.82111635 C27.7517028,2.87158352 28.127842,2.10090899 28.814614,1.50870645 C29.5011961,0.916697072 30.3142339,0.65439732 31.2537274,0.721614046 C32.1932208,0.789023923 32.9620181,1.16470361 33.5603092,1.84884627 C34.1586002,2.53318207 34.4248026,3.35001981 34.3589166,4.29935949 C34.2932204,5.24889232 33.9170812,6.01976 33.2303092,6.61176938 C32.5437271,7.20397191 31.7306893,7.46627167 30.7911958,7.39886179 L30.7911958,7.39886179 Z M43.4639146,4.05579543 L44.802332,4.5438893 L42.6523958,10.6441935 L41.3141682,10.1560996 L39.8042951,5.2915788 L38.4571435,9.11424036 L37.118916,8.62614649 L39.2686623,2.52564916 L40.521257,2.98245248 L42.0799276,7.98295196 L43.4639146,4.05579543 L43.4639146,4.05579543 Z" id="path-7"></path>
        <path d="M0.144493639,0.673905623 C0.0647468214,0.146408846 0.367594857,-0.0656715138 0.822531467,0.201070723 L15.8139839,8.99236176 L2.93449303,19.112342 L0.144493639,0.673905623 L0.144493639,0.673905623 Z" id="path-9"></path>
        <path d="M26.1873361,7.18806004 C26.1767398,7.11478554 26.0685659,7.02044821 25.8601842,6.91752822 L11.8574025,0 L0,7.33975743 L25.7642982,7.33975743 C26.0327248,7.33975743 26.1750936,7.29046752 26.1873361,7.21119199 L26.1873361,7.18806003 L26.1873361,7.18806004 Z" id="path-11"></path>
        <path d="M14.477845,0 L0.475063188,6.91752822 C0.00303797402,7.1506621 0.0451898636,7.33975743 0.571139116,7.33975743 L26.3352474,7.33975743 L14.477845,0 L14.477845,0 Z" id="path-13"></path>
        <path d="M0.41530241,0.00386303022 C0.203151249,0.0124283121 0.0900887006,0.214716195 0.142784779,0.566706534 L1.64961989,10.6233331 L16.6667052,10.6233331 L0.795379574,0.139069088 C0.662731686,0.0514613714 0.543536645,0.00774098883 0.443920607,0.00386303021 L0.415298572,0.00386303022 L0.41530241,0.00386303022 Z" id="path-15"></path>
        <path d="M16.2514446,0.00386303022 C16.4636381,0.0124283121 16.5767435,0.214716195 16.5239205,0.566706534 L15.0172752,10.6233331 L0,10.6233331 L15.8713257,0.139069088 C16.0039736,0.0514613714 16.1231859,0.00774098883 16.2228208,0.00386303021 L16.2514446,0.00386303022 L16.2514446,0.00386303022 Z" id="path-17"></path>
        <path d="M15.1275916,0.649761684 C15.1921486,0.120526543 14.8788575,-0.086145574 14.4301867,0.186777511 L0,8.96493424 L12.8794909,19.0851077 L15.1275916,0.649761684 L15.1275916,0.649761684 Z" id="path-19"></path>
        <path d="M10.625504,0.555696898 C10.8393014,0.0693413925 11.1856305,0.0685687865 11.3998076,0.555696898 L22.0253117,24.7233934 L0,24.7233934 L10.625504,0.555696898 L10.625504,0.555696898 Z" id="path-21"></path>
        <path d="M0.436518892,0.501421323 C0.445253068,0.525565262 11.0196811,24.5302419 11.0196811,24.5302419 L5.19531533,22.4420809 C2.32594886,21.413356 0,18.0716417 0,14.9734915 L0,0.0017383636 C0,0.0017383636 0.230506279,-0.0560139383 0.436518892,0.501421323 L0.436518892,0.501421323 Z" id="path-23"></path>
    </defs>
    <g id="Page-1" stroke="none" stroke-width="1" fill="none" fill-rule="evenodd">
        <use id="Rectangle" stroke="#337DD2" mask="url(#mask-2)" stroke-width="10" xlink:href="#path-1"></use>
        <text id="Myles-Braithwaite" font-family="Montserrat-Bold, Montserrat" font-size="20" font-weight="bold" fill="#337DD2">
            <tspan x="10" y="29">{{ meta.speakers[0] }}</tspan>
        </text>
        <text id="Awesome-talk-about-p" font-family="Montserrat-Regular, Montserrat" font-size="12" font-weight="normal" fill="#9B9B9B">
            <tspan x="10" y="102">{{ meta.title[0] }}</tspan>
        </text>
        <text id="Sat.-Nov.-19-|-9:30a" font-family="Montserrat-Regular, Montserrat" font-size="12" font-weight="normal" fill="#9B9B9B">
            <tspan x="10" y="117">{{ meta.date[0] }} | {{ meta.start_time[0] }}</tspan>
        </text>
        <text id="Room-1160" font-family="Montserrat-Regular, Montserrat" font-size="12" font-weight="normal" fill="#9B9B9B">
            <tspan x="10" y="132">{{ meta.rooms[0] }}</tspan>
        </text>
        <g id="pycon-logo" transform="translate(220.000000, 10.000000)">
            <g id="Group-3" transform="translate(1.329114, 39.634690)">
                <mask id="mask-4" fill="white">
                    <use xlink:href="#path-3"></use>
                </mask>
                <g id="Clip-2"></g>
                <polygon id="Fill-1" fill="#187FD6" mask="url(#mask-4)" points="0.159493636 4.49270415 40.0329027 4.49270415 40.0329027 -0.00386303022 0.159493636 -0.00386303022"></polygon>
            </g>
            <g id="Group-6" transform="translate(14.810123, 46.974448)">
                <mask id="mask-6" fill="white">
                    <use xlink:href="#path-5"></use>
                </mask>
                <g id="Clip-5"></g>
                <polygon id="Fill-4" fill="#187FD6" mask="url(#mask-6)" points="0.0303797402 2.94749206 12.8810099 2.94749206 12.8810099 0.119753937 0.0303797402 0.119753937"></polygon>
            </g>
            <g id="Group-9" transform="translate(0.000000, 0.038630)">
                <mask id="mask-8" fill="white">
                    <use xlink:href="#path-7"></use>
                </mask>
                <g id="Clip-8"></g>
                <polyline id="Fill-7" fill="#187FD5" mask="url(#mask-8)" points="-0.74848085 -1.1755201 45.8358128 -0.348445326 45.6185977 12.3159198 -0.965885866 11.488845"></polyline>
            </g>
            <polygon id="Fill-10" fill="#187FD6" points="19.5569578 36.7374174 23.3544253 36.7374174 23.3544253 34.8059023 19.5569578 34.8059023"></polygon>
            <g id="Group-14" transform="translate(11.962023, 15.683903)">
                <mask id="mask-10" fill="white">
                    <use xlink:href="#path-9"></use>
                </mask>
                <g id="Clip-13"></g>
                <polygon id="Fill-12" fill="#EF4D74" mask="url(#mask-10)" points="0.121518961 19.1258626 15.8202497 19.1258626 15.8202497 0.0733975743 0.121518961 0.0733975743"></polygon>
            </g>
            <g id="Group-17" transform="translate(14.240503, 27.659296)">
                <mask id="mask-12" fill="white">
                    <use xlink:href="#path-11"></use>
                </mask>
                <g id="Clip-16"></g>
                <polygon id="Fill-15" fill="#EA9636" mask="url(#mask-12)" points="-0.0151898701 7.35907258 26.1873361 7.35907258 26.1873361 -0.0115890907 -0.0151898701 -0.0115890907"></polygon>
            </g>
            <g id="Group-20" transform="translate(2.088607, 27.659296)">
                <mask id="mask-14" fill="white">
                    <use xlink:href="#path-13"></use>
                </mask>
                <g id="Clip-19"></g>
                <polygon id="Fill-18" fill="#EA9636" mask="url(#mask-14)" points="0.129113896 7.35907258 26.3544246 7.35907258 26.3544246 -0.0115890907 0.129113896 -0.0115890907"></polygon>
            </g>
            <g id="Group-23" transform="translate(5.696201, 24.375721)">
                <mask id="mask-16" fill="white">
                    <use xlink:href="#path-15"></use>
                </mask>
                <g id="Clip-22"></g>
                <polygon id="Fill-21" fill="#FFD300" mask="url(#mask-16)" points="0.121518961 10.6426483 16.6860723 10.6426483 16.6860723 0.00386303022 0.121518961 0.00386303022"></polygon>
            </g>
            <g id="Group-26" transform="translate(20.506325, 24.375721)">
                <mask id="mask-18" fill="white">
                    <use xlink:href="#path-17"></use>
                </mask>
                <g id="Clip-25"></g>
                <polygon id="Fill-24" fill="#FFD300" mask="url(#mask-18)" points="-0.0151898701 10.6426483 16.5493635 10.6426483 16.5493635 0.00386303022 -0.0151898701 0.00386303022"></polygon>
            </g>
            <g id="Group-29" transform="translate(15.759490, 15.683903)">
                <mask id="mask-20" fill="white">
                    <use xlink:href="#path-19"></use>
                </mask>
                <g id="Clip-28"></g>
                <polygon id="Fill-27" fill="#EF4D74" mask="url(#mask-20)" points="-0.00759493506 19.1026845 15.1443005 19.1026845 15.1443005 0.0502193929 -0.00759493506 0.0502193929"></polygon>
            </g>
            <g id="Group-32" transform="translate(10.443036, 10.275660)">
                <mask id="mask-22" fill="white">
                    <use xlink:href="#path-21"></use>
                </mask>
                <g id="Clip-31"></g>
                <polygon id="Fill-30" fill="#187FD6" mask="url(#mask-22)" points="-0.0227848052 24.7427086 22.0329066 24.7427086 22.0329066 0.17383636 -0.0227848052 0.17383636"></polygon>
            </g>
            <g id="Group-35" transform="translate(21.455692, 10.468812)">
                <mask id="mask-24" fill="white">
                    <use xlink:href="#path-23"></use>
                </mask>
                <g id="Clip-34"></g>
                <polygon id="Fill-33" fill="#08CAFF" mask="url(#mask-24)" points="-0.00759493506 24.5495571 11.0202508 24.5495571 11.0202508 -0.0193151511 -0.00759493506 -0.0193151511"></polygon>
            </g>
        </g>
    </g>
</svg>
