<svg xmlns="http://www.w3.org/2000/svg" xmlns:xlink="http://www.w3.org/1999/xlink" viewBox="0 0 260 103.02"><defs><style>.a{fill:#1c7cab;}.b{fill:none;}.c{isolation:isolate;}.d{fill:#208cc1;}.e{fill:url(#a);}.f{fill:url(#b);}.g{fill:url(#c);}</style><linearGradient id="a" x1="8.15" y1="66.48" x2="12.7" y2="71.03" gradientTransform="matrix(1, 0, 0, -1, -3.58, 109.51)" gradientUnits="userSpaceOnUse"><stop offset="0" stop-color="#006c9c" stop-opacity="0"/><stop offset="0.03" stop-color="#006c9c" stop-opacity="0.1"/><stop offset="0.07" stop-color="#006c9c" stop-opacity="0.23"/><stop offset="0.12" stop-color="#006c9c" stop-opacity="0.38"/><stop offset="0.18" stop-color="#1c7cab" stop-opacity="0.57"/><stop offset="0.32" stop-color="#1c7cab"/><stop offset="0.52" stop-color="#006c9c" stop-opacity="0.71"/><stop offset="0.68" stop-color="#006c9c" stop-opacity="0.48"/><stop offset="0.82" stop-color="#006c9c" stop-opacity="0.26"/><stop offset="0.96" stop-color="#006c9c" stop-opacity="0.05"/><stop offset="1" stop-color="#006c9c" stop-opacity="0"/></linearGradient><linearGradient id="b" x1="-285.3" y1="-319.9" x2="-285.3" y2="-326.27" gradientTransform="matrix(-1, 0, 0, 1, -273.97, 359.62)" gradientUnits="userSpaceOnUse"><stop offset="0" stop-color="#006c9c"/><stop offset="0.13" stop-color="#006c9c" stop-opacity="0.79"/><stop offset="0.29" stop-color="#006c9c" stop-opacity="0.52"/><stop offset="0.47" stop-color="#006c9c" stop-opacity="0.22"/><stop offset="0.6" stop-color="#006c9c" stop-opacity="0"/></linearGradient><linearGradient id="c" x1="-346.27" y1="-2845.07" x2="-346.27" y2="-2851.12" gradientTransform="matrix(1, 0, 0, -1, 357.59, -2803.59)" xlink:href="#b"/></defs><title>logo</title><polygon class="a" points="5.83 38.03 8.68 38.03 8.68 43.1 0 43.1 5.83 38.03"/><rect class="b" x="109.9" y="87.83" width="150.1" height="13.44"/><g class="c"><path class="a" d="M115.72,98.95a6.79,6.79,0,0,1,.4-2.28,6.33,6.33,0,0,1,1.17-2,6,6,0,0,1,1.9-1.46,5.65,5.65,0,0,1,2.56-.56,5.26,5.26,0,0,1,2.9.77,4.83,4.83,0,0,1,1.79,2l-1,.61a3.87,3.87,0,0,0-.73-1.06,3.94,3.94,0,0,0-2-1.08,5,5,0,0,0-1.06-.12,4.25,4.25,0,0,0-2,.47,4.66,4.66,0,0,0-1.48,1.22,5.31,5.31,0,0,0-.9,1.69A6.16,6.16,0,0,0,117,99a5.66,5.66,0,0,0,.37,2,5.72,5.72,0,0,0,1,1.71,4.8,4.8,0,0,0,1.5,1.18,4.13,4.13,0,0,0,1.89.44,4.73,4.73,0,0,0,1.1-.13,4.29,4.29,0,0,0,1.09-.43,4.64,4.64,0,0,0,1-.73,3.81,3.81,0,0,0,.75-1.07l1,.54a3.9,3.9,0,0,1-.86,1.26,5.63,5.63,0,0,1-1.24.92,6.13,6.13,0,0,1-1.44.57,5.94,5.94,0,0,1-1.5.2,5.08,5.08,0,0,1-2.4-.57,6.29,6.29,0,0,1-1.88-1.5,6.92,6.92,0,0,1-1.23-2.1A6.76,6.76,0,0,1,115.72,98.95Z" transform="translate(-3.58 -4.49)"/><path class="a" d="M141.35,105.4l5.32-12.72h1L153,105.4h-1.34l-1.65-4h-5.71l-1.63,4Zm5.84-11.25-2.62,6.29h5.16Z" transform="translate(-3.58 -4.49)"/><path class="a" d="M170.08,95V105.4h-1.24V92.68h1l8.42,10.59V92.7h1.24v12.7H178.4Z" transform="translate(-3.58 -4.49)"/><path class="a" d="M195.34,105.4l5.32-12.72h1L207,105.4h-1.34l-1.65-4H198.3l-1.63,4Zm5.84-11.25-2.62,6.29h5.16Z" transform="translate(-3.58 -4.49)"/><path class="a" d="M222.84,105.4V92.68h4.3a6.62,6.62,0,0,1,2.67.5,5.41,5.41,0,0,1,1.91,1.36,5.63,5.63,0,0,1,1.14,2,7.9,7.9,0,0,1,.38,2.46,7.57,7.57,0,0,1-.43,2.62,5.76,5.76,0,0,1-1.22,2,5.38,5.38,0,0,1-1.92,1.29,6.67,6.67,0,0,1-2.53.46ZM232,99a6.57,6.57,0,0,0-.32-2.1,4.76,4.76,0,0,0-.94-1.66,4.21,4.21,0,0,0-1.51-1.08,5.17,5.17,0,0,0-2.06-.38h-3.06v10.5h3.06a5.09,5.09,0,0,0,2.09-.4,4.25,4.25,0,0,0,1.51-1.11,4.83,4.83,0,0,0,.92-1.67A6.68,6.68,0,0,0,232,99Z" transform="translate(-3.58 -4.49)"/><path class="a" d="M247.9,105.4l5.32-12.72h1l5.32,12.72h-1.34l-1.65-4h-5.71l-1.63,4Zm5.84-11.25-2.62,6.29h5.16Z" transform="translate(-3.58 -4.49)"/></g><path class="d" d="M121.47,72.25a24.94,24.94,0,0,1-8-18.63,25.13,25.13,0,0,1,8-18.68,25.63,25.63,0,0,1,18.41-7.77q10.42,0,17.65,5.73a1.34,1.34,0,0,1,.17,1.89,1.22,1.22,0,0,1-1.89.27,25.43,25.43,0,0,0-16-5.18,22.87,22.87,0,0,0-16.47,7,22.63,22.63,0,0,0-7.12,16.79,22.63,22.63,0,0,0,7.13,16.79,23.94,23.94,0,0,0,17.39,7,24.32,24.32,0,0,0,15.12-5.29,1.2,1.2,0,0,1,1.78.38,1.27,1.27,0,0,1-.05,1.89,27.57,27.57,0,0,1-36.06-2.11Z" transform="translate(-3.58 -4.49)"/><path class="d" d="M169.9,34.94a24,24,0,0,1,35.36,0,26.26,26.26,0,0,1,7.34,18.68,26.24,26.24,0,0,1-7.34,18.68,24,24,0,0,1-35.36,0,26.32,26.32,0,0,1-7.29-18.68A26.34,26.34,0,0,1,169.9,34.94Zm1.94,35.48a21.27,21.27,0,0,0,31.48,0,23.56,23.56,0,0,0,6.59-16.79,23.57,23.57,0,0,0-6.59-16.79,21.27,21.27,0,0,0-31.48,0,23.66,23.66,0,0,0-6.54,16.79A23.65,23.65,0,0,0,171.84,70.42Z" transform="translate(-3.58 -4.49)"/><path class="d" d="M221.89,80.08a.68.68,0,0,0-.48-.22c-.18,0-.27-.14-.27-.43a.74.74,0,0,1-.22-.54V28.47c0-.86.45-1.3,1.35-1.3s1.35.43,1.35,1.3v9.72a21.78,21.78,0,0,1,7.78-8,21.14,21.14,0,0,1,25.91,3.24,20.62,20.62,0,0,1,6.26,15.12V78.68c0,.94-.45,1.4-1.35,1.4s-1.35-.46-1.35-1.4V48.55a18.63,18.63,0,1,0-37.26,0V78.68c0,.94-.43,1.4-1.3,1.4h-.43Z" transform="translate(-3.58 -4.49)"/><path class="d" d="M105.79,27.87a2.75,2.75,0,0,0-3.67,0,2.33,2.33,0,0,0-.76,1.78V58.38a16.12,16.12,0,0,1-4.86,11.56A16.26,16.26,0,0,1,68.75,58.38V29.65A2.33,2.33,0,0,0,68,27.87a2.75,2.75,0,0,0-3.67,0,2.33,2.33,0,0,0-.75,1.78V58.38a20.77,20.77,0,0,0,6.26,15.17,21.22,21.22,0,0,0,15.55,6.37q9.29.05,16-7.51V82.67a19.9,19.9,0,0,1-20,19.65,19.09,19.09,0,0,1-8.64-2,2.63,2.63,0,0,0-3.4,1.35c-.69,1.33-.31,2.47,1.13,3.4a26.37,26.37,0,0,0,10.91,2.48,24.44,24.44,0,0,0,17.82-7.23,23.78,23.78,0,0,0,7.35-17.6v-53A2.34,2.34,0,0,0,105.79,27.87Z" transform="translate(-3.58 -4.49)"/><polygon class="e" points="5.83 38.03 2.48 40.94 4.96 43.1 8.68 43.1 8.68 38.03 5.83 38.03"/><path class="d" d="M51.4,10.81A20.69,20.69,0,0,0,36.23,4.49H23.44a2.58,2.58,0,0,0-2.59,2.59h0v.1h0a2.58,2.58,0,0,0,2.59,2.59H36.27a15.69,15.69,0,0,1,11.46,4.8,15.69,15.69,0,0,1,4.81,11.5,15.69,15.69,0,0,1-4.81,11.5,16.06,16.06,0,0,1-11.5,4.92H17.55V7.08A2.58,2.58,0,0,0,15,4.49h-.11a2.58,2.58,0,0,0-2.59,2.59V42.5H3.58l5.83,5.09h2.85v29.9a2.58,2.58,0,0,0,2.59,2.59,2.68,2.68,0,0,0,1.89-.75,2.41,2.41,0,0,0,.81-1.83V47.59H36.23A20.7,20.7,0,0,0,51.4,41.26,20.76,20.76,0,0,0,57.72,26,20.75,20.75,0,0,0,51.4,10.81Z" transform="translate(-3.58 -4.49)"/><rect class="f" x="8.68" y="36.21" width="5.29" height="1.8"/><rect class="g" x="8.68" y="43.1" width="5.29" height="1.71"/></svg>