<?xml version="1.0" encoding="UTF-8"?>
<svg width="237px" height="259px" viewBox="0 0 237 259" version="1.1" xmlns="http://www.w3.org/2000/svg" xmlns:xlink="http://www.w3.org/1999/xlink">
    <!-- Generator: Sketch 40.1 (33804) - http://www.bohemiancoding.com/sketch -->
    <title>Group</title>
    <desc>Created with Sketch.</desc>
    <defs></defs>
    <g id="Logo" stroke="none" stroke-width="1" fill="none" fill-rule="evenodd">
        <g id="Group" transform="translate(0.000000, -2.000000)">
            <text id="CANADA-Copy-17" font-family="Montserrat-Regular, Montserrat" font-size="32" font-weight="normal" letter-spacing="13" fill="#2E7BD5">
                <tspan x="5.22" y="230">CANAD</tspan>
                <tspan x="193.036" y="230">A</tspan>
            </text>
            <text id="2016-copy-8" font-family="Montserrat-Regular, Montserrat" font-size="20" font-weight="normal" letter-spacing="8" fill="#2E7BD5">
                <tspan x="76.22" y="259.543866">201</tspan>
                <tspan x="133.38" y="259.543866">6</tspan>
            </text>
            <path d="M23.0440648,21.2338775 C25.969968,22.2193163 28.2011022,24.6363359 29.7375342,28.485009 C31.2739661,32.3336821 31.2762018,35.597433 29.7442412,38.2763597 C28.2122806,40.9552863 25.1430864,43.214202 20.5365665,45.0531747 L16.3907193,46.7082418 L19.8610213,55.4011472 L12.9066969,58.1773888 L0.466999047,27.0166664 L11.4780125,22.6209505 C16.2628493,20.7107918 20.1181615,20.2484388 23.0440648,21.2338775 L23.0440648,21.2338775 Z M22.8337847,35.5307932 C23.2922035,34.262428 23.1625186,32.729254 22.4447261,30.9312253 C21.7269335,29.1331965 20.6744021,28.0717989 19.2871003,27.7470005 C17.8997985,27.422202 16.0619751,27.7165755 13.7735749,28.6301296 L9.8060437,30.2140111 L13.9882025,40.6900765 L18.6689977,38.8214524 C20.9871174,37.8960339 22.3753659,36.7991585 22.8337847,35.5307932 L22.8337847,35.5307932 Z M70.5484443,41.6073029 L63.2661207,43.3502622 L60.1824235,30.4661512 L44.1593845,13.4236722 L52.0485684,11.5354663 L62.0024163,21.9855771 L66.1463999,8.16127587 L74.0355838,6.27306997 L67.4647471,28.7231919 L70.5484443,41.6073029 Z M113.650214,30.2816345 C117.312344,29.9192215 120.162304,28.1740849 122.200181,25.0461724 L127.46374,29.4934289 C124.096522,34.1356245 119.841525,36.7111607 114.698621,37.2201147 C109.555718,37.7290686 105.159729,36.5241505 101.510523,33.605324 C97.8613174,30.6864975 95.7917229,26.7512254 95.3016774,21.7993895 C94.811632,16.8475535 96.0984414,12.5479677 99.1621442,8.90050284 C102.225847,5.25303803 106.209673,3.18667745 111.113742,2.70135912 C116.591014,2.15931526 121.382983,3.79130819 125.489793,7.59738685 L121.376408,13.3102492 C118.729976,10.6137506 115.655354,9.43884686 112.152447,9.78550281 C109.350122,10.0628276 107.044454,11.2154868 105.235372,13.2435152 C103.426291,15.2715435 102.675393,17.8379436 102.982657,20.9427925 C103.28992,24.0476414 104.475916,26.4464789 106.540682,28.1393769 C108.605447,29.8322749 110.975267,30.5463536 113.650214,30.2816345 L113.650214,30.2816345 Z M170.739087,14.537632 C168.933406,12.3270793 166.632551,11.1478138 163.836452,10.9998002 C161.040353,10.8517866 158.627855,11.7815471 156.598885,13.7891097 C154.569915,15.7966723 153.476365,18.2943319 153.318202,21.2821636 C153.160039,24.2699952 153.984208,26.8611597 155.790735,29.0557346 C157.597261,31.2503096 159.898539,32.4215864 162.694638,32.5696 C165.490738,32.7176136 167.902813,31.7958418 169.930937,29.8042569 C171.959061,27.8126721 173.052188,25.3230011 173.210351,22.3351695 C173.368514,19.3473378 172.544768,16.7481847 170.739087,14.537632 L170.739087,14.537632 Z M162.32559,39.0872041 C157.372501,38.8250086 153.289919,36.950592 150.077724,33.4638982 C146.865528,29.9772045 145.389705,25.7733534 145.650209,20.852219 C145.910713,15.9310845 147.822113,11.9065387 151.384466,8.77846075 C154.946819,5.65038284 159.204477,4.21746316 164.157567,4.47965872 C169.110657,4.74185427 173.193238,6.61627081 176.405434,10.1029646 C179.617629,13.5896583 181.093453,17.7935094 180.832949,22.7146439 C180.572445,27.6357783 178.661045,31.6603242 175.098691,34.7884021 C171.536338,37.91648 167.27868,39.3493997 162.32559,39.0872041 L162.32559,39.0872041 Z M229.275408,18.3002521 L236.579545,19.9494122 L229.19004,52.6775638 L221.885903,51.0284038 L210.924714,27.0003126 L206.29438,47.5080814 L198.990243,45.8589214 L206.379749,13.1307697 L213.215672,14.6742144 L224.518216,39.3698777 L229.275408,18.3002521 Z" id="PYCON-Copy-15" fill="#2D7BD5" transform="translate(118.523272, 30.388694) scale(-1, -1) rotate(-179.000000) translate(-118.523272, -30.388694) "></path>
            <path d="M61.7611482,86.4887803 C61.3407776,83.7577797 62.9361551,82.659983 65.3315099,84.0408101 L144.287109,129.555585 L76.4550781,181.950116 L61.7611482,86.4887803 Z" id="Triangle-Copy-20" fill="#EF5073"></path>
            <path d="M138.449219,144.543866 L212.196847,180.024236 C214.683438,181.220548 214.460762,182.190351 211.691659,182.190351 L76,182.190351 L138.449219,144.543866 Z" id="Triangle-Copy-21" fill="#E89937"></path>
            <path d="M66.4492188,144.543866 L140.196847,180.024236 C142.683438,181.220548 142.460762,182.190351 139.691659,182.190351 L4,182.190351 L66.4492188,144.543866 Z" id="Triangle-Copy-22" fill="#E89937" transform="translate(74.349609, 163.367108) scale(-1, 1) translate(-74.349609, -163.367108) "></path>
            <path d="M23.7595651,130.478496 C23.3400689,127.753175 24.8842004,126.755396 27.2041564,128.247113 L110.778274,181.984755 L31.6876897,181.984755 L23.7595651,130.478496 Z" id="Triangle-Copy-23" fill="#FFD60D"></path>
            <path d="M106,181.984755 L185.090584,181.984755 L193.018709,130.478496 C193.438205,127.753175 191.894073,126.755396 189.574117,128.247113 L106,181.984755 Z" id="Triangle-Copy-24" fill="#FFD60D"></path>
            <path d="M81.3451308,86.3473144 C80.9247603,83.6163138 82.5201378,82.5185172 84.9154926,83.8993443 L163.871092,129.414119 L96.0390608,181.80865 L81.3451308,86.3473144 Z" id="Triangle-Copy-25" fill="#EF5073" transform="translate(122.435546, 132.176258) scale(-1, 1) translate(-122.435546, -132.176258) "></path>
            <path d="M108.952786,58.0971535 C110.083431,55.5824424 111.916888,55.5831517 113.047214,58.0971535 L169,182.543866 L53,182.543866 L108.952786,58.0971535 Z" id="Triangle-2-Copy-5" fill="#2E7BD5"></path>
            <rect id="Rectangle-Copy" fill="#2E7BD5" x="101" y="181.543866" width="20" height="10"></rect>
            <path d="M111,57.7548849 C111,54.9919933 111.916888,54.7915126 113.047214,57.3055143 L169,181.752227 L138.407695,171.203156 C123.270843,165.983552 111,148.766548 111,132.756931 L111,57.7548849 Z" id="Triangle-2-Copy-4" fill="#23C7FF"></path>
        </g>
    </g>
</svg>