<?xml version="1.0" encoding="UTF-8"?>
<svg width="237px" height="229px" viewBox="0 0 237 229" version="1.1" xmlns="http://www.w3.org/2000/svg" xmlns:xlink="http://www.w3.org/1999/xlink">
    <!-- Generator: Sketch 40.1 (33804) - http://www.bohemiancoding.com/sketch -->
    <title>Group 2</title>
    <desc>Created with Sketch.</desc>
    <defs></defs>
    <g id="Logo" stroke="none" stroke-width="1" fill="none" fill-rule="evenodd">
        <g id="Group-2" transform="translate(0.000000, -2.000000)">
            <path d="M18.532,226.576 C19.8333398,226.576 20.9533286,226.357336 21.892,225.92 C22.8306714,225.482664 23.8119949,224.784005 24.836,223.824 L27.268,226.32 C24.8999882,228.944013 22.0253502,230.256 18.644,230.256 C15.2626498,230.256 12.4573445,229.168011 10.228,226.992 C7.99865552,224.815989 6.884,222.064017 6.884,218.736 C6.884,215.407983 8.01998864,212.634678 10.292,210.416 C12.5640114,208.197322 15.433316,207.088 18.9,207.088 C22.366684,207.088 25.262655,208.367987 27.588,210.928 L25.188,213.552 C24.121328,212.527995 23.1133381,211.813335 22.164,211.408 C21.2146619,211.002665 20.1000064,210.8 18.82,210.8 C16.5586554,210.8 14.6600077,211.530659 13.124,212.992 C11.5879923,214.453341 10.82,216.319989 10.82,218.592 C10.82,220.864011 11.582659,222.762659 13.108,224.288 C14.633341,225.813341 16.4413229,226.576 18.532,226.576 L18.532,226.576 Z M48.044,224.912 L45.804,230 L41.772,230 L51.628,207.632 L55.66,207.632 L65.516,230 L61.484,230 L59.244,224.912 L48.044,224.912 Z M57.708,221.424 L53.644,212.208 L49.58,221.424 L57.708,221.424 Z M98.388,207.632 L102.164,207.632 L102.164,230 L98.068,230 L85.396,213.68 L85.396,230 L81.62,230 L81.62,207.632 L85.396,207.632 L98.388,224.336 L98.388,207.632 Z M124.54,224.912 L122.3,230 L118.268,230 L128.124,207.632 L132.156,207.632 L142.012,230 L137.98,230 L135.74,224.912 L124.54,224.912 Z M134.204,221.424 L130.14,212.208 L126.076,221.424 L134.204,221.424 Z M175.044,210.56 C177.198677,212.51201 178.276,215.226649 178.276,218.704 C178.276,222.181351 177.230677,224.933323 175.14,226.96 C173.049323,228.986677 169.849355,230 165.54,230 L158.116,230 L158.116,207.632 L165.796,207.632 C169.806687,207.632 172.889323,208.60799 175.044,210.56 L175.044,210.56 Z M174.468,218.8 C174.468,213.679974 171.534696,211.12 165.668,211.12 L161.892,211.12 L161.892,226.448 L166.084,226.448 C168.793347,226.448 170.867993,225.802673 172.308,224.512 C173.748007,223.221327 174.468,221.317346 174.468,218.8 L174.468,218.8 Z M199.308,224.912 L197.068,230 L193.036,230 L202.892,207.632 L206.924,207.632 L216.78,230 L212.748,230 L210.508,224.912 L199.308,224.912 Z M208.972,221.424 L204.908,212.208 L200.844,221.424 L208.972,221.424 Z" id="CANADA-Copy-17" fill="#2E7BD5"></path>
            <path d="M23.0440648,21.2338775 C25.969968,22.2193163 28.2011022,24.6363359 29.7375342,28.485009 C31.2739661,32.3336821 31.2762018,35.597433 29.7442412,38.2763597 C28.2122806,40.9552863 25.1430864,43.214202 20.5365665,45.0531747 L16.3907193,46.7082418 L19.8610213,55.4011472 L12.9066969,58.1773888 L0.466999047,27.0166664 L11.4780125,22.6209505 C16.2628493,20.7107918 20.1181615,20.2484388 23.0440648,21.2338775 L23.0440648,21.2338775 Z M22.8337847,35.5307932 C23.2922035,34.262428 23.1625186,32.729254 22.4447261,30.9312253 C21.7269335,29.1331965 20.6744021,28.0717989 19.2871003,27.7470005 C17.8997985,27.422202 16.0619751,27.7165755 13.7735749,28.6301296 L9.8060437,30.2140111 L13.9882025,40.6900765 L18.6689977,38.8214524 C20.9871174,37.8960339 22.3753659,36.7991585 22.8337847,35.5307932 L22.8337847,35.5307932 Z M70.5484443,41.6073029 L63.2661207,43.3502622 L60.1824235,30.4661512 L44.1593845,13.4236722 L52.0485684,11.5354663 L62.0024163,21.9855771 L66.1463999,8.16127587 L74.0355838,6.27306997 L67.4647471,28.7231919 L70.5484443,41.6073029 Z M113.650214,30.2816345 C117.312344,29.9192215 120.162304,28.1740849 122.200181,25.0461724 L127.46374,29.4934289 C124.096522,34.1356245 119.841525,36.7111607 114.698621,37.2201147 C109.555718,37.7290686 105.159729,36.5241505 101.510523,33.605324 C97.8613174,30.6864975 95.7917229,26.7512254 95.3016774,21.7993895 C94.811632,16.8475535 96.0984414,12.5479677 99.1621442,8.90050284 C102.225847,5.25303803 106.209673,3.18667745 111.113742,2.70135912 C116.591014,2.15931526 121.382983,3.79130819 125.489793,7.59738685 L121.376408,13.3102492 C118.729976,10.6137506 115.655354,9.43884686 112.152447,9.78550281 C109.350122,10.0628276 107.044454,11.2154868 105.235372,13.2435152 C103.426291,15.2715435 102.675393,17.8379436 102.982657,20.9427925 C103.28992,24.0476414 104.475916,26.4464789 106.540682,28.1393769 C108.605447,29.8322749 110.975267,30.5463536 113.650214,30.2816345 L113.650214,30.2816345 Z M170.739087,14.537632 C168.933406,12.3270793 166.632551,11.1478138 163.836452,10.9998002 C161.040353,10.8517866 158.627855,11.7815471 156.598885,13.7891097 C154.569915,15.7966723 153.476365,18.2943319 153.318202,21.2821636 C153.160039,24.2699952 153.984208,26.8611597 155.790735,29.0557346 C157.597261,31.2503096 159.898539,32.4215864 162.694638,32.5696 C165.490738,32.7176136 167.902813,31.7958418 169.930937,29.8042569 C171.959061,27.8126721 173.052188,25.3230011 173.210351,22.3351695 C173.368514,19.3473378 172.544768,16.7481847 170.739087,14.537632 L170.739087,14.537632 Z M162.32559,39.0872041 C157.372501,38.8250086 153.289919,36.950592 150.077724,33.4638982 C146.865528,29.9772045 145.389705,25.7733534 145.650209,20.852219 C145.910713,15.9310845 147.822113,11.9065387 151.384466,8.77846075 C154.946819,5.65038284 159.204477,4.21746316 164.157567,4.47965872 C169.110657,4.74185427 173.193238,6.61627081 176.405434,10.1029646 C179.617629,13.5896583 181.093453,17.7935094 180.832949,22.7146439 C180.572445,27.6357783 178.661045,31.6603242 175.098691,34.7884021 C171.536338,37.91648 167.27868,39.3493997 162.32559,39.0872041 L162.32559,39.0872041 Z M229.275408,18.3002521 L236.579545,19.9494122 L229.19004,52.6775638 L221.885903,51.0284038 L210.924714,27.0003126 L206.29438,47.5080814 L198.990243,45.8589214 L206.379749,13.1307697 L213.215672,14.6742144 L224.518216,39.3698777 L229.275408,18.3002521 Z" id="PYCON-Copy-15" fill="#2D7BD5" transform="translate(118.523272, 30.388694) scale(-1, -1) rotate(-179.000000) translate(-118.523272, -30.388694) "></path>
            <g id="Group" transform="translate(4.000000, 53.000000)">
                <rect id="Rectangle-Copy" fill="#2E7BD5" x="97" y="128.543866" width="20" height="10"></rect>
                <path d="M57.7611482,33.4887803 C57.3407776,30.7577797 58.9361551,29.659983 61.3315099,31.0408101 L140.287109,76.555585 L72.4550781,128.950116 L57.7611482,33.4887803 Z" id="Triangle-Copy-20" fill="#EF5073"></path>
                <path d="M134.449219,91.5438663 L208.196847,127.024236 C210.683438,128.220548 210.460762,129.190351 207.691659,129.190351 L72,129.190351 L134.449219,91.5438663 Z" id="Triangle-Copy-21" fill="#E89937"></path>
                <path d="M62.4492188,91.5438663 L136.196847,127.024236 C138.683438,128.220548 138.460762,129.190351 135.691659,129.190351 L0,129.190351 L62.4492188,91.5438663 Z" id="Triangle-Copy-22" fill="#E89937" transform="translate(70.349609, 110.367108) scale(-1, 1) translate(-70.349609, -110.367108) "></path>
                <path d="M19.7595651,77.4784956 C19.3400689,74.7531751 20.8842004,73.7553956 23.2041564,75.2471129 L106.778274,128.984755 L27.6876897,128.984755 L19.7595651,77.4784956 Z" id="Triangle-Copy-23" fill="#FFD60D"></path>
                <path d="M102,128.984755 L181.090584,128.984755 L189.018709,77.4784956 C189.438205,74.7531751 187.894073,73.7553956 185.574117,75.2471129 L102,128.984755 Z" id="Triangle-Copy-24" fill="#FFD60D"></path>
                <path d="M77.3451308,33.3473144 C76.9247603,30.6163138 78.5201378,29.5185172 80.9154926,30.8993443 L159.871092,76.4141192 L92.0390608,128.80865 L77.3451308,33.3473144 Z" id="Triangle-Copy-25" fill="#EF5073" transform="translate(118.435546, 79.176258) scale(-1, 1) translate(-118.435546, -79.176258) "></path>
                <path d="M104.952786,5.09715347 C106.083431,2.5824424 107.916888,2.58315172 109.047214,5.09715347 L165,129.543866 L49,129.543866 L104.952786,5.09715347 Z" id="Triangle-2-Copy-5" fill="#2E7BD5"></path>
                <path d="M107,4.75488495 C107,1.99199333 107.916888,1.79151257 109.047214,4.30551432 L165,128.752227 L134.407695,118.203156 C119.270843,112.983552 107,95.7665481 107,79.7569311 L107,4.75488495 Z" id="Triangle-2-Copy-4" fill="#23C7FF"></path>
            </g>
        </g>
    </g>
</svg>