<?xml version="1.0" encoding="utf-8"?>
<!-- Generator: Adobe Illustrator 16.0.0, SVG Export Plug-In . SVG Version: 6.00 Build 0)  -->
<!DOCTYPE svg PUBLIC "-//W3C//DTD SVG 1.1//EN" "http://www.w3.org/Graphics/SVG/1.1/DTD/svg11.dtd">
<svg version="1.1" id="Layer_1" xmlns="http://www.w3.org/2000/svg" xmlns:xlink="http://www.w3.org/1999/xlink" x="0px" y="0px"
	 width="250.832px" height="98.988px" viewBox="0 0 250.832 98.988" enable-background="new 0 0 250.832 98.988"
	 xml:space="preserve">
<g>
	<g>
		<polygon fill="#A64D48" points="5.602,36.546 8.341,36.546 8.341,41.414 0,41.414 		"/>
	</g>
	<g>
		<path fill="#EE6D66" d="M113.279,65.11c-5.121-4.943-7.682-10.907-7.682-17.896c0-6.986,2.561-12.97,7.682-17.953
			c5.117-4.98,11.016-7.47,17.691-7.47s12.33,1.833,16.965,5.501c0.555,0.552,0.605,1.158,0.158,1.815
			c-0.453,0.659-1.057,0.742-1.816,0.259c-4.289-3.32-9.426-4.979-15.412-4.979c-5.982,0-11.258,2.228-15.824,6.69
			c-4.564,4.462-6.846,9.843-6.846,16.137c0,6.295,2.281,11.674,6.846,16.135c4.566,4.461,10.135,6.69,16.709,6.69
			c5.256,0,10.1-1.691,14.527-5.082c0.619-0.414,1.191-0.294,1.709,0.361c0.52,0.659,0.504,1.265-0.051,1.816
			c-4.775,3.668-10.172,5.5-16.186,5.5C124.553,72.567,118.396,70.059,113.279,65.11z"/>
	</g>
	<g>
		<path fill="#EE6D66" d="M159.82,29.261c4.662-4.98,10.32-7.47,16.965-7.47c6.637,0,12.309,2.49,17.012,7.47
			c4.705,4.983,7.057,10.967,7.057,17.953c0,6.989-2.352,12.97-7.057,17.95c-4.703,4.982-10.375,7.471-17.012,7.471
			c-6.645,0-12.303-2.488-16.965-7.471c-4.676-4.98-7.008-10.961-7.008-17.95C152.812,40.229,155.145,34.244,159.82,29.261z
			 M161.686,63.349c4.182,4.461,9.213,6.69,15.1,6.69c5.875,0,10.924-2.229,15.146-6.69c4.219-4.46,6.332-9.84,6.332-16.135
			c0-6.294-2.113-11.675-6.332-16.137c-4.223-4.462-9.271-6.69-15.146-6.69c-5.887,0-10.918,2.228-15.1,6.69
			c-4.189,4.462-6.279,9.843-6.279,16.137C155.406,53.509,157.496,58.889,161.686,63.349z"/>
	</g>
	<g>
		<path fill="#EE6D66" d="M209.779,72.635c-0.137-0.139-0.297-0.209-0.465-0.209c-0.174,0-0.262-0.135-0.262-0.412
			c-0.137-0.141-0.209-0.313-0.209-0.52V23.035c0-0.831,0.434-1.244,1.297-1.244c0.865,0,1.301,0.414,1.301,1.244v9.339
			c1.797-3.18,4.289-5.74,7.475-7.678c3.174-1.936,6.67-2.905,10.475-2.905c5.604,0,10.408,2.007,14.426,6.017
			c4.008,4.016,6.016,8.856,6.016,14.527v28.953c0,0.899-0.43,1.347-1.297,1.347c-0.865,0-1.293-0.447-1.293-1.347V42.335
			c0-4.979-1.75-9.217-5.242-12.71c-3.498-3.493-7.699-5.238-12.609-5.238c-4.912,0-9.131,1.746-12.66,5.238
			c-3.523,3.493-5.289,7.73-5.289,12.71v28.953c0,0.899-0.416,1.347-1.248,1.347H209.779z"/>
	</g>
	<g>
		<path fill="#EE6D66" d="M98.221,22.465c-0.488-0.448-1.072-0.674-1.766-0.674s-1.279,0.226-1.766,0.674
			c-0.484,0.45-0.727,1.021-0.727,1.713v27.601c-0.068,4.36-1.625,8.058-4.667,11.103c-3.048,3.047-6.733,4.565-11.054,4.565
			c-4.322,0-8.008-1.519-11.052-4.565c-3.045-3.045-4.566-6.743-4.566-11.103V24.178c0-0.691-0.241-1.263-0.725-1.713
			c-0.484-0.448-1.072-0.674-1.765-0.674c-0.692,0-1.278,0.226-1.763,0.674c-0.482,0.45-0.725,1.021-0.725,1.713v27.601
			c0,5.674,2.004,10.532,6.017,14.579c4.013,4.045,8.997,6.088,14.945,6.123c5.948,0.033,11.068-2.371,15.357-7.213v9.854
			c-0.068,5.26-1.973,9.721-5.708,13.388c-3.733,3.665-8.232,5.497-13.488,5.497c-2.907,0-5.674-0.656-8.304-1.971
			c-1.519-0.414-2.608,0.018-3.267,1.299c-0.66,1.277-0.295,2.369,1.087,3.266c3.532,1.594,7.021,2.389,10.483,2.389
			c6.708,0,12.417-2.316,17.121-6.953c4.703-4.634,7.059-10.269,7.059-16.914V51.779V24.178
			C98.945,23.487,98.701,22.916,98.221,22.465z"/>
	</g>
	<g>
		<g>
			<defs>
				<polygon id="SVGID_1_" points="5.602,36.546 2.386,39.341 4.771,41.414 8.341,41.414 8.341,36.546 				"/>
			</defs>
			<clipPath id="SVGID_2_">
				<use xlink:href="#SVGID_1_"  overflow="visible"/>
			</clipPath>
			<polygon clip-path="url(#SVGID_2_)" fill="#A64D48" points="2.387,39.344 4.457,41.414 2.387,41.414 			"/>
			<polygon clip-path="url(#SVGID_2_)" fill="#A64D48" points="2.387,39.305 4.496,41.414 4.461,41.414 2.387,39.34 			"/>
			<polygon clip-path="url(#SVGID_2_)" fill="#A44A45" points="2.387,39.27 4.531,41.414 4.496,41.414 2.387,39.305 			"/>
			<polygon clip-path="url(#SVGID_2_)" fill="#A14742" points="2.387,39.23 4.566,41.414 4.531,41.414 2.387,39.27 			"/>
			<polygon clip-path="url(#SVGID_2_)" fill="#9F453F" points="2.387,39.195 4.605,41.414 4.566,41.414 2.387,39.23 			"/>
			<polygon clip-path="url(#SVGID_2_)" fill="#9C423C" points="2.387,39.16 4.641,41.414 4.605,41.414 2.387,39.195 			"/>
			<polygon clip-path="url(#SVGID_2_)" fill="#9A4039" points="2.387,39.125 4.676,41.414 4.641,41.414 2.387,39.16 			"/>
			<polygon clip-path="url(#SVGID_2_)" fill="#983E37" points="2.387,39.086 4.711,41.414 4.676,41.414 2.387,39.125 			"/>
			<polygon clip-path="url(#SVGID_2_)" fill="#963B35" points="2.387,39.051 4.75,41.414 4.711,41.414 2.387,39.086 			"/>
			<polygon clip-path="url(#SVGID_2_)" fill="#943933" points="2.387,39.016 4.785,41.414 4.75,41.414 2.387,39.051 			"/>
			<polygon clip-path="url(#SVGID_2_)" fill="#923730" points="2.387,38.977 4.82,41.414 4.785,41.414 2.387,39.016 			"/>
			<polygon clip-path="url(#SVGID_2_)" fill="#90352E" points="2.387,38.941 4.859,41.414 4.82,41.414 2.387,38.977 			"/>
			<polygon clip-path="url(#SVGID_2_)" fill="#8E332D" points="2.387,38.906 4.895,41.414 4.859,41.414 2.387,38.941 			"/>
			<polygon clip-path="url(#SVGID_2_)" fill="#8C322B" points="2.387,38.871 4.93,41.414 4.895,41.414 2.387,38.906 			"/>
			<polygon clip-path="url(#SVGID_2_)" fill="#8B3029" points="4.969,41.414 2.387,38.832 2.387,38.871 4.93,41.414 			"/>
			<polygon clip-path="url(#SVGID_2_)" fill="#892F28" points="2.387,38.797 5.004,41.414 4.969,41.414 2.387,38.832 			"/>
			<polygon clip-path="url(#SVGID_2_)" fill="#882D26" points="2.387,38.762 5.039,41.414 5.004,41.414 2.387,38.797 			"/>
			<polygon clip-path="url(#SVGID_2_)" fill="#862C25" points="2.387,38.723 5.078,41.414 5.039,41.414 2.387,38.762 			"/>
			<polygon clip-path="url(#SVGID_2_)" fill="#852A24" points="2.387,38.688 5.113,41.414 5.078,41.414 2.387,38.723 			"/>
			<polygon clip-path="url(#SVGID_2_)" fill="#842922" points="2.387,38.652 5.148,41.414 5.113,41.414 2.387,38.688 			"/>
			<polygon clip-path="url(#SVGID_2_)" fill="#832821" points="2.387,38.617 5.184,41.414 5.148,41.414 2.387,38.652 			"/>
			<polygon clip-path="url(#SVGID_2_)" fill="#812620" points="2.387,38.578 5.223,41.414 5.184,41.414 2.387,38.617 			"/>
			<polygon clip-path="url(#SVGID_2_)" fill="#80251F" points="2.387,38.543 5.258,41.414 5.223,41.414 2.387,38.578 			"/>
			<polygon clip-path="url(#SVGID_2_)" fill="#7F241E" points="2.387,38.508 5.293,41.414 5.258,41.414 2.387,38.543 			"/>
			<polygon clip-path="url(#SVGID_2_)" fill="#7E231D" points="2.387,38.469 5.328,41.414 5.293,41.414 2.387,38.508 			"/>
			<polygon clip-path="url(#SVGID_2_)" fill="#7D221C" points="2.387,38.434 5.367,41.414 5.328,41.414 2.387,38.469 			"/>
			<polygon clip-path="url(#SVGID_2_)" fill="#7D211C" points="2.387,38.398 5.402,41.414 5.367,41.414 2.387,38.434 			"/>
			<polygon clip-path="url(#SVGID_2_)" fill="#7C201B" points="2.387,38.359 5.438,41.414 5.402,41.414 2.387,38.398 			"/>
			<polygon clip-path="url(#SVGID_2_)" fill="#7B1F1A" points="2.387,38.324 5.477,41.414 5.438,41.414 2.387,38.359 			"/>
			<polygon clip-path="url(#SVGID_2_)" fill="#7A1F19" points="2.387,38.289 5.512,41.414 5.477,41.414 2.387,38.324 			"/>
			<polygon clip-path="url(#SVGID_2_)" fill="#7A1E19" points="2.387,38.254 5.547,41.414 5.512,41.414 2.387,38.289 			"/>
			<polygon clip-path="url(#SVGID_2_)" fill="#791D18" points="2.387,38.215 5.586,41.414 5.547,41.414 2.387,38.254 			"/>
			<polygon clip-path="url(#SVGID_2_)" fill="#791D18" points="2.387,38.18 5.621,41.414 5.586,41.414 2.387,38.215 			"/>
			<polygon clip-path="url(#SVGID_2_)" fill="#781C17" points="5.656,41.414 2.387,38.145 2.387,38.18 5.621,41.414 			"/>
			<polygon clip-path="url(#SVGID_2_)" fill="#771B17" points="2.387,38.105 5.695,41.414 5.656,41.414 2.387,38.145 			"/>
			<polygon clip-path="url(#SVGID_2_)" fill="#771B16" points="2.387,38.07 5.73,41.414 5.695,41.414 2.387,38.105 			"/>
			<polygon clip-path="url(#SVGID_2_)" fill="#771A16" points="2.387,38.035 5.766,41.414 5.73,41.414 2.387,38.07 			"/>
			<polygon clip-path="url(#SVGID_2_)" fill="#761A15" points="2.387,38 5.801,41.414 5.766,41.414 2.387,38.035 			"/>
			<polygon clip-path="url(#SVGID_2_)" fill="#761915" points="2.387,37.961 5.836,41.414 5.801,41.414 2.387,38 			"/>
			<polygon clip-path="url(#SVGID_2_)" fill="#751915" points="2.387,37.926 5.875,41.414 5.836,41.414 2.387,37.961 			"/>
			<polygon clip-path="url(#SVGID_2_)" fill="#751815" points="2.387,37.891 5.91,41.414 5.875,41.414 2.387,37.926 			"/>
			<polygon clip-path="url(#SVGID_2_)" fill="#751814" points="2.387,37.852 5.945,41.414 5.91,41.414 2.387,37.891 			"/>
			<polygon clip-path="url(#SVGID_2_)" fill="#751814" points="2.387,37.816 5.984,41.414 5.945,41.414 2.387,37.852 			"/>
			<polygon clip-path="url(#SVGID_2_)" fill="#741714" points="2.387,37.781 6.02,41.414 5.984,41.414 2.387,37.816 			"/>
			<polygon clip-path="url(#SVGID_2_)" fill="#741714" points="6.055,41.414 2.387,37.746 2.387,37.781 6.02,41.414 			"/>
			<polygon clip-path="url(#SVGID_2_)" fill="#741713" points="2.387,37.707 6.094,41.414 6.055,41.414 2.387,37.746 			"/>
			<polygon clip-path="url(#SVGID_2_)" fill="#741713" points="2.387,37.672 6.129,41.414 6.094,41.414 2.387,37.707 			"/>
			<polygon clip-path="url(#SVGID_2_)" fill="#731613" points="2.387,37.637 6.164,41.414 6.129,41.414 2.387,37.672 			"/>
			<polygon clip-path="url(#SVGID_2_)" fill="#731613" points="2.387,37.598 6.203,41.414 6.164,41.414 2.387,37.637 			"/>
			<polygon clip-path="url(#SVGID_2_)" fill="#731613" points="2.387,37.562 6.238,41.414 6.203,41.414 2.387,37.598 			"/>
			<polygon clip-path="url(#SVGID_2_)" fill="#731613" points="2.387,37.527 6.273,41.414 6.238,41.414 2.387,37.562 			"/>
			<polygon clip-path="url(#SVGID_2_)" fill="#731613" points="2.387,37.488 6.312,41.414 6.273,41.414 2.387,37.527 			"/>
			<polygon clip-path="url(#SVGID_2_)" fill="#731613" points="2.387,37.453 6.348,41.414 6.312,41.414 2.387,37.488 			"/>
			<polygon clip-path="url(#SVGID_2_)" fill="#731512" points="2.387,37.418 6.383,41.414 6.348,41.414 2.387,37.453 			"/>
			<polygon clip-path="url(#SVGID_2_)" fill="#731512" points="2.387,37.383 6.418,41.414 6.383,41.414 2.387,37.418 			"/>
			<polygon clip-path="url(#SVGID_2_)" fill="#731512" points="2.387,37.344 6.453,41.414 6.418,41.414 2.387,37.383 			"/>
			<polygon clip-path="url(#SVGID_2_)" fill="#731512" points="2.387,37.309 6.492,41.414 6.453,41.414 2.387,37.344 			"/>
			<polygon clip-path="url(#SVGID_2_)" fill="#721512" points="2.387,37.273 6.527,41.414 6.492,41.414 2.387,37.309 			"/>
			<polygon clip-path="url(#SVGID_2_)" fill="#721512" points="2.387,37.234 6.562,41.414 6.527,41.414 2.387,37.273 			"/>
			<polygon clip-path="url(#SVGID_2_)" fill="#721512" points="2.387,37.199 6.602,41.414 6.562,41.414 2.387,37.234 			"/>
			<polygon clip-path="url(#SVGID_2_)" fill="#721512" points="6.637,41.414 2.387,37.164 2.387,37.199 6.602,41.414 			"/>
			<polygon clip-path="url(#SVGID_2_)" fill="#721512" points="2.387,37.129 6.672,41.414 6.637,41.414 2.387,37.164 			"/>
			<polygon clip-path="url(#SVGID_2_)" fill="#721512" points="2.387,37.09 6.711,41.414 6.672,41.414 2.387,37.129 			"/>
			<polygon clip-path="url(#SVGID_2_)" fill="#721512" points="2.387,37.055 6.746,41.414 6.711,41.414 2.387,37.09 			"/>
			<polygon clip-path="url(#SVGID_2_)" fill="#721512" points="2.387,37.02 6.781,41.414 6.746,41.414 2.387,37.055 			"/>
			<polygon clip-path="url(#SVGID_2_)" fill="#721512" points="2.387,36.98 6.82,41.414 6.781,41.414 2.387,37.02 			"/>
			<polygon clip-path="url(#SVGID_2_)" fill="#721512" points="2.387,36.945 6.855,41.414 6.82,41.414 2.387,36.98 			"/>
			<polygon clip-path="url(#SVGID_2_)" fill="#721512" points="2.387,36.91 6.891,41.414 6.855,41.414 2.387,36.945 			"/>
			<polygon clip-path="url(#SVGID_2_)" fill="#721512" points="2.387,36.875 6.926,41.414 6.891,41.414 2.387,36.91 			"/>
			<polygon clip-path="url(#SVGID_2_)" fill="#721512" points="2.387,36.836 6.965,41.414 6.926,41.414 2.387,36.875 			"/>
			<polygon clip-path="url(#SVGID_2_)" fill="#721512" points="2.387,36.801 7,41.414 6.965,41.414 2.387,36.836 			"/>
			<polygon clip-path="url(#SVGID_2_)" fill="#721512" points="2.387,36.766 7.035,41.414 7,41.414 2.387,36.801 			"/>
			<polygon clip-path="url(#SVGID_2_)" fill="#721512" points="2.387,36.727 7.07,41.414 7.035,41.414 2.387,36.766 			"/>
			<polygon clip-path="url(#SVGID_2_)" fill="#721512" points="2.387,36.691 7.109,41.414 7.07,41.414 2.387,36.727 			"/>
			<polygon clip-path="url(#SVGID_2_)" fill="#721512" points="2.387,36.656 7.145,41.414 7.109,41.414 2.387,36.691 			"/>
			<polygon clip-path="url(#SVGID_2_)" fill="#721512" points="2.387,36.617 7.18,41.414 7.145,41.414 2.387,36.656 			"/>
			<polygon clip-path="url(#SVGID_2_)" fill="#721512" points="7.219,41.414 2.387,36.582 2.387,36.617 7.18,41.414 			"/>
			<polygon clip-path="url(#SVGID_2_)" fill="#721512" points="7.254,41.414 2.387,36.547 8.34,36.547 8.34,41.414 2.387,41.414 
				2.387,36.582 7.219,41.414 			"/>
			<polygon clip-path="url(#SVGID_2_)" fill="#721512" points="2.465,36.547 7.332,41.414 7.254,41.414 2.387,36.547 			"/>
			<polygon clip-path="url(#SVGID_2_)" fill="#721512" points="2.539,36.547 7.406,41.414 7.332,41.414 2.465,36.547 			"/>
			<polygon clip-path="url(#SVGID_2_)" fill="#721512" points="2.617,36.547 7.484,41.414 7.406,41.414 2.539,36.547 			"/>
			<polygon clip-path="url(#SVGID_2_)" fill="#721512" points="2.695,36.547 7.562,41.414 7.484,41.414 2.617,36.547 			"/>
			<polygon clip-path="url(#SVGID_2_)" fill="#721512" points="2.773,36.547 7.641,41.414 7.562,41.414 2.695,36.547 			"/>
			<polygon clip-path="url(#SVGID_2_)" fill="#721512" points="2.852,36.547 7.719,41.414 7.641,41.414 2.773,36.547 			"/>
			<polygon clip-path="url(#SVGID_2_)" fill="#721512" points="7.797,41.414 2.926,36.547 2.852,36.547 7.719,41.414 			"/>
			<polygon clip-path="url(#SVGID_2_)" fill="#721512" points="3.004,36.547 7.871,41.414 7.797,41.414 2.926,36.547 			"/>
			<polygon clip-path="url(#SVGID_2_)" fill="#721512" points="3.082,36.547 7.949,41.414 7.871,41.414 3.004,36.547 			"/>
			<polygon clip-path="url(#SVGID_2_)" fill="#731512" points="3.16,36.547 8.027,41.414 7.949,41.414 3.082,36.547 			"/>
			<polygon clip-path="url(#SVGID_2_)" fill="#731512" points="3.238,36.547 8.105,41.414 8.027,41.414 3.16,36.547 			"/>
			<polygon clip-path="url(#SVGID_2_)" fill="#731512" points="3.312,36.547 8.18,41.414 8.105,41.414 3.238,36.547 			"/>
			<polygon clip-path="url(#SVGID_2_)" fill="#731613" points="3.391,36.547 8.258,41.414 8.18,41.414 3.312,36.547 			"/>
			<polygon clip-path="url(#SVGID_2_)" fill="#731613" points="3.469,36.547 8.336,41.414 8.258,41.414 3.391,36.547 			"/>
			<polygon clip-path="url(#SVGID_2_)" fill="#731613" points="8.34,41.34 3.547,36.547 3.469,36.547 8.336,41.414 2.387,41.414 
				2.387,36.547 8.34,36.547 			"/>
			<polygon clip-path="url(#SVGID_2_)" fill="#731613" points="3.625,36.547 8.34,41.266 8.34,41.34 3.547,36.547 			"/>
			<polygon clip-path="url(#SVGID_2_)" fill="#731613" points="3.699,36.547 8.34,41.188 8.34,41.266 3.625,36.547 			"/>
			<polygon clip-path="url(#SVGID_2_)" fill="#741713" points="3.777,36.547 8.34,41.109 8.34,41.188 3.699,36.547 			"/>
			<polygon clip-path="url(#SVGID_2_)" fill="#741713" points="3.855,36.547 8.34,41.031 8.34,41.109 3.777,36.547 			"/>
			<polygon clip-path="url(#SVGID_2_)" fill="#741714" points="3.934,36.547 8.34,40.953 8.34,41.031 3.855,36.547 			"/>
			<polygon clip-path="url(#SVGID_2_)" fill="#741714" points="4.012,36.547 8.34,40.879 8.34,40.953 3.934,36.547 			"/>
			<polygon clip-path="url(#SVGID_2_)" fill="#751814" points="4.086,36.547 8.34,40.801 8.34,40.879 4.012,36.547 			"/>
			<polygon clip-path="url(#SVGID_2_)" fill="#751814" points="8.34,40.723 4.164,36.547 4.086,36.547 8.34,40.801 			"/>
			<polygon clip-path="url(#SVGID_2_)" fill="#751915" points="4.242,36.547 8.34,40.645 8.34,40.723 4.164,36.547 			"/>
			<polygon clip-path="url(#SVGID_2_)" fill="#751915" points="4.32,36.547 8.34,40.566 8.34,40.645 4.242,36.547 			"/>
			<polygon clip-path="url(#SVGID_2_)" fill="#761915" points="4.398,36.547 8.34,40.492 8.34,40.566 4.32,36.547 			"/>
			<polygon clip-path="url(#SVGID_2_)" fill="#761A15" points="4.473,36.547 8.34,40.414 8.34,40.492 4.398,36.547 			"/>
			<polygon clip-path="url(#SVGID_2_)" fill="#771A16" points="4.551,36.547 8.34,40.336 8.34,40.414 4.473,36.547 			"/>
			<polygon clip-path="url(#SVGID_2_)" fill="#771B16" points="4.629,36.547 8.34,40.258 8.34,40.336 4.551,36.547 			"/>
			<polygon clip-path="url(#SVGID_2_)" fill="#771B17" points="4.707,36.547 8.34,40.18 8.34,40.258 4.629,36.547 			"/>
			<polygon clip-path="url(#SVGID_2_)" fill="#781C17" points="8.34,40.105 4.785,36.547 4.707,36.547 8.34,40.18 			"/>
			<polygon clip-path="url(#SVGID_2_)" fill="#781C17" points="4.859,36.547 8.34,40.027 8.34,40.105 4.785,36.547 			"/>
			<polygon clip-path="url(#SVGID_2_)" fill="#791D18" points="4.938,36.547 8.34,39.949 8.34,40.027 4.859,36.547 			"/>
			<polygon clip-path="url(#SVGID_2_)" fill="#791D18" points="5.016,36.547 8.34,39.871 8.34,39.949 4.938,36.547 			"/>
			<polygon clip-path="url(#SVGID_2_)" fill="#7A1E19" points="5.094,36.547 8.34,39.797 8.34,39.871 5.016,36.547 			"/>
			<polygon clip-path="url(#SVGID_2_)" fill="#7A1F19" points="5.172,36.547 8.34,39.719 8.34,39.797 5.094,36.547 			"/>
			<polygon clip-path="url(#SVGID_2_)" fill="#7B1F1A" points="5.246,36.547 8.34,39.641 8.34,39.719 5.172,36.547 			"/>
			<polygon clip-path="url(#SVGID_2_)" fill="#7B201A" points="5.324,36.547 8.34,39.562 8.34,39.641 5.246,36.547 			"/>
			<polygon clip-path="url(#SVGID_2_)" fill="#7C211B" points="5.402,36.547 8.34,39.484 8.34,39.562 5.324,36.547 			"/>
			<polygon clip-path="url(#SVGID_2_)" fill="#7D211C" points="5.48,36.547 8.34,39.41 8.34,39.484 5.402,36.547 			"/>
			<polygon clip-path="url(#SVGID_2_)" fill="#7D221C" points="5.559,36.547 8.34,39.332 8.34,39.41 5.48,36.547 			"/>
			<polygon clip-path="url(#SVGID_2_)" fill="#7E231D" points="5.633,36.547 8.34,39.254 8.34,39.332 5.559,36.547 			"/>
			<polygon clip-path="url(#SVGID_2_)" fill="#7F231E" points="5.711,36.547 8.34,39.176 8.34,39.254 5.633,36.547 			"/>
			<polygon clip-path="url(#SVGID_2_)" fill="#7F241E" points="8.34,39.098 5.789,36.547 5.711,36.547 8.34,39.176 			"/>
			<polygon clip-path="url(#SVGID_2_)" fill="#80251F" points="5.867,36.547 8.34,39.023 8.34,39.098 5.789,36.547 			"/>
			<polygon clip-path="url(#SVGID_2_)" fill="#812620" points="5.941,36.547 8.34,38.945 8.34,39.023 5.867,36.547 			"/>
			<polygon clip-path="url(#SVGID_2_)" fill="#822721" points="6.02,36.547 8.34,38.867 8.34,38.945 5.941,36.547 			"/>
			<polygon clip-path="url(#SVGID_2_)" fill="#832821" points="8.34,38.789 6.098,36.547 6.02,36.547 8.34,38.867 			"/>
			<polygon clip-path="url(#SVGID_2_)" fill="#832922" points="6.176,36.547 8.34,38.711 8.34,38.789 6.098,36.547 			"/>
			<polygon clip-path="url(#SVGID_2_)" fill="#842A23" points="6.254,36.547 8.34,38.637 8.34,38.711 6.176,36.547 			"/>
			<polygon clip-path="url(#SVGID_2_)" fill="#852A24" points="6.328,36.547 8.34,38.559 8.34,38.637 6.254,36.547 			"/>
			<polygon clip-path="url(#SVGID_2_)" fill="#862B25" points="6.406,36.547 8.34,38.48 8.34,38.559 6.328,36.547 			"/>
			<polygon clip-path="url(#SVGID_2_)" fill="#872C26" points="8.34,38.402 6.484,36.547 6.406,36.547 8.34,38.48 			"/>
			<polygon clip-path="url(#SVGID_2_)" fill="#882D27" points="6.562,36.547 8.34,38.324 8.34,38.402 6.484,36.547 			"/>
			<polygon clip-path="url(#SVGID_2_)" fill="#892E28" points="6.641,36.547 8.34,38.25 8.34,38.324 6.562,36.547 			"/>
			<polygon clip-path="url(#SVGID_2_)" fill="#8A2F29" points="6.715,36.547 8.34,38.172 8.34,38.25 6.641,36.547 			"/>
			<polygon clip-path="url(#SVGID_2_)" fill="#8B312A" points="6.793,36.547 8.34,38.094 8.34,38.172 6.715,36.547 			"/>
			<polygon clip-path="url(#SVGID_2_)" fill="#8C322B" points="6.871,36.547 8.34,38.016 8.34,38.094 6.793,36.547 			"/>
			<polygon clip-path="url(#SVGID_2_)" fill="#8D332C" points="6.949,36.547 8.34,37.938 8.34,38.016 6.871,36.547 			"/>
			<polygon clip-path="url(#SVGID_2_)" fill="#8F342D" points="7.027,36.547 8.34,37.863 8.34,37.938 6.949,36.547 			"/>
			<polygon clip-path="url(#SVGID_2_)" fill="#90352E" points="7.102,36.547 8.34,37.785 8.34,37.863 7.027,36.547 			"/>
			<polygon clip-path="url(#SVGID_2_)" fill="#913730" points="8.34,37.707 7.18,36.547 7.102,36.547 8.34,37.785 			"/>
			<polygon clip-path="url(#SVGID_2_)" fill="#923831" points="7.258,36.547 8.34,37.629 8.34,37.707 7.18,36.547 			"/>
			<polygon clip-path="url(#SVGID_2_)" fill="#943932" points="7.336,36.547 8.34,37.551 8.34,37.629 7.258,36.547 			"/>
			<polygon clip-path="url(#SVGID_2_)" fill="#953A34" points="7.414,36.547 8.34,37.477 8.34,37.551 7.336,36.547 			"/>
			<polygon clip-path="url(#SVGID_2_)" fill="#963C35" points="7.488,36.547 8.34,37.398 8.34,37.477 7.414,36.547 			"/>
			<polygon clip-path="url(#SVGID_2_)" fill="#973D37" points="7.566,36.547 8.34,37.32 8.34,37.398 7.488,36.547 			"/>
			<polygon clip-path="url(#SVGID_2_)" fill="#993F38" points="7.645,36.547 8.34,37.242 8.34,37.32 7.566,36.547 			"/>
			<polygon clip-path="url(#SVGID_2_)" fill="#9A403A" points="7.723,36.547 8.34,37.164 8.34,37.242 7.645,36.547 			"/>
			<polygon clip-path="url(#SVGID_2_)" fill="#9C423B" points="7.801,36.547 8.34,37.09 8.34,37.164 7.723,36.547 			"/>
			<polygon clip-path="url(#SVGID_2_)" fill="#9D433D" points="7.875,36.547 8.34,37.012 8.34,37.09 7.801,36.547 			"/>
			<polygon clip-path="url(#SVGID_2_)" fill="#9F453F" points="7.953,36.547 8.34,36.934 8.34,37.012 7.875,36.547 			"/>
			<polygon clip-path="url(#SVGID_2_)" fill="#A04640" points="8.031,36.547 8.34,36.855 8.34,36.934 7.953,36.547 			"/>
			<polygon clip-path="url(#SVGID_2_)" fill="#A24842" points="8.109,36.547 8.34,36.777 8.34,36.855 8.031,36.547 			"/>
			<polygon clip-path="url(#SVGID_2_)" fill="#A34A44" points="8.188,36.547 8.34,36.703 8.34,36.777 8.109,36.547 			"/>
			<polygon clip-path="url(#SVGID_2_)" fill="#A54B46" points="8.34,36.625 8.262,36.547 8.188,36.547 8.34,36.703 			"/>
			<polygon clip-path="url(#SVGID_2_)" fill="#A64D48" points="8.34,36.547 8.34,36.547 8.34,36.625 8.262,36.547 			"/>
			<path clip-path="url(#SVGID_2_)" fill="#A64D48" d="M8.34,36.547L8.34,36.547L8.34,36.547z"/>
		</g>
	</g>
	<g>
		<path fill="#EE6D66" d="M45.956,6.072C41.912,2.024,37.046,0,31.375,0h-2.393h-0.208h-7.088h-1.271h-1.324
			c-0.691,0-1.277,0.24-1.763,0.726c-0.481,0.484-0.727,1.071-0.727,1.764v0.003v0.1v0.003c0,0.693,0.246,1.28,0.727,1.763
			c0.486,0.487,1.072,0.727,1.763,0.727h2.595h9.727c4.272,0.009,7.945,1.547,11.013,4.616c3.08,3.079,4.62,6.761,4.62,11.05
			c0,4.289-1.54,7.974-4.62,11.051c-3.075,3.08-6.759,4.657-11.05,4.722H13.424V2.491c0-0.693-0.24-1.28-0.727-1.765
			C12.213,0.244,11.629,0,10.936,0h-0.104c-0.693,0-1.28,0.244-1.765,0.726C8.582,1.211,8.341,1.798,8.341,2.491v34.034H0
			l5.602,4.889h2.74v28.733c0,0.693,0.24,1.278,0.726,1.762c0.485,0.484,1.072,0.727,1.765,0.727c0.691,0,1.297-0.242,1.814-0.727
			c0.518-0.483,0.781-1.068,0.781-1.762V41.414h17.948c5.67,0,10.536-2.033,14.58-6.082c4.047-4.048,6.071-8.924,6.071-14.63
			C52.027,14.994,50.002,10.117,45.956,6.072z"/>
	</g>
	<g>
		<g>
			<defs>
				<rect id="SVGID_3_" x="8.341" y="34.903" width="5.086" height="1.644"/>
			</defs>
			<clipPath id="SVGID_4_">
				<use xlink:href="#SVGID_3_"  overflow="visible"/>
			</clipPath>
			<rect x="8.34" y="36.492" clip-path="url(#SVGID_4_)" fill="#B8554F" width="5.09" height="0.055"/>
			<rect x="8.34" y="36.438" clip-path="url(#SVGID_4_)" fill="#B95550" width="5.09" height="0.055"/>
			<rect x="8.34" y="36.383" clip-path="url(#SVGID_4_)" fill="#BA5650" width="5.09" height="0.055"/>
			<rect x="8.34" y="36.328" clip-path="url(#SVGID_4_)" fill="#BB5651" width="5.09" height="0.055"/>
			<rect x="8.34" y="36.27" clip-path="url(#SVGID_4_)" fill="#BC5751" width="5.09" height="0.059"/>
			<rect x="8.34" y="36.215" clip-path="url(#SVGID_4_)" fill="#BD5752" width="5.09" height="0.055"/>
			<rect x="8.34" y="36.16" clip-path="url(#SVGID_4_)" fill="#BE5852" width="5.09" height="0.055"/>
			<rect x="8.34" y="36.105" clip-path="url(#SVGID_4_)" fill="#C05853" width="5.09" height="0.055"/>
			<rect x="8.34" y="36.047" clip-path="url(#SVGID_4_)" fill="#C15953" width="5.09" height="0.059"/>
			<rect x="8.34" y="35.992" clip-path="url(#SVGID_4_)" fill="#C25954" width="5.09" height="0.055"/>
			<rect x="8.34" y="35.938" clip-path="url(#SVGID_4_)" fill="#C35A55" width="5.09" height="0.055"/>
			<rect x="8.34" y="35.883" clip-path="url(#SVGID_4_)" fill="#C55B55" width="5.09" height="0.055"/>
			<rect x="8.34" y="35.828" clip-path="url(#SVGID_4_)" fill="#C65B56" width="5.09" height="0.055"/>
			<rect x="8.34" y="35.77" clip-path="url(#SVGID_4_)" fill="#C75C56" width="5.09" height="0.059"/>
			<rect x="8.34" y="35.715" clip-path="url(#SVGID_4_)" fill="#C95C57" width="5.09" height="0.055"/>
			<rect x="8.34" y="35.66" clip-path="url(#SVGID_4_)" fill="#CA5D57" width="5.09" height="0.055"/>
			<rect x="8.34" y="35.605" clip-path="url(#SVGID_4_)" fill="#CB5E58" width="5.09" height="0.055"/>
			<rect x="8.34" y="35.547" clip-path="url(#SVGID_4_)" fill="#CD5E59" width="5.09" height="0.059"/>
			<rect x="8.34" y="35.492" clip-path="url(#SVGID_4_)" fill="#CE5F59" width="5.09" height="0.055"/>
			<rect x="8.34" y="35.438" clip-path="url(#SVGID_4_)" fill="#D0605A" width="5.09" height="0.055"/>
			<rect x="8.34" y="35.383" clip-path="url(#SVGID_4_)" fill="#D2605B" width="5.09" height="0.055"/>
			<rect x="8.34" y="35.328" clip-path="url(#SVGID_4_)" fill="#D3615B" width="5.09" height="0.055"/>
			<rect x="8.34" y="35.27" clip-path="url(#SVGID_4_)" fill="#D5625C" width="5.09" height="0.059"/>
			<rect x="8.34" y="35.215" clip-path="url(#SVGID_4_)" fill="#D6635D" width="5.09" height="0.055"/>
			<rect x="8.34" y="35.16" clip-path="url(#SVGID_4_)" fill="#D8635D" width="5.09" height="0.055"/>
			<rect x="8.34" y="35.105" clip-path="url(#SVGID_4_)" fill="#DA645E" width="5.09" height="0.055"/>
			<rect x="8.34" y="35.047" clip-path="url(#SVGID_4_)" fill="#DC655F" width="5.09" height="0.059"/>
			<rect x="8.34" y="34.992" clip-path="url(#SVGID_4_)" fill="#DD6660" width="5.09" height="0.055"/>
			<rect x="8.34" y="34.938" clip-path="url(#SVGID_4_)" fill="#DF6761" width="5.09" height="0.055"/>
			<rect x="8.34" y="34.902" clip-path="url(#SVGID_4_)" fill="#E16861" width="5.09" height="0.035"/>
		</g>
	</g>
	<g>
		<g>
			<defs>
				<rect id="SVGID_5_" x="8.342" y="41.414" width="5.086" height="1.644"/>
			</defs>
			<clipPath id="SVGID_6_">
				<use xlink:href="#SVGID_5_"  overflow="visible"/>
			</clipPath>
			<rect x="8.344" y="41.414" clip-path="url(#SVGID_6_)" fill="#B8554F" width="5.086" height="0.055"/>
			<rect x="8.344" y="41.469" clip-path="url(#SVGID_6_)" fill="#B95550" width="5.086" height="0.055"/>
			<rect x="8.344" y="41.523" clip-path="url(#SVGID_6_)" fill="#BA5650" width="5.086" height="0.055"/>
			<rect x="8.344" y="41.578" clip-path="url(#SVGID_6_)" fill="#BB5651" width="5.086" height="0.055"/>
			<rect x="8.344" y="41.633" clip-path="url(#SVGID_6_)" fill="#BC5751" width="5.086" height="0.055"/>
			<rect x="8.344" y="41.688" clip-path="url(#SVGID_6_)" fill="#BD5752" width="5.086" height="0.059"/>
			<rect x="8.344" y="41.746" clip-path="url(#SVGID_6_)" fill="#BE5852" width="5.086" height="0.055"/>
			<rect x="8.344" y="41.801" clip-path="url(#SVGID_6_)" fill="#C05853" width="5.086" height="0.055"/>
			<rect x="8.344" y="41.855" clip-path="url(#SVGID_6_)" fill="#C15953" width="5.086" height="0.055"/>
			<rect x="8.344" y="41.91" clip-path="url(#SVGID_6_)" fill="#C25954" width="5.086" height="0.059"/>
			<rect x="8.344" y="41.969" clip-path="url(#SVGID_6_)" fill="#C35A55" width="5.086" height="0.055"/>
			<rect x="8.344" y="42.023" clip-path="url(#SVGID_6_)" fill="#C55B55" width="5.086" height="0.055"/>
			<rect x="8.344" y="42.078" clip-path="url(#SVGID_6_)" fill="#C65B56" width="5.086" height="0.055"/>
			<rect x="8.344" y="42.133" clip-path="url(#SVGID_6_)" fill="#C75C56" width="5.086" height="0.055"/>
			<rect x="8.344" y="42.188" clip-path="url(#SVGID_6_)" fill="#C95C57" width="5.086" height="0.059"/>
			<rect x="8.344" y="42.246" clip-path="url(#SVGID_6_)" fill="#CA5D57" width="5.086" height="0.055"/>
			<rect x="8.344" y="42.301" clip-path="url(#SVGID_6_)" fill="#CB5E58" width="5.086" height="0.055"/>
			<rect x="8.344" y="42.355" clip-path="url(#SVGID_6_)" fill="#CD5E59" width="5.086" height="0.055"/>
			<rect x="8.344" y="42.41" clip-path="url(#SVGID_6_)" fill="#CE5F59" width="5.086" height="0.059"/>
			<rect x="8.344" y="42.469" clip-path="url(#SVGID_6_)" fill="#D0605A" width="5.086" height="0.055"/>
			<rect x="8.344" y="42.523" clip-path="url(#SVGID_6_)" fill="#D2605B" width="5.086" height="0.055"/>
			<rect x="8.344" y="42.578" clip-path="url(#SVGID_6_)" fill="#D3615B" width="5.086" height="0.055"/>
			<rect x="8.344" y="42.633" clip-path="url(#SVGID_6_)" fill="#D5625C" width="5.086" height="0.055"/>
			<rect x="8.344" y="42.688" clip-path="url(#SVGID_6_)" fill="#D6635D" width="5.086" height="0.059"/>
			<rect x="8.344" y="42.746" clip-path="url(#SVGID_6_)" fill="#D8635D" width="5.086" height="0.055"/>
			<rect x="8.344" y="42.801" clip-path="url(#SVGID_6_)" fill="#DA645E" width="5.086" height="0.055"/>
			<rect x="8.344" y="42.855" clip-path="url(#SVGID_6_)" fill="#DC655F" width="5.086" height="0.055"/>
			<rect x="8.344" y="42.91" clip-path="url(#SVGID_6_)" fill="#DD6660" width="5.086" height="0.059"/>
			<rect x="8.344" y="42.969" clip-path="url(#SVGID_6_)" fill="#DF6761" width="5.086" height="0.055"/>
			<rect x="8.344" y="43.023" clip-path="url(#SVGID_6_)" fill="#E16861" width="5.086" height="0.035"/>
		</g>
	</g>
	<g>
		<path fill="#721512" d="M112.639,90.764c0-0.734,0.129-1.465,0.388-2.194c0.259-0.729,0.634-1.38,1.128-1.954
			c0.492-0.574,1.102-1.042,1.824-1.403s1.543-0.542,2.461-0.542c1.09,0,2.02,0.247,2.789,0.74c0.769,0.494,1.342,1.136,1.721,1.928
			l-0.963,0.585c-0.195-0.401-0.432-0.74-0.707-1.016s-0.573-0.499-0.895-0.671c-0.321-0.172-0.654-0.295-0.998-0.37
			c-0.344-0.074-0.684-0.112-1.016-0.112c-0.734,0-1.383,0.149-1.945,0.448s-1.035,0.688-1.42,1.17s-0.674,1.024-0.869,1.626
			s-0.293,1.213-0.293,1.833c0,0.677,0.117,1.326,0.354,1.945c0.234,0.62,0.557,1.168,0.963,1.645
			c0.408,0.477,0.89,0.854,1.447,1.136c0.556,0.281,1.161,0.422,1.815,0.422c0.345,0,0.696-0.043,1.058-0.13
			c0.362-0.086,0.712-0.223,1.051-0.412c0.338-0.189,0.65-0.425,0.938-0.706s0.528-0.622,0.724-1.024l0.998,0.517
			c-0.195,0.459-0.471,0.864-0.826,1.214c-0.356,0.35-0.751,0.645-1.188,0.887c-0.437,0.24-0.897,0.424-1.386,0.551
			c-0.488,0.125-0.967,0.189-1.438,0.189c-0.838,0-1.606-0.184-2.307-0.552c-0.699-0.366-1.303-0.846-1.807-1.437
			c-0.506-0.592-0.898-1.263-1.18-2.014C112.779,92.311,112.639,91.545,112.639,90.764z"/>
		<path fill="#721512" d="M137.15,96.961l5.111-12.221h0.982l5.111,12.221h-1.291l-1.584-3.822h-5.49l-1.566,3.822H137.15z
			 M142.762,86.151l-2.514,6.042h4.957L142.762,86.151z"/>
		<path fill="#721512" d="M164.465,86.977v9.984h-1.188V84.74h0.93l8.09,10.172V84.757h1.188v12.204h-1.031L164.465,86.977z"/>
		<path fill="#721512" d="M188.443,96.961l5.111-12.221h0.982l5.111,12.221h-1.291l-1.584-3.822h-5.49l-1.566,3.822H188.443z
			 M194.055,86.151l-2.514,6.042h4.957L194.055,86.151z"/>
		<path fill="#721512" d="M214.572,96.961V84.74h4.131c0.975,0,1.83,0.161,2.564,0.482s1.346,0.757,1.834,1.308
			c0.486,0.551,0.852,1.196,1.092,1.936c0.242,0.74,0.361,1.529,0.361,2.367c0,0.929-0.137,1.771-0.412,2.522
			s-0.666,1.394-1.17,1.928c-0.506,0.534-1.119,0.946-1.842,1.239c-0.725,0.293-1.533,0.439-2.428,0.439H214.572z M223.35,90.833
			c0-0.734-0.102-1.408-0.309-2.022c-0.207-0.613-0.508-1.145-0.904-1.592c-0.396-0.448-0.881-0.794-1.455-1.042
			c-0.572-0.247-1.232-0.37-1.979-0.37h-2.943v10.086h2.943c0.758,0,1.426-0.129,2.006-0.387c0.578-0.258,1.064-0.613,1.453-1.066
			c0.391-0.453,0.686-0.987,0.887-1.602C223.25,92.225,223.35,91.556,223.35,90.833z"/>
		<path fill="#721512" d="M238.789,96.961l5.113-12.221h0.98l5.113,12.221h-1.291l-1.584-3.822h-5.49l-1.566,3.822H238.789z
			 M244.4,86.151l-2.512,6.042h4.957L244.4,86.151z"/>
	</g>
</g>
</svg>
